<svg fill="currentColor" xmlns="http://www.w3.org/2000/svg" viewBox="40 -8 190 200" width="320" height="337" font-family="'Latin Modern Roman', Georgia, 'Times New Roman', serif">
  <!-- Camino: 2 SE, 2 SW, 1 SE. Flechas planas chevron recortadas.
       Dado: top=6, frente=3, derecha=5. Secuencia top: 6,2,1,4,6,5 → final 5. -->
  <g stroke="currentColor" stroke-width="1.3" fill="none" stroke-linejoin="miter">
    <polygon points="90,40 130,60 90,80 50,60"/>
    <polygon points="130,60 170,80 130,100 90,80"/>
    <polygon points="170,80 210,100 170,120 130,100"/>
    <polygon points="130,100 170,120 130,140 90,120"/>
    <polygon points="90,120 130,140 90,160 50,140"/>
    <polygon points="130,140 170,160 130,180 90,160"/>
  </g>
  <g stroke="currentColor" stroke-width="1.7" fill="none" stroke-linecap="round" stroke-linejoin="round">
    <line x1="133.58" y1="81.79" x2="166.42" y2="98.21"/>
    <polyline points="153.01,95.98 166.42,98.21 161.95,91.5"/>
    <line x1="166.42" y1="101.79" x2="93.58" y2="138.21"/>
    <polyline points="106.99,135.98 93.58,138.21 98.05,131.5"/>
    <line x1="93.58" y1="141.79" x2="126.42" y2="158.21"/>
    <polyline points="113.01,155.98 126.42,158.21 121.95,151.5"/>
  </g>
  <g stroke="#1f1a16" stroke-width="1.6" stroke-linejoin="bevel">
    <polygon points="90,0 130,20 90,40 50,20" fill="#efe7d8"/>
    <polygon points="50,20 90,40 90,80 50,60" fill="#c9bda3"/>
    <polygon points="90,40 130,20 130,60 90,80" fill="#a89880"/>
  </g>
  <g fill="#1f1a16" stroke="none">
    <circle cx="92" cy="9" r="2.6"/>
    <circle cx="80" cy="15" r="2.6"/>
    <circle cx="68" cy="21" r="2.6"/>
    <circle cx="112" cy="19" r="2.6"/>
    <circle cx="100" cy="25" r="2.6"/>
    <circle cx="88" cy="31" r="2.6"/>
    <circle cx="59" cy="55.5" r="2.6"/>
    <circle cx="70" cy="50" r="2.6"/>
    <circle cx="81" cy="44.5" r="2.6"/>
    <circle cx="99" cy="44.5" r="2.6"/>
    <circle cx="99" cy="66.5" r="2.6"/>
    <circle cx="110" cy="50" r="2.6"/>
    <circle cx="121" cy="33.5" r="2.6"/>
    <circle cx="121" cy="55.5" r="2.6"/>
  </g>
</svg>
