<svg fill="currentColor" xmlns="http://www.w3.org/2000/svg" viewBox="0 0 150 140" width="150" height="140">
  <g stroke="currentColor" stroke-width="0.5" opacity="0.25">
    <line x1="38" y1="120" x2="38" y2="12"/>
    <line x1="20" y1="102" x2="128" y2="102"/>
    <line x1="56" y1="120" x2="56" y2="12"/>
    <line x1="20" y1="84" x2="128" y2="84"/>
    <line x1="74" y1="120" x2="74" y2="12"/>
    <line x1="20" y1="66" x2="128" y2="66"/>
    <line x1="92" y1="120" x2="92" y2="12"/>
    <line x1="20" y1="48" x2="128" y2="48"/>
    <line x1="110" y1="120" x2="110" y2="12"/>
    <line x1="20" y1="30" x2="128" y2="30"/>
    <line x1="128" y1="120" x2="128" y2="12"/>
    <line x1="20" y1="12" x2="128" y2="12"/>
  </g>
  <g stroke="currentColor" stroke-width="1.4" fill="none" stroke-linecap="round">
    <line x1="20" y1="120" x2="140" y2="120"/>
    <line x1="20" y1="120" x2="20" y2="4"/>
  </g>
  <g fill="currentColor">
    <polygon points="143,120 137,117 137,123"/>
    <polygon points="20,1 17,7 23,7"/>
  </g>
  <path d="M 20 70 L 128 12" stroke="currentColor" stroke-width="2.2" fill="none" stroke-linecap="round"/>
</svg>
