<svg fill="currentColor" xmlns="http://www.w3.org/2000/svg" viewBox="0 0 300 270" width="380" height="342" font-family="'Latin Modern Roman', Georgia, 'Times New Roman', serif">
  <g transform="translate(0, 0)">
    <text x="12" y="70" font-size="14" font-style="italic" fill="currentColor">a.</text>
    <g stroke="currentColor" stroke-width="0.5" opacity="0.25">
      <line x1="50" y1="110" x2="50" y2="14"/>
      <line x1="35" y1="94" x2="125" y2="94"/>
      <line x1="65" y1="110" x2="65" y2="14"/>
      <line x1="35" y1="78" x2="125" y2="78"/>
      <line x1="80" y1="110" x2="80" y2="14"/>
      <line x1="35" y1="62" x2="125" y2="62"/>
      <line x1="95" y1="110" x2="95" y2="14"/>
      <line x1="35" y1="46" x2="125" y2="46"/>
      <line x1="110" y1="110" x2="110" y2="14"/>
      <line x1="35" y1="30" x2="125" y2="30"/>
      <line x1="125" y1="110" x2="125" y2="14"/>
      <line x1="35" y1="14" x2="125" y2="14"/>
    </g>
    <g stroke="currentColor" stroke-width="1.3" fill="none" stroke-linecap="round">
      <line x1="35" y1="110" x2="135" y2="110"/>
      <line x1="35" y1="110" x2="35" y2="6"/>
    </g>
    <g fill="currentColor">
      <polygon points="138,110 132,107 132,113"/>
      <polygon points="35,3 32,9 38,9"/>
    </g>
    <path d="M 35 110 L 125 14" stroke="currentColor" stroke-width="2" fill="none" stroke-linecap="round"/>
  </g>

  <g transform="translate(150, 0)">
    <text x="12" y="70" font-size="14" font-style="italic" fill="currentColor">b.</text>
    <g stroke="currentColor" stroke-width="0.5" opacity="0.25">
      <line x1="50" y1="110" x2="50" y2="14"/>
      <line x1="35" y1="94" x2="125" y2="94"/>
      <line x1="65" y1="110" x2="65" y2="14"/>
      <line x1="35" y1="78" x2="125" y2="78"/>
      <line x1="80" y1="110" x2="80" y2="14"/>
      <line x1="35" y1="62" x2="125" y2="62"/>
      <line x1="95" y1="110" x2="95" y2="14"/>
      <line x1="35" y1="46" x2="125" y2="46"/>
      <line x1="110" y1="110" x2="110" y2="14"/>
      <line x1="35" y1="30" x2="125" y2="30"/>
      <line x1="125" y1="110" x2="125" y2="14"/>
      <line x1="35" y1="14" x2="125" y2="14"/>
    </g>
    <g stroke="currentColor" stroke-width="1.3" fill="none" stroke-linecap="round">
      <line x1="35" y1="110" x2="135" y2="110"/>
      <line x1="35" y1="110" x2="35" y2="6"/>
    </g>
    <g fill="currentColor">
      <polygon points="138,110 132,107 132,113"/>
      <polygon points="35,3 32,9 38,9"/>
    </g>
    <path d="M 35 110 Q 100 110 125 14" stroke="currentColor" stroke-width="2" fill="none" stroke-linecap="round"/>
  </g>

  <g transform="translate(0, 140)">
    <text x="12" y="70" font-size="14" font-style="italic" fill="currentColor">c.</text>
    <g stroke="currentColor" stroke-width="0.5" opacity="0.25">
      <line x1="50" y1="110" x2="50" y2="14"/>
      <line x1="35" y1="94" x2="125" y2="94"/>
      <line x1="65" y1="110" x2="65" y2="14"/>
      <line x1="35" y1="78" x2="125" y2="78"/>
      <line x1="80" y1="110" x2="80" y2="14"/>
      <line x1="35" y1="62" x2="125" y2="62"/>
      <line x1="95" y1="110" x2="95" y2="14"/>
      <line x1="35" y1="46" x2="125" y2="46"/>
      <line x1="110" y1="110" x2="110" y2="14"/>
      <line x1="35" y1="30" x2="125" y2="30"/>
      <line x1="125" y1="110" x2="125" y2="14"/>
      <line x1="35" y1="14" x2="125" y2="14"/>
    </g>
    <g stroke="currentColor" stroke-width="1.3" fill="none" stroke-linecap="round">
      <line x1="35" y1="110" x2="135" y2="110"/>
      <line x1="35" y1="110" x2="35" y2="6"/>
    </g>
    <g fill="currentColor">
      <polygon points="138,110 132,107 132,113"/>
      <polygon points="35,3 32,9 38,9"/>
    </g>
    <path d="M 35 70 L 125 14" stroke="currentColor" stroke-width="2" fill="none" stroke-linecap="round"/>
  </g>

  <g transform="translate(150, 140)">
    <text x="12" y="70" font-size="14" font-style="italic" fill="currentColor">d.</text>
    <g stroke="currentColor" stroke-width="0.5" opacity="0.25">
      <line x1="50" y1="110" x2="50" y2="14"/>
      <line x1="35" y1="94" x2="125" y2="94"/>
      <line x1="65" y1="110" x2="65" y2="14"/>
      <line x1="35" y1="78" x2="125" y2="78"/>
      <line x1="80" y1="110" x2="80" y2="14"/>
      <line x1="35" y1="62" x2="125" y2="62"/>
      <line x1="95" y1="110" x2="95" y2="14"/>
      <line x1="35" y1="46" x2="125" y2="46"/>
      <line x1="110" y1="110" x2="110" y2="14"/>
      <line x1="35" y1="30" x2="125" y2="30"/>
      <line x1="125" y1="110" x2="125" y2="14"/>
      <line x1="35" y1="14" x2="125" y2="14"/>
    </g>
    <g stroke="currentColor" stroke-width="1.3" fill="none" stroke-linecap="round">
      <line x1="35" y1="110" x2="135" y2="110"/>
      <line x1="35" y1="110" x2="35" y2="6"/>
    </g>
    <g fill="currentColor">
      <polygon points="138,110 132,107 132,113"/>
      <polygon points="35,3 32,9 38,9"/>
    </g>
    <path d="M 35 75 Q 100 75 125 14" stroke="currentColor" stroke-width="2" fill="none" stroke-linecap="round"/>
  </g>

</svg>
