<svg fill="currentColor" xmlns="http://www.w3.org/2000/svg" viewBox="0 0 340 100" width="460" height="135">
  <g transform="translate(0, 0)">
    <rect x="4" y="4" width="92" height="92" stroke="currentColor" stroke-width="2.4" fill="none"/>
    <rect x="18" y="18" width="24" height="24" fill="currentColor" stroke="none"/>
    <circle cx="30" cy="70" r="13" stroke="currentColor" stroke-width="2.4" fill="none"/>
    <g stroke="currentColor" stroke-width="2.4" fill="none" stroke-linecap="round">
      <line x1="57" y1="60" x2="83" y2="60"/>
      <line x1="70" y1="60" x2="70" y2="83"/>
    </g>
  </g>
  <g transform="translate(120, 0)">
    <rect x="4" y="4" width="92" height="92" stroke="currentColor" stroke-width="2.4" fill="none"/>
    <rect x="58" y="18" width="24" height="24" fill="currentColor" stroke="none"/>
    <circle cx="70" cy="70" r="13" stroke="currentColor" stroke-width="2.4" fill="none"/>
    <g stroke="currentColor" stroke-width="2.4" fill="none" stroke-linecap="round">
      <line x1="40" y1="57" x2="40" y2="83"/>
      <line x1="40" y1="70" x2="17" y2="70"/>
    </g>
  </g>
  <g transform="translate(240, 0)">
    <rect x="4" y="4" width="92" height="92" stroke="currentColor" stroke-width="2.4" fill="none"/>
    <rect x="58" y="58" width="24" height="24" fill="currentColor" stroke="none"/>
    <circle cx="70" cy="30" r="13" stroke="currentColor" stroke-width="2.4" fill="none"/>
    <g stroke="currentColor" stroke-width="2.4" fill="none" stroke-linecap="round">
      <line x1="17" y1="40" x2="43" y2="40"/>
      <line x1="30" y1="40" x2="30" y2="17"/>
    </g>
  </g>
</svg>
