<svg fill="currentColor" xmlns="http://www.w3.org/2000/svg" viewBox="0 0 320 100" width="384" height="120">
  <g transform="translate(0, 0)">
    <polygon points="50,15 88.04,42.64 73.51,87.36 26.49,87.36 11.96,42.64" stroke="currentColor" stroke-width="1.8" fill="none" stroke-linejoin="miter"/>
    <circle cx="50" cy="55" r="28" stroke="currentColor" stroke-width="1.6" fill="none"/>
    <line x1="22" y1="55" x2="78" y2="55" stroke="currentColor" stroke-width="1.6"/>
  </g>
  <g transform="translate(110, 0)">
    <polygon points="50,15 88.04,42.64 73.51,87.36 26.49,87.36 11.96,42.64" stroke="currentColor" stroke-width="1.8" fill="none" stroke-linejoin="miter"/>
    <circle cx="50" cy="55" r="28" stroke="currentColor" stroke-width="1.6" fill="none"/>
    <line x1="22" y1="55" x2="78" y2="55" stroke="currentColor" stroke-width="1.6"/>
    <line x1="50" y1="27" x2="50" y2="83" stroke="currentColor" stroke-width="1.6"/>
  </g>
  <g transform="translate(220, 0)">
    <polygon points="50,15 88.04,42.64 73.51,87.36 26.49,87.36 11.96,42.64" stroke="currentColor" stroke-width="1.8" fill="none" stroke-linejoin="miter"/>
    <circle cx="50" cy="55" r="28" stroke="currentColor" stroke-width="1.6" fill="none"/>
    <polygon points="50,27.5 73.82,68.75 26.18,68.75" stroke="currentColor" stroke-width="1.6" fill="none" stroke-linejoin="round"/>
  </g>
</svg>
