<svg fill="currentColor" xmlns="http://www.w3.org/2000/svg" viewBox="0 0 420 220" width="460" height="241" font-family="'Latin Modern Roman', Georgia, 'Times New Roman', serif">
  <!-- Sistema de numeración: decagrama (2 pentágonos), posiciones 0-9
       antihorario con 0 abajo (lo señala el triángulo basal).
       ○ = decenas, ● = unidades. Símbolo 1: ○3 ●8 = 38. Símbolo 2: ○9 ●4 = 94. -->
  <g transform="translate(0, 0)">
    <polygon points="100,25 166.57,73.37 141.14,151.63 58.86,151.63 33.43,73.37" stroke="currentColor" stroke-width="1.6" fill="none" stroke-linejoin="miter"/>
    <polygon points="141.14,38.37 166.57,116.63 100,165 33.43,116.63 58.86,38.37" stroke="currentColor" stroke-width="1.6" fill="none" stroke-linejoin="miter"/>
    <g stroke="currentColor" stroke-width="1.6" stroke-linecap="round">
      <line x1="82" y1="77" x2="118" y2="113"/>
      <line x1="118" y1="77" x2="82" y2="113"/>
    </g>
    <circle cx="179.89" cy="69.04" r="4.5" fill="currentColor"/>
    <circle cx="20.11" cy="120.96" r="4.5" fill="currentColor"/>
    <polygon points="100,174 155,190 45,190" stroke="currentColor" stroke-width="1.6" fill="none" stroke-linejoin="miter"/>
    <text x="100" y="210" font-size="15" text-anchor="middle" fill="currentColor">38</text>
  </g>
  <g transform="translate(220, 0)">
    <polygon points="100,25 166.57,73.37 141.14,151.63 58.86,151.63 33.43,73.37" stroke="currentColor" stroke-width="1.6" fill="none" stroke-linejoin="miter"/>
    <polygon points="141.14,38.37 166.57,116.63 100,165 33.43,116.63 58.86,38.37" stroke="currentColor" stroke-width="1.6" fill="none" stroke-linejoin="miter"/>
    <g stroke="currentColor" stroke-width="1.6" stroke-linecap="round">
      <line x1="82" y1="77" x2="118" y2="113"/>
      <line x1="118" y1="77" x2="82" y2="113"/>
    </g>
    <circle cx="50.63" cy="162.96" r="4.5" fill="currentColor"/>
    <circle cx="149.37" cy="27.04" r="4.5" stroke="currentColor" stroke-width="1.5" fill="none"/>
    <polygon points="100,174 155,190 45,190" stroke="currentColor" stroke-width="1.6" fill="none" stroke-linejoin="miter"/>
    <text x="100" y="210" font-size="15" text-anchor="middle" fill="currentColor">?</text>
  </g>
</svg>
