<svg fill="currentColor" xmlns="http://www.w3.org/2000/svg" viewBox="0 0 437 266" width="437" height="266" font-family="'Latin Modern Roman', Georgia, serif">
<!-- Fuerza contra aceleración: recta por el origen, pendiente = masa -->
<line x1="74" y1="226" x2="327" y2="226" stroke="currentColor" stroke-width="1.8"/>
<line x1="74" y1="226" x2="74" y2="24" stroke="currentColor" stroke-width="1.8"/>
<path d="M 327 226 l -8 -4 l 0 8 z" fill="currentColor"/>
<path d="M 74 24 l -4 8 l 8 0 z" fill="currentColor"/>
<text x="333" y="244" font-size="15"></text>
<text x="64" y="16" font-size="15" text-anchor="middle"></text>
<text x="341" y="232" font-size="13">Aceleración</text>
<text x="341" y="248" font-size="12">(m/s²)</text>
<text x="58" y="18" font-size="13">Fuerza (N)</text>
<text x="65" y="243" font-size="13" text-anchor="middle">0</text>
<line x1="133" y1="226" x2="133" y2="231" stroke="currentColor" stroke-width="1.3"/>
<text x="133" y="245" font-size="12" text-anchor="middle">0.50</text>
<line x1="192" y1="226" x2="192" y2="231" stroke="currentColor" stroke-width="1.3"/>
<text x="192" y="245" font-size="12" text-anchor="middle">1.00</text>
<line x1="251" y1="226" x2="251" y2="231" stroke="currentColor" stroke-width="1.3"/>
<text x="251" y="245" font-size="12" text-anchor="middle">1.50</text>
<line x1="310" y1="226" x2="310" y2="231" stroke="currentColor" stroke-width="1.3"/>
<text x="310" y="245" font-size="12" text-anchor="middle">2.00</text>
<line x1="69" y1="182" x2="74" y2="182" stroke="currentColor" stroke-width="1.3"/>
<text x="65" y="187" font-size="12" text-anchor="end">1.00</text>
<line x1="69" y1="138" x2="74" y2="138" stroke="currentColor" stroke-width="1.3"/>
<text x="65" y="143" font-size="12" text-anchor="end">2.00</text>
<line x1="69" y1="94" x2="74" y2="94" stroke="currentColor" stroke-width="1.3"/>
<text x="65" y="99" font-size="12" text-anchor="end">3.00</text>
<line x1="69" y1="50" x2="74" y2="50" stroke="currentColor" stroke-width="1.3"/>
<text x="65" y="55" font-size="12" text-anchor="end">4.00</text>
<line x1="74" y1="226" x2="263" y2="50" stroke="currentColor" stroke-width="2.6"/>
<line x1="74" y1="182" x2="121" y2="182" stroke="currentColor" stroke-width="1" stroke-dasharray="4 3" stroke-opacity="0.55"/>
<line x1="121" y1="182" x2="121" y2="226" stroke="currentColor" stroke-width="1" stroke-dasharray="4 3" stroke-opacity="0.55"/>
<circle cx="121" cy="182" r="3.4" fill="currentColor"/>
<line x1="74" y1="138" x2="168" y2="138" stroke="currentColor" stroke-width="1" stroke-dasharray="4 3" stroke-opacity="0.55"/>
<line x1="168" y1="138" x2="168" y2="226" stroke="currentColor" stroke-width="1" stroke-dasharray="4 3" stroke-opacity="0.55"/>
<circle cx="168" cy="138" r="3.4" fill="currentColor"/>
<line x1="74" y1="94" x2="216" y2="94" stroke="currentColor" stroke-width="1" stroke-dasharray="4 3" stroke-opacity="0.55"/>
<line x1="216" y1="94" x2="216" y2="226" stroke="currentColor" stroke-width="1" stroke-dasharray="4 3" stroke-opacity="0.55"/>
<circle cx="216" cy="94" r="3.4" fill="currentColor"/>
<line x1="74" y1="50" x2="263" y2="50" stroke="currentColor" stroke-width="1" stroke-dasharray="4 3" stroke-opacity="0.55"/>
<line x1="263" y1="50" x2="263" y2="226" stroke="currentColor" stroke-width="1" stroke-dasharray="4 3" stroke-opacity="0.55"/>
<circle cx="263" cy="50" r="3.4" fill="currentColor"/>
</svg>
