<svg xmlns="http://www.w3.org/2000/svg" viewBox="0 0 720 150" width="720" height="150" font-family="'Latin Modern Roman', Georgia, 'Times New Roman', serif">
  <rect width="720" height="150" fill="#ffffff"/>
  <defs>
    <symbol id="clockface" overflow="visible">
      <circle cx="0" cy="0" r="55" fill="#ffffff" stroke="#1a1a1a" stroke-width="2"/>
      <text x="0" y="-38" text-anchor="middle" font-size="11">12</text>
      <text x="38" y="4" text-anchor="middle" font-size="11">3</text>
      <text x="0" y="46" text-anchor="middle" font-size="11">6</text>
      <text x="-38" y="4" text-anchor="middle" font-size="11">9</text>
      <text x="20" y="-30" text-anchor="middle" font-size="9">1</text>
      <text x="32" y="-18" text-anchor="middle" font-size="9">2</text>
      <text x="34" y="22" text-anchor="middle" font-size="9">4</text>
      <text x="22" y="34" text-anchor="middle" font-size="9">5</text>
      <text x="-22" y="34" text-anchor="middle" font-size="9">7</text>
      <text x="-34" y="22" text-anchor="middle" font-size="9">8</text>
      <text x="-34" y="-18" text-anchor="middle" font-size="9">10</text>
      <text x="-20" y="-30" text-anchor="middle" font-size="9">11</text>
      <circle cx="0" cy="0" r="3" fill="#1a1a1a"/>
    </symbol>
  </defs>
  <!-- Reloj 1: 12:15 -->
  <g transform="translate(75, 75)">
    <use href="#clockface"/>
    <line x1="0" y1="0" x2="-0.0" y2="-30.0" stroke="#1a1a1a" stroke-width="3" stroke-linecap="round"/>
    <line x1="0" y1="0" x2="40.0" y2="0.0" stroke="#1a1a1a" stroke-width="2" stroke-linecap="round"/>
  </g>

  <!-- Reloj 2: 9:25 -->
  <g transform="translate(205, 75)">
    <use href="#clockface"/>
    <line x1="0" y1="0" x2="-30.0" y2="0.0" stroke="#1a1a1a" stroke-width="3" stroke-linecap="round"/>
    <line x1="0" y1="0" x2="20.0" y2="34.6" stroke="#1a1a1a" stroke-width="2" stroke-linecap="round"/>
  </g>

  <!-- Reloj 3: 6:35 -->
  <g transform="translate(335, 75)">
    <use href="#clockface"/>
    <line x1="0" y1="0" x2="0.0" y2="30.0" stroke="#1a1a1a" stroke-width="3" stroke-linecap="round"/>
    <line x1="0" y1="0" x2="-20.0" y2="34.6" stroke="#1a1a1a" stroke-width="2" stroke-linecap="round"/>
  </g>

  <!-- Reloj 4: 3:45 -->
  <g transform="translate(465, 75)">
    <use href="#clockface"/>
    <line x1="0" y1="0" x2="30.0" y2="0.0" stroke="#1a1a1a" stroke-width="3" stroke-linecap="round"/>
    <line x1="0" y1="0" x2="-40.0" y2="0.0" stroke="#1a1a1a" stroke-width="2" stroke-linecap="round"/>
  </g>

  <!-- Cuadro interrogación -->
  <g transform="translate(595, 75)">
    <rect x="-55" y="-55" width="110" height="110" fill="none" stroke="#1a1a1a" stroke-width="2" stroke-dasharray="6,4"/>
    <text x="0" y="10" text-anchor="middle" font-size="36" font-weight="700">?</text>
  </g>
</svg>
