<svg fill="currentColor" xmlns="http://www.w3.org/2000/svg" viewBox="0 0 670 150" width="670" height="150" font-family="'Latin Modern Roman', Georgia, 'Times New Roman', serif">
<defs>
    <symbol id="circle8" overflow="visible">
      <circle cx="0" cy="0" r="55" fill="none" stroke="currentColor" stroke-width="2"/>
      <circle cx="0" cy="0" r="33" fill="none" stroke="currentColor" stroke-width="1"/>
      <line x1="-55" y1="0" x2="55" y2="0" stroke="currentColor" stroke-width="1"/>
      <line x1="0" y1="-55" x2="0" y2="55" stroke="currentColor" stroke-width="1"/>
      <line x1="-39" y1="-39" x2="39" y2="39" stroke="currentColor" stroke-width="1"/>
      <line x1="-39" y1="39" x2="39" y2="-39" stroke="currentColor" stroke-width="1"/>
    </symbol>
  </defs>
  <g transform="translate(95, 75)">
    <path d="M 0 0 L 23.33 -23.33 A 33 33 0 0 0 0.00 -33.00 Z" fill="currentColor"/>
    <use href="#circle8"/>
  </g>

  <g transform="translate(255, 75)">
    <path d="M 0 0 L -33.00 -0.00 A 33 33 0 0 0 -23.33 23.33 Z" fill="currentColor"/>
    <path d="M 0 0 L -23.33 23.33 A 33 33 0 0 0 -0.00 33.00 Z" fill="currentColor"/>
    <path d="M 23.33 -23.33 L 38.89 -38.89 A 55 55 0 0 0 0.00 -55.00 L 0.00 -33.00 A 33 33 0 0 1 23.33 -23.33 Z" fill="currentColor"/>
    <use href="#circle8"/>
  </g>

  <g transform="translate(415, 75)">
    <path d="M 0 0 L 33.00 -0.00 A 33 33 0 0 0 23.33 -23.33 Z" fill="currentColor"/>
    <path d="M 0 0 L 23.33 -23.33 A 33 33 0 0 0 0.00 -33.00 Z" fill="currentColor"/>
    <path d="M 0 0 L 23.33 23.33 A 33 33 0 0 0 33.00 0.00 Z" fill="currentColor"/>
    <path d="M -33.00 -0.00 L -55.00 -0.00 A 55 55 0 0 0 -38.89 38.89 L -23.33 23.33 A 33 33 0 0 1 -33.00 -0.00 Z" fill="currentColor"/>
    <path d="M -23.33 23.33 L -38.89 38.89 A 55 55 0 0 0 -0.00 55.00 L -0.00 33.00 A 33 33 0 0 1 -23.33 23.33 Z" fill="currentColor"/>
    <use href="#circle8"/>
  </g>

  <g transform="translate(575, 75)">
    <rect x="-55" y="-55" width="110" height="110" fill="none" stroke="currentColor" stroke-width="2" stroke-dasharray="6,4"/>
    <text x="0" y="10" text-anchor="middle" font-size="36" font-weight="700">?</text>
  </g>
</svg>
