<svg xmlns="http://www.w3.org/2000/svg" viewBox="-65 -65 130 130" width="130" height="130">
  <rect x="-65" y="-65" width="130" height="130" fill="#ffffff"/>
  <defs>
    <symbol id="circle8" overflow="visible">
      <circle cx="0" cy="0" r="55" fill="none" stroke="#1a1a1a" stroke-width="2"/>
      <circle cx="0" cy="0" r="33" fill="none" stroke="#1a1a1a" stroke-width="1"/>
      <line x1="-55" y1="0" x2="55" y2="0" stroke="#1a1a1a" stroke-width="1"/>
      <line x1="0" y1="-55" x2="0" y2="55" stroke="#1a1a1a" stroke-width="1"/>
      <line x1="-39" y1="-39" x2="39" y2="39" stroke="#1a1a1a" stroke-width="1"/>
      <line x1="-39" y1="39" x2="39" y2="-39" stroke="#1a1a1a" stroke-width="1"/>
    </symbol>
  </defs>
  <path d="M 0 0 L -23.33 -23.33 A 33 33 0 0 0 -33.00 -0.00 Z" fill="#1a1a1a"/>
  <path d="M 0 0 L -33.00 -0.00 A 33 33 0 0 0 -23.33 23.33 Z" fill="#1a1a1a"/>
  <path d="M 0 0 L -23.33 23.33 A 33 33 0 0 0 -0.00 33.00 Z" fill="#1a1a1a"/>
  <path d="M 33.00 -0.00 L 55.00 -0.00 A 55 55 0 0 0 38.89 -38.89 L 23.33 -23.33 A 33 33 0 0 1 33.00 -0.00 Z" fill="#1a1a1a"/>
  <path d="M 23.33 -23.33 L 38.89 -38.89 A 55 55 0 0 0 0.00 -55.00 L 0.00 -33.00 A 33 33 0 0 1 23.33 -23.33 Z" fill="#1a1a1a"/>
  <path d="M -0.00 33.00 L -0.00 55.00 A 55 55 0 0 0 38.89 38.89 L 23.33 23.33 A 33 33 0 0 1 -0.00 33.00 Z" fill="#1a1a1a"/>
  <path d="M 23.33 23.33 L 38.89 38.89 A 55 55 0 0 0 55.00 0.00 L 33.00 0.00 A 33 33 0 0 1 23.33 23.33 Z" fill="#1a1a1a"/>
  <use href="#circle8"/>
</svg>
