<svg xmlns="http://www.w3.org/2000/svg" viewBox="0 0 670 150" width="670" height="150" font-family="'Latin Modern Roman', Georgia, 'Times New Roman', serif">
  <rect width="670" height="150" fill="#ffffff"/>
  <defs>
    <symbol id="circle8" overflow="visible">
      <circle cx="0" cy="0" r="55" fill="none" stroke="#1a1a1a" stroke-width="2"/>
      <circle cx="0" cy="0" r="22" fill="none" stroke="#1a1a1a" stroke-width="1"/>
      <line x1="-55" y1="0" x2="55" y2="0" stroke="#1a1a1a" stroke-width="1"/>
      <line x1="0" y1="-55" x2="0" y2="55" stroke="#1a1a1a" stroke-width="1"/>
      <line x1="-39" y1="-39" x2="39" y2="39" stroke="#1a1a1a" stroke-width="1"/>
      <line x1="-39" y1="39" x2="39" y2="-39" stroke="#1a1a1a" stroke-width="1"/>
    </symbol>
  </defs>
  <g transform="translate(95, 75)">
    <path d="M 0 0 L 15.56 -15.56 A 22 22 0 0 0 0.00 -22.00 Z" fill="#1a1a1a"/>
    <use href="#circle8"/>
  </g>

  <g transform="translate(255, 75)">
    <path d="M 0 0 L -22.00 -0.00 A 22 22 0 0 0 -15.56 15.56 Z" fill="#1a1a1a"/>
    <path d="M 0 0 L -15.56 15.56 A 22 22 0 0 0 -0.00 22.00 Z" fill="#1a1a1a"/>
    <path d="M 15.56 -15.56 L 38.89 -38.89 A 55 55 0 0 0 0.00 -55.00 L 0.00 -22.00 A 22 22 0 0 1 15.56 -15.56 Z" fill="#1a1a1a"/>
    <use href="#circle8"/>
  </g>

  <g transform="translate(415, 75)">
    <path d="M 0 0 L 22.00 -0.00 A 22 22 0 0 0 15.56 -15.56 Z" fill="#1a1a1a"/>
    <path d="M 0 0 L 15.56 -15.56 A 22 22 0 0 0 0.00 -22.00 Z" fill="#1a1a1a"/>
    <path d="M 0 0 L 15.56 15.56 A 22 22 0 0 0 22.00 0.00 Z" fill="#1a1a1a"/>
    <path d="M -22.00 -0.00 L -55.00 -0.00 A 55 55 0 0 0 -38.89 38.89 L -15.56 15.56 A 22 22 0 0 1 -22.00 -0.00 Z" fill="#1a1a1a"/>
    <path d="M -15.56 15.56 L -38.89 38.89 A 55 55 0 0 0 -0.00 55.00 L -0.00 22.00 A 22 22 0 0 1 -15.56 15.56 Z" fill="#1a1a1a"/>
    <use href="#circle8"/>
  </g>

  <g transform="translate(575, 75)">
    <rect x="-55" y="-55" width="110" height="110" fill="none" stroke="#1a1a1a" stroke-width="2" stroke-dasharray="6,4"/>
    <text x="0" y="10" text-anchor="middle" font-size="36" font-weight="700">?</text>
  </g>
</svg>
