<svg xmlns="http://www.w3.org/2000/svg" viewBox="0 0 1100 180" width="1100" height="180" font-family="'Latin Modern Roman', Georgia, 'Times New Roman', serif">
  <rect width="1100" height="180" fill="#ffffff"/>
  <g transform="translate(20, 30)">
  <rect x="0" y="0" width="240" height="120" fill="none" stroke="#1a1a1a" stroke-width="1.5"/>
  <polygon points="0,30 60,0 60.0,30.0" fill="#1a1a1a"/>
  <polygon points="180,0 240,30 180.0,30.0" fill="#1a1a1a"/>
  <polygon points="60,60 120,30 120.0,60.0" fill="#1a1a1a"/>
  <polygon points="60,120 0,90 60.0,90.0" fill="#1a1a1a"/>
  <polygon points="240,90 180,120 180.0,90.0" fill="#1a1a1a"/>
  <polygon points="120,30 180,60 120,90 60,60" fill="none" stroke="#1a1a1a" stroke-width="1.2"/>
  <line x1="120" y1="30" x2="120" y2="90" stroke="#1a1a1a" stroke-width="0.8"/>
  <line x1="60" y1="60" x2="180" y2="60" stroke="#1a1a1a" stroke-width="0.8"/>
  <polygon points="60,0 120,30 60,60 0,30" fill="none" stroke="#1a1a1a" stroke-width="1.2"/>
  <line x1="60" y1="0" x2="60" y2="60" stroke="#1a1a1a" stroke-width="0.8"/>
  <line x1="0" y1="30" x2="120" y2="30" stroke="#1a1a1a" stroke-width="0.8"/>
  <polygon points="180,0 240,30 180,60 120,30" fill="none" stroke="#1a1a1a" stroke-width="1.2"/>
  <line x1="180" y1="0" x2="180" y2="60" stroke="#1a1a1a" stroke-width="0.8"/>
  <line x1="120" y1="30" x2="240" y2="30" stroke="#1a1a1a" stroke-width="0.8"/>
  <polygon points="60,60 120,90 60,120 0,90" fill="none" stroke="#1a1a1a" stroke-width="1.2"/>
  <line x1="60" y1="60" x2="60" y2="120" stroke="#1a1a1a" stroke-width="0.8"/>
  <line x1="0" y1="90" x2="120" y2="90" stroke="#1a1a1a" stroke-width="0.8"/>
  <polygon points="180,60 240,90 180,120 120,90" fill="none" stroke="#1a1a1a" stroke-width="1.2"/>
  <line x1="180" y1="60" x2="180" y2="120" stroke="#1a1a1a" stroke-width="0.8"/>
  <line x1="120" y1="90" x2="240" y2="90" stroke="#1a1a1a" stroke-width="0.8"/>
  </g>

  <g transform="translate(290, 30)">
  <rect x="0" y="0" width="240" height="120" fill="none" stroke="#1a1a1a" stroke-width="1.5"/>
  <polygon points="60,60 0,30 60.0,30.0" fill="#1a1a1a"/>
  <polygon points="120,30 180,0 180.0,30.0" fill="#1a1a1a"/>
  <polygon points="120,30 180,60 120.0,60.0" fill="#1a1a1a"/>
  <polygon points="120,90 60,120 60.0,90.0" fill="#1a1a1a"/>
  <polygon points="180,60 240,90 180.0,90.0" fill="#1a1a1a"/>
  <polygon points="120,30 180,60 120,90 60,60" fill="none" stroke="#1a1a1a" stroke-width="1.2"/>
  <line x1="120" y1="30" x2="120" y2="90" stroke="#1a1a1a" stroke-width="0.8"/>
  <line x1="60" y1="60" x2="180" y2="60" stroke="#1a1a1a" stroke-width="0.8"/>
  <polygon points="60,0 120,30 60,60 0,30" fill="none" stroke="#1a1a1a" stroke-width="1.2"/>
  <line x1="60" y1="0" x2="60" y2="60" stroke="#1a1a1a" stroke-width="0.8"/>
  <line x1="0" y1="30" x2="120" y2="30" stroke="#1a1a1a" stroke-width="0.8"/>
  <polygon points="180,0 240,30 180,60 120,30" fill="none" stroke="#1a1a1a" stroke-width="1.2"/>
  <line x1="180" y1="0" x2="180" y2="60" stroke="#1a1a1a" stroke-width="0.8"/>
  <line x1="120" y1="30" x2="240" y2="30" stroke="#1a1a1a" stroke-width="0.8"/>
  <polygon points="60,60 120,90 60,120 0,90" fill="none" stroke="#1a1a1a" stroke-width="1.2"/>
  <line x1="60" y1="60" x2="60" y2="120" stroke="#1a1a1a" stroke-width="0.8"/>
  <line x1="0" y1="90" x2="120" y2="90" stroke="#1a1a1a" stroke-width="0.8"/>
  <polygon points="180,60 240,90 180,120 120,90" fill="none" stroke="#1a1a1a" stroke-width="1.2"/>
  <line x1="180" y1="60" x2="180" y2="120" stroke="#1a1a1a" stroke-width="0.8"/>
  <line x1="120" y1="90" x2="240" y2="90" stroke="#1a1a1a" stroke-width="0.8"/>
  </g>

  <g transform="translate(560, 30)">
  <rect x="0" y="0" width="240" height="120" fill="none" stroke="#1a1a1a" stroke-width="1.5"/>
  <polygon points="120,30 60,60 60.0,30.0" fill="#1a1a1a"/>
  <polygon points="180,60 120,30 180.0,30.0" fill="#1a1a1a"/>
  <polygon points="180,60 120,90 120.0,60.0" fill="#1a1a1a"/>
  <polygon points="60,60 120,90 60.0,90.0" fill="#1a1a1a"/>
  <polygon points="120,90 180,60 180.0,90.0" fill="#1a1a1a"/>
  <polygon points="120,30 180,60 120,90 60,60" fill="none" stroke="#1a1a1a" stroke-width="1.2"/>
  <line x1="120" y1="30" x2="120" y2="90" stroke="#1a1a1a" stroke-width="0.8"/>
  <line x1="60" y1="60" x2="180" y2="60" stroke="#1a1a1a" stroke-width="0.8"/>
  <polygon points="60,0 120,30 60,60 0,30" fill="none" stroke="#1a1a1a" stroke-width="1.2"/>
  <line x1="60" y1="0" x2="60" y2="60" stroke="#1a1a1a" stroke-width="0.8"/>
  <line x1="0" y1="30" x2="120" y2="30" stroke="#1a1a1a" stroke-width="0.8"/>
  <polygon points="180,0 240,30 180,60 120,30" fill="none" stroke="#1a1a1a" stroke-width="1.2"/>
  <line x1="180" y1="0" x2="180" y2="60" stroke="#1a1a1a" stroke-width="0.8"/>
  <line x1="120" y1="30" x2="240" y2="30" stroke="#1a1a1a" stroke-width="0.8"/>
  <polygon points="60,60 120,90 60,120 0,90" fill="none" stroke="#1a1a1a" stroke-width="1.2"/>
  <line x1="60" y1="60" x2="60" y2="120" stroke="#1a1a1a" stroke-width="0.8"/>
  <line x1="0" y1="90" x2="120" y2="90" stroke="#1a1a1a" stroke-width="0.8"/>
  <polygon points="180,60 240,90 180,120 120,90" fill="none" stroke="#1a1a1a" stroke-width="1.2"/>
  <line x1="180" y1="60" x2="180" y2="120" stroke="#1a1a1a" stroke-width="0.8"/>
  <line x1="120" y1="90" x2="240" y2="90" stroke="#1a1a1a" stroke-width="0.8"/>
  </g>

  <g transform="translate(830, 30)">
    <rect x="0" y="0" width="240" height="120" fill="none" stroke="#1a1a1a" stroke-width="1.5" stroke-dasharray="6,4"/>
    <text x="120" y="75" text-anchor="middle" font-size="60" font-weight="700">?</text>
  </g>
</svg>
