<svg xmlns="http://www.w3.org/2000/svg" viewBox="0 0 720 200" width="720" height="200" font-family="'Latin Modern Roman', Georgia, 'Times New Roman', serif">
  <rect width="720" height="200" fill="#ffffff"/>

  <!-- Tabla periódica simplificada: 18 columnas x 4 filas, celdas cuadradas de 36x36 px. Origen (30,30). -->

  <g stroke="#1a1a1a" stroke-width="1.4" fill="none">
    <!-- Horizontales (5 líneas: top, 3 separadores, bottom) -->
    <line x1="30" y1="30" x2="678" y2="30"/>
    <line x1="30" y1="66" x2="678" y2="66"/>
    <line x1="30" y1="102" x2="678" y2="102"/>
    <line x1="30" y1="138" x2="678" y2="138"/>
    <line x1="30" y1="174" x2="678" y2="174"/>

    <!-- Verticales (19 líneas) -->
    <line x1="30"  y1="30" x2="30"  y2="174"/>
    <line x1="66"  y1="30" x2="66"  y2="174"/>
    <line x1="102" y1="30" x2="102" y2="174"/>
    <line x1="138" y1="30" x2="138" y2="174"/>
    <line x1="174" y1="30" x2="174" y2="174"/>
    <line x1="210" y1="30" x2="210" y2="174"/>
    <line x1="246" y1="30" x2="246" y2="174"/>
    <line x1="282" y1="30" x2="282" y2="174"/>
    <line x1="318" y1="30" x2="318" y2="174"/>
    <line x1="354" y1="30" x2="354" y2="174"/>
    <line x1="390" y1="30" x2="390" y2="174"/>
    <line x1="426" y1="30" x2="426" y2="174"/>
    <line x1="462" y1="30" x2="462" y2="174"/>
    <line x1="498" y1="30" x2="498" y2="174"/>
    <line x1="534" y1="30" x2="534" y2="174"/>
    <line x1="570" y1="30" x2="570" y2="174"/>
    <line x1="606" y1="30" x2="606" y2="174"/>
    <line x1="642" y1="30" x2="642" y2="174"/>
    <line x1="678" y1="30" x2="678" y2="174"/>
  </g>

  <!-- Símbolos centrados en cada celda -->
  <g font-size="20" font-weight="600" text-anchor="middle" fill="#1a1a1a" dominant-baseline="middle">
    <!-- Li: fila 1 (centro y=48), columna 1 (centro x=48) -->
    <text x="48" y="50">Li</text>
    <!-- O: fila 1, columna 16 (centro x=30+15.5*36=588) -->
    <text x="588" y="50">O</text>
    <!-- Sr: fila 3 (centro y=30+2.5*36=120), columna 2 (centro x=84) -->
    <text x="84" y="122">Sr</text>
    <!-- I: fila 3, columna 17 (centro x=30+16.5*36=624) -->
    <text x="624" y="122" font-style="italic">I</text>
  </g>
</svg>
