<svg fill="none" xmlns="http://www.w3.org/2000/svg" viewBox="0 0 556 116" width="556" height="116">
<g transform="translate(8,8)"><rect x="0" y="0" width="100" height="100" fill="none" stroke="currentColor" stroke-width="1.4"/><polygon points="29.0,86.0 16.0,28.0 51.0,56.0 88.0,12.0 73.0,88.0" fill="none" stroke="currentColor" stroke-width="2.4" stroke-linejoin="round" stroke-linecap="round"/></g>
<g transform="translate(118,8)"><rect x="0" y="0" width="100" height="100" fill="none" stroke="currentColor" stroke-width="1.4"/><polygon points="75.0,86.0 88.0,28.0 53.0,56.0 16.0,12.0 31.0,88.0" fill="none" stroke="currentColor" stroke-width="2.4" stroke-linejoin="round" stroke-linecap="round"/></g>
<g transform="translate(228,8)"><rect x="0" y="0" width="100" height="100" fill="none" stroke="currentColor" stroke-width="1.4"/><polygon points="29.0,14.0 16.0,72.0 51.0,44.0 88.0,88.0 73.0,12.0" fill="none" stroke="currentColor" stroke-width="2.4" stroke-linejoin="round" stroke-linecap="round"/></g>
<g transform="translate(338,8)"><rect x="0" y="0" width="100" height="100" fill="none" stroke="currentColor" stroke-width="1.4"/><polygon points="75.0,14.0 88.0,72.0 53.0,44.0 16.0,88.0 31.0,12.0" fill="none" stroke="currentColor" stroke-width="2.4" stroke-linejoin="round" stroke-linecap="round"/></g>
<g transform="translate(448,8)"><rect x="0" y="0" width="100" height="100" fill="none" stroke="currentColor" stroke-width="1.4"/><text x="50" y="50" text-anchor="middle" dominant-baseline="central" font-size="46" font-family="Arial" font-weight="700" fill="currentColor">?</text></g>
</svg>