<svg fill="none" xmlns="http://www.w3.org/2000/svg" viewBox="0 0 890 142" width="890" height="142">
<g transform="translate(8,0)"><polygon points="4.0,84.5 58.0,84.5 58.0,78.0 80.0,92.0 58.0,106.0 58.0,99.5 4.0,99.5" fill="none" stroke="currentColor" stroke-width="2.2" stroke-linejoin="round"/></g>
<g transform="translate(130,0)"><circle cx="13" cy="92" r="8" fill="none" stroke="currentColor" stroke-width="2.2"/><polygon points="25.0,84.5 79.0,84.5 79.0,78.0 101.0,92.0 79.0,106.0 79.0,99.5 25.0,99.5" fill="currentColor" stroke="currentColor" stroke-width="2.2" stroke-linejoin="round"/></g>
<g transform="translate(274,0)"><polygon points="4.0,84.5 58.0,84.5 58.0,78.0 80.0,92.0 58.0,106.0 58.0,99.5 4.0,99.5" fill="none" stroke="currentColor" stroke-width="2.2" stroke-linejoin="round"/><polygon points="160.0,84.5 106.0,84.5 106.0,78.0 84.0,92.0 106.0,106.0 106.0,99.5 160.0,99.5" fill="none" stroke="currentColor" stroke-width="2.2" stroke-linejoin="round"/></g>
<g transform="translate(474,0)"><circle cx="12" cy="92" r="8" fill="none" stroke="currentColor" stroke-width="2.2"/><polygon points="24.0,84.5 76.0,84.5 76.0,78.0 98.0,92.0 76.0,106.0 76.0,99.5 24.0,99.5" fill="currentColor" stroke="currentColor" stroke-width="2.2" stroke-linejoin="round"/><polygon points="186.0,84.5 124.0,84.5 124.0,78.0 102.0,92.0 124.0,106.0 124.0,99.5 186.0,99.5" fill="currentColor" stroke="currentColor" stroke-width="2.2" stroke-linejoin="round"/><circle cx="198" cy="92" r="8" fill="none" stroke="currentColor" stroke-width="2.2"/></g>
<g transform="translate(720,0)"><polygon points="4.0,84.5 56.0,84.5 56.0,78.0 78.0,92.0 56.0,106.0 56.0,99.5 4.0,99.5" fill="none" stroke="currentColor" stroke-width="2.2" stroke-linejoin="round"/><polygon points="156.0,84.5 104.0,84.5 104.0,78.0 82.0,92.0 104.0,106.0 104.0,99.5 156.0,99.5" fill="none" stroke="currentColor" stroke-width="2.2" stroke-linejoin="round"/><polygon points="72.5,16.0 72.5,68.0 66.0,68.0 80.0,90.0 94.0,68.0 87.5,68.0 87.5,16.0" fill="none" stroke="currentColor" stroke-width="2.2" stroke-linejoin="round"/></g>
</svg>