<svg fill="currentColor" xmlns="http://www.w3.org/2000/svg" viewBox="0 0 412 100" width="412" height="100">
<g transform="translate(0,0)"><rect x="8" y="8" width="84" height="84" fill="none" stroke="currentColor" stroke-width="1.3"/>
<path d="M 50 50 L 12.00 50.00 A 38 38 0 0 1 23.13 23.13 Z" fill="currentColor" stroke="currentColor" stroke-width="1.3" stroke-linejoin="round"/></g><g transform="translate(104,0)"><rect x="8" y="8" width="84" height="84" fill="none" stroke="currentColor" stroke-width="1.3"/>
<path d="M 50 50 L 12.00 50.00 A 38 38 0 0 1 23.13 23.13 Z" fill="none" stroke="currentColor" stroke-width="1.3" stroke-linejoin="round"/>
<path d="M 50 50 L 23.13 23.13 A 38 38 0 0 1 50.00 12.00 Z" fill="currentColor" stroke="currentColor" stroke-width="1.3" stroke-linejoin="round"/></g><g transform="translate(208,0)"><rect x="8" y="8" width="84" height="84" fill="none" stroke="currentColor" stroke-width="1.3"/>
<path d="M 50 50 L 12.00 50.00 A 38 38 0 0 1 23.13 23.13 Z" fill="currentColor" stroke="currentColor" stroke-width="1.3" stroke-linejoin="round"/>
<path d="M 50 50 L 23.13 23.13 A 38 38 0 0 1 50.00 12.00 Z" fill="none" stroke="currentColor" stroke-width="1.3" stroke-linejoin="round"/>
<path d="M 50 50 L 50.00 12.00 A 38 38 0 0 1 76.87 23.13 Z" fill="currentColor" stroke="currentColor" stroke-width="1.3" stroke-linejoin="round"/></g><g transform="translate(312,0)"><rect x="8" y="8" width="84" height="84" fill="none" stroke="currentColor" stroke-width="1.3"/>
<path d="M 50 50 L 50.00 12.00 A 38 38 0 0 1 76.87 23.13 Z" fill="none" stroke="currentColor" stroke-width="1.3" stroke-linejoin="round"/>
<path d="M 50 50 L 76.87 23.13 A 38 38 0 0 1 88.00 50.00 Z" fill="currentColor" stroke="currentColor" stroke-width="1.3" stroke-linejoin="round"/>
<path d="M 50 50 L 12.00 50.00 A 38 38 0 0 1 23.13 23.13 Z" fill="none" stroke="currentColor" stroke-width="1.3" stroke-linejoin="round"/>
<path d="M 50 50 L 23.13 23.13 A 38 38 0 0 1 50.00 12.00 Z" fill="currentColor" stroke="currentColor" stroke-width="1.3" stroke-linejoin="round"/></g>
</svg>
