<svg fill="currentColor" xmlns="http://www.w3.org/2000/svg" viewBox="-8 -8 666 85" width="666" height="85">
<polygon points="40.0,0.0 20.0,34.6 60.0,34.6" fill="none" stroke="currentColor" stroke-width="1.4" stroke-linejoin="round"/>
<polygon points="20.0,34.6 0.0,69.3 40.0,69.3" fill="none" stroke="currentColor" stroke-width="1.4" stroke-linejoin="round"/>
<polygon points="60.0,34.6 40.0,69.3 80.0,69.3" fill="none" stroke="currentColor" stroke-width="1.4" stroke-linejoin="round"/>
<polygon points="20.0,34.6 40.0,69.3 60.0,34.6" fill="currentColor" stroke="currentColor" stroke-width="1.4" stroke-linejoin="round"/>
<polygon points="150.0,0.0 130.0,34.6 170.0,34.6" fill="none" stroke="currentColor" stroke-width="1.4" stroke-linejoin="round"/>
<polygon points="130.0,34.6 110.0,69.3 150.0,69.3" fill="none" stroke="currentColor" stroke-width="1.4" stroke-linejoin="round"/>
<polygon points="170.0,34.6 150.0,69.3 190.0,69.3" fill="none" stroke="currentColor" stroke-width="1.4" stroke-linejoin="round"/>
<polygon points="130.0,34.6 150.0,69.3 170.0,34.6" fill="currentColor" stroke="currentColor" stroke-width="1.4" stroke-linejoin="round"/>
<polygon points="150.0,0.0 190.0,0.0 170.0,34.6" fill="none" stroke="currentColor" stroke-width="1.4" stroke-linejoin="round"/>
<polygon points="190.0,0.0 230.0,0.0 210.0,34.6" fill="none" stroke="currentColor" stroke-width="1.4" stroke-linejoin="round"/>
<polygon points="170.0,34.6 210.0,34.6 190.0,69.3" fill="none" stroke="currentColor" stroke-width="1.4" stroke-linejoin="round"/>
<polygon points="190.0,0.0 210.0,34.6 170.0,34.6" fill="currentColor" stroke="currentColor" stroke-width="1.4" stroke-linejoin="round"/>
<polygon points="300.0,0.0 280.0,34.6 320.0,34.6" fill="none" stroke="currentColor" stroke-width="1.4" stroke-linejoin="round"/>
<polygon points="280.0,34.6 260.0,69.3 300.0,69.3" fill="none" stroke="currentColor" stroke-width="1.4" stroke-linejoin="round"/>
<polygon points="320.0,34.6 300.0,69.3 340.0,69.3" fill="none" stroke="currentColor" stroke-width="1.4" stroke-linejoin="round"/>
<polygon points="280.0,34.6 300.0,69.3 320.0,34.6" fill="currentColor" stroke="currentColor" stroke-width="1.4" stroke-linejoin="round"/>
<polygon points="300.0,0.0 340.0,0.0 320.0,34.6" fill="none" stroke="currentColor" stroke-width="1.4" stroke-linejoin="round"/>
<polygon points="340.0,0.0 380.0,0.0 360.0,34.6" fill="none" stroke="currentColor" stroke-width="1.4" stroke-linejoin="round"/>
<polygon points="320.0,34.6 360.0,34.6 340.0,69.3" fill="none" stroke="currentColor" stroke-width="1.4" stroke-linejoin="round"/>
<polygon points="340.0,0.0 360.0,34.6 320.0,34.6" fill="currentColor" stroke="currentColor" stroke-width="1.4" stroke-linejoin="round"/>
<polygon points="380.0,0.0 360.0,34.6 400.0,34.6" fill="none" stroke="currentColor" stroke-width="1.4" stroke-linejoin="round"/>
<polygon points="360.0,34.6 340.0,69.3 380.0,69.3" fill="none" stroke="currentColor" stroke-width="1.4" stroke-linejoin="round"/>
<polygon points="400.0,34.6 380.0,69.3 420.0,69.3" fill="none" stroke="currentColor" stroke-width="1.4" stroke-linejoin="round"/>
<polygon points="360.0,34.6 380.0,69.3 400.0,34.6" fill="currentColor" stroke="currentColor" stroke-width="1.4" stroke-linejoin="round"/>
<polygon points="490.0,0.0 470.0,34.6 510.0,34.6" fill="none" stroke="currentColor" stroke-width="1.4" stroke-linejoin="round"/>
<polygon points="470.0,34.6 450.0,69.3 490.0,69.3" fill="none" stroke="currentColor" stroke-width="1.4" stroke-linejoin="round"/>
<polygon points="510.0,34.6 490.0,69.3 530.0,69.3" fill="none" stroke="currentColor" stroke-width="1.4" stroke-linejoin="round"/>
<polygon points="470.0,34.6 490.0,69.3 510.0,34.6" fill="currentColor" stroke="currentColor" stroke-width="1.4" stroke-linejoin="round"/>
<polygon points="490.0,0.0 530.0,0.0 510.0,34.6" fill="none" stroke="currentColor" stroke-width="1.4" stroke-linejoin="round"/>
<polygon points="530.0,0.0 570.0,0.0 550.0,34.6" fill="none" stroke="currentColor" stroke-width="1.4" stroke-linejoin="round"/>
<polygon points="510.0,34.6 550.0,34.6 530.0,69.3" fill="none" stroke="currentColor" stroke-width="1.4" stroke-linejoin="round"/>
<polygon points="530.0,0.0 550.0,34.6 510.0,34.6" fill="currentColor" stroke="currentColor" stroke-width="1.4" stroke-linejoin="round"/>
<polygon points="570.0,0.0 550.0,34.6 590.0,34.6" fill="none" stroke="currentColor" stroke-width="1.4" stroke-linejoin="round"/>
<polygon points="550.0,34.6 530.0,69.3 570.0,69.3" fill="none" stroke="currentColor" stroke-width="1.4" stroke-linejoin="round"/>
<polygon points="590.0,34.6 570.0,69.3 610.0,69.3" fill="none" stroke="currentColor" stroke-width="1.4" stroke-linejoin="round"/>
<polygon points="550.0,34.6 570.0,69.3 590.0,34.6" fill="currentColor" stroke="currentColor" stroke-width="1.4" stroke-linejoin="round"/>
<polygon points="570.0,0.0 610.0,0.0 590.0,34.6" fill="none" stroke="currentColor" stroke-width="1.4" stroke-linejoin="round"/>
<polygon points="610.0,0.0 650.0,0.0 630.0,34.6" fill="none" stroke="currentColor" stroke-width="1.4" stroke-linejoin="round"/>
<polygon points="590.0,34.6 630.0,34.6 610.0,69.3" fill="none" stroke="currentColor" stroke-width="1.4" stroke-linejoin="round"/>
<polygon points="610.0,0.0 630.0,34.6 590.0,34.6" fill="currentColor" stroke="currentColor" stroke-width="1.4" stroke-linejoin="round"/>
</svg>