<svg fill="currentColor" xmlns="http://www.w3.org/2000/svg" viewBox="0 0 100 100" width="100" height="100">
<rect x="5" y="5" width="90" height="90" fill="none" stroke="currentColor" stroke-width="1.4"/>
<path d="M 50 50 L 50.00 8.00 A 42 42 0 0 1 79.70 20.30 Z" fill="none" stroke="currentColor" stroke-width="1.4" stroke-linejoin="round"/>
<path d="M 50 50 L 79.70 20.30 A 42 42 0 0 1 92.00 50.00 Z" fill="currentColor" stroke="currentColor" stroke-width="1.4" stroke-linejoin="round"/>
<path d="M 50 50 L 8.00 50.00 A 42 42 0 0 1 20.30 20.30 Z" fill="none" stroke="currentColor" stroke-width="1.4" stroke-linejoin="round"/>
<path d="M 50 50 L 20.30 20.30 A 42 42 0 0 1 50.00 8.00 Z" fill="currentColor" stroke="currentColor" stroke-width="1.4" stroke-linejoin="round"/>
<text x="61.6" y="25.1" font-size="7" text-anchor="middle" fill="currentColor" opacity="0.4" font-family="Arial">1</text>
<text x="77.9" y="41.4" font-size="7" text-anchor="middle" fill="currentColor" opacity="0.4" font-family="Arial">2</text>
<text x="77.9" y="64.6" font-size="7" text-anchor="middle" fill="currentColor" opacity="0.4" font-family="Arial">3</text>
<text x="61.6" y="80.9" font-size="7" text-anchor="middle" fill="currentColor" opacity="0.4" font-family="Arial">4</text>
<text x="38.4" y="80.9" font-size="7" text-anchor="middle" fill="currentColor" opacity="0.4" font-family="Arial">5</text>
<text x="22.1" y="64.6" font-size="7" text-anchor="middle" fill="currentColor" opacity="0.4" font-family="Arial">6</text>
<text x="22.1" y="41.4" font-size="7" text-anchor="middle" fill="currentColor" opacity="0.4" font-family="Arial">7</text>
<text x="38.4" y="25.1" font-size="7" text-anchor="middle" fill="currentColor" opacity="0.4" font-family="Arial">8</text>
</svg>
