<svg xmlns="http://www.w3.org/2000/svg" viewBox="0 0 455 165" width="455" height="165">
<g transform="translate(14.0,50.4)"><polygon points="23.0,13.4 42.3,18.2 19.3,22.2 0.0,17.4" fill="#c9bda3" stroke="#1f1a16" stroke-width="1.1" stroke-linejoin="round"/><polygon points="0.0,17.4 19.3,22.2 19.3,40.4 0.0,35.6" fill="#efe7d8" stroke="#1f1a16" stroke-width="1.1" stroke-linejoin="round"/><polygon points="42.3,18.2 42.3,36.4 19.3,40.4 19.3,22.2" fill="#a89880" stroke="#1f1a16" stroke-width="1.1" stroke-linejoin="round"/><polygon points="42.3,36.4 61.5,41.2 38.6,45.2 19.3,40.4" fill="#c9bda3" stroke="#1f1a16" stroke-width="1.1" stroke-linejoin="round"/><polygon points="19.3,40.4 38.6,45.2 38.6,63.4 19.3,58.6" fill="#efe7d8" stroke="#1f1a16" stroke-width="1.1" stroke-linejoin="round"/><polygon points="42.3,0.0 61.5,4.8 38.6,8.8 19.3,4.0" fill="#c9bda3" stroke="#1f1a16" stroke-width="1.1" stroke-linejoin="round"/><polygon points="61.5,41.2 61.5,59.4 38.6,63.4 38.6,45.2" fill="#a89880" stroke="#1f1a16" stroke-width="1.1" stroke-linejoin="round"/><polygon points="19.3,4.0 38.6,8.8 38.6,27.0 19.3,22.2" fill="#efe7d8" stroke="#1f1a16" stroke-width="1.1" stroke-linejoin="round"/><polygon points="61.5,4.8 61.5,23.0 38.6,27.0 38.6,8.8" fill="#a89880" stroke="#1f1a16" stroke-width="1.1" stroke-linejoin="round"/><polygon points="61.5,23.0 80.8,27.7 57.9,31.8 38.6,27.0" fill="#c9bda3" stroke="#1f1a16" stroke-width="1.1" stroke-linejoin="round"/><polygon points="38.6,27.0 57.9,31.8 57.9,50.0 38.6,45.2" fill="#efe7d8" stroke="#1f1a16" stroke-width="1.1" stroke-linejoin="round"/><polygon points="80.8,27.7 80.8,45.9 57.9,50.0 57.9,31.8" fill="#a89880" stroke="#1f1a16" stroke-width="1.1" stroke-linejoin="round"/></g>
<g transform="translate(128.8,32.2)"><polygon points="23.0,26.8 42.3,31.6 19.3,35.6 0.0,30.8" fill="#c9bda3" stroke="#1f1a16" stroke-width="1.1" stroke-linejoin="round"/><polygon points="0.0,30.8 19.3,35.6 19.3,53.8 0.0,49.0" fill="#efe7d8" stroke="#1f1a16" stroke-width="1.1" stroke-linejoin="round"/><polygon points="42.3,31.6 42.3,49.8 19.3,53.8 19.3,35.6" fill="#a89880" stroke="#1f1a16" stroke-width="1.1" stroke-linejoin="round"/><polygon points="42.3,49.8 61.5,54.6 38.6,58.6 19.3,53.8" fill="#c9bda3" stroke="#1f1a16" stroke-width="1.1" stroke-linejoin="round"/><polygon points="19.3,53.8 38.6,58.6 38.6,76.8 19.3,72.0" fill="#efe7d8" stroke="#1f1a16" stroke-width="1.1" stroke-linejoin="round"/><polygon points="42.3,13.4 61.5,18.2 38.6,22.2 19.3,17.4" fill="#c9bda3" stroke="#1f1a16" stroke-width="1.1" stroke-linejoin="round"/><polygon points="61.5,54.6 61.5,72.8 38.6,76.8 38.6,58.6" fill="#a89880" stroke="#1f1a16" stroke-width="1.1" stroke-linejoin="round"/><polygon points="19.3,17.4 38.6,22.2 38.6,40.4 19.3,35.6" fill="#efe7d8" stroke="#1f1a16" stroke-width="1.1" stroke-linejoin="round"/><polygon points="61.5,18.2 61.5,36.4 38.6,40.4 38.6,22.2" fill="#a89880" stroke="#1f1a16" stroke-width="1.1" stroke-linejoin="round"/><polygon points="61.5,72.8 80.8,77.6 57.9,81.6 38.6,76.8" fill="#c9bda3" stroke="#1f1a16" stroke-width="1.1" stroke-linejoin="round"/><polygon points="38.6,76.8 57.9,81.6 57.9,99.8 38.6,95.0" fill="#efe7d8" stroke="#1f1a16" stroke-width="1.1" stroke-linejoin="round"/><polygon points="80.8,77.6 80.8,95.7 57.9,99.8 57.9,81.6" fill="#a89880" stroke="#1f1a16" stroke-width="1.1" stroke-linejoin="round"/><polygon points="61.5,0.0 80.8,4.8 57.9,8.8 38.6,4.0" fill="#c9bda3" stroke="#1f1a16" stroke-width="1.1" stroke-linejoin="round"/><polygon points="38.6,4.0 57.9,8.8 57.9,27.0 38.6,22.2" fill="#efe7d8" stroke="#1f1a16" stroke-width="1.1" stroke-linejoin="round"/><polygon points="80.8,4.8 80.8,23.0 57.9,27.0 57.9,8.8" fill="#a89880" stroke="#1f1a16" stroke-width="1.1" stroke-linejoin="round"/><polygon points="80.8,59.4 100.1,64.1 77.1,68.1 57.9,63.4" fill="#c9bda3" stroke="#1f1a16" stroke-width="1.1" stroke-linejoin="round"/><polygon points="57.9,63.4 77.1,68.1 77.1,86.3 57.9,81.6" fill="#efe7d8" stroke="#1f1a16" stroke-width="1.1" stroke-linejoin="round"/><polygon points="80.8,23.0 100.1,27.7 77.1,31.8 57.9,27.0" fill="#c9bda3" stroke="#1f1a16" stroke-width="1.1" stroke-linejoin="round"/><polygon points="100.1,64.1 100.1,82.3 77.1,86.3 77.1,68.1" fill="#a89880" stroke="#1f1a16" stroke-width="1.1" stroke-linejoin="round"/><polygon points="57.9,27.0 77.1,31.8 77.1,50.0 57.9,45.2" fill="#efe7d8" stroke="#1f1a16" stroke-width="1.1" stroke-linejoin="round"/><polygon points="100.1,27.7 100.1,45.9 77.1,50.0 77.1,31.8" fill="#a89880" stroke="#1f1a16" stroke-width="1.1" stroke-linejoin="round"/><polygon points="100.1,45.9 119.4,50.7 96.4,54.7 77.1,50.0" fill="#c9bda3" stroke="#1f1a16" stroke-width="1.1" stroke-linejoin="round"/><polygon points="77.1,50.0 96.4,54.7 96.4,72.9 77.1,68.1" fill="#efe7d8" stroke="#1f1a16" stroke-width="1.1" stroke-linejoin="round"/><polygon points="119.4,50.7 119.4,68.9 96.4,72.9 96.4,54.7" fill="#a89880" stroke="#1f1a16" stroke-width="1.1" stroke-linejoin="round"/></g>
<g transform="translate(282.2,14.0)"><polygon points="23.0,40.2 42.3,45.0 19.3,49.0 0.0,44.3" fill="#c9bda3" stroke="#1f1a16" stroke-width="1.1" stroke-linejoin="round"/><polygon points="0.0,44.3 19.3,49.0 19.3,67.2 0.0,62.4" fill="#efe7d8" stroke="#1f1a16" stroke-width="1.1" stroke-linejoin="round"/><polygon points="42.3,45.0 42.3,63.2 19.3,67.2 19.3,49.0" fill="#a89880" stroke="#1f1a16" stroke-width="1.1" stroke-linejoin="round"/><polygon points="42.3,63.2 61.5,68.0 38.6,72.0 19.3,67.2" fill="#c9bda3" stroke="#1f1a16" stroke-width="1.1" stroke-linejoin="round"/><polygon points="19.3,67.2 38.6,72.0 38.6,90.2 19.3,85.4" fill="#efe7d8" stroke="#1f1a16" stroke-width="1.1" stroke-linejoin="round"/><polygon points="42.3,26.8 61.5,31.6 38.6,35.6 19.3,30.8" fill="#c9bda3" stroke="#1f1a16" stroke-width="1.1" stroke-linejoin="round"/><polygon points="61.5,68.0 61.5,86.2 38.6,90.2 38.6,72.0" fill="#a89880" stroke="#1f1a16" stroke-width="1.1" stroke-linejoin="round"/><polygon points="19.3,30.8 38.6,35.6 38.6,53.8 19.3,49.0" fill="#efe7d8" stroke="#1f1a16" stroke-width="1.1" stroke-linejoin="round"/><polygon points="61.5,31.6 61.5,49.8 38.6,53.8 38.6,35.6" fill="#a89880" stroke="#1f1a16" stroke-width="1.1" stroke-linejoin="round"/><polygon points="61.5,86.2 80.8,91.0 57.9,95.0 38.6,90.2" fill="#c9bda3" stroke="#1f1a16" stroke-width="1.1" stroke-linejoin="round"/><polygon points="38.6,90.2 57.9,95.0 57.9,113.2 38.6,108.4" fill="#efe7d8" stroke="#1f1a16" stroke-width="1.1" stroke-linejoin="round"/><polygon points="80.8,91.0 80.8,109.2 57.9,113.2 57.9,95.0" fill="#a89880" stroke="#1f1a16" stroke-width="1.1" stroke-linejoin="round"/><polygon points="61.5,13.4 80.8,18.2 57.9,22.2 38.6,17.4" fill="#c9bda3" stroke="#1f1a16" stroke-width="1.1" stroke-linejoin="round"/><polygon points="80.8,109.2 100.1,113.9 77.1,117.9 57.9,113.2" fill="#c9bda3" stroke="#1f1a16" stroke-width="1.1" stroke-linejoin="round"/><polygon points="38.6,17.4 57.9,22.2 57.9,40.4 38.6,35.6" fill="#efe7d8" stroke="#1f1a16" stroke-width="1.1" stroke-linejoin="round"/><polygon points="80.8,18.2 80.8,36.4 57.9,40.4 57.9,22.2" fill="#a89880" stroke="#1f1a16" stroke-width="1.1" stroke-linejoin="round"/><polygon points="57.9,113.2 77.1,117.9 77.1,136.1 57.9,131.4" fill="#efe7d8" stroke="#1f1a16" stroke-width="1.1" stroke-linejoin="round"/><polygon points="100.1,113.9 100.1,132.1 77.1,136.1 77.1,117.9" fill="#a89880" stroke="#1f1a16" stroke-width="1.1" stroke-linejoin="round"/><polygon points="80.8,0.0 100.1,4.8 77.1,8.8 57.9,4.0" fill="#c9bda3" stroke="#1f1a16" stroke-width="1.1" stroke-linejoin="round"/><polygon points="100.1,95.7 119.4,100.5 96.4,104.5 77.1,99.8" fill="#c9bda3" stroke="#1f1a16" stroke-width="1.1" stroke-linejoin="round"/><polygon points="57.9,4.0 77.1,8.8 77.1,27.0 57.9,22.2" fill="#efe7d8" stroke="#1f1a16" stroke-width="1.1" stroke-linejoin="round"/><polygon points="100.1,4.8 100.1,23.0 77.1,27.0 77.1,8.8" fill="#a89880" stroke="#1f1a16" stroke-width="1.1" stroke-linejoin="round"/><polygon points="77.1,99.8 96.4,104.5 96.4,122.7 77.1,117.9" fill="#efe7d8" stroke="#1f1a16" stroke-width="1.1" stroke-linejoin="round"/><polygon points="119.4,100.5 119.4,118.7 96.4,122.7 96.4,104.5" fill="#a89880" stroke="#1f1a16" stroke-width="1.1" stroke-linejoin="round"/><polygon points="100.1,23.0 119.4,27.7 96.4,31.8 77.1,27.0" fill="#c9bda3" stroke="#1f1a16" stroke-width="1.1" stroke-linejoin="round"/><polygon points="77.1,27.0 96.4,31.8 96.4,50.0 77.1,45.2" fill="#efe7d8" stroke="#1f1a16" stroke-width="1.1" stroke-linejoin="round"/><polygon points="119.4,27.7 119.4,45.9 96.4,50.0 96.4,31.8" fill="#a89880" stroke="#1f1a16" stroke-width="1.1" stroke-linejoin="round"/><polygon points="119.4,82.3 138.7,87.1 115.7,91.1 96.4,86.3" fill="#c9bda3" stroke="#1f1a16" stroke-width="1.1" stroke-linejoin="round"/><polygon points="96.4,86.3 115.7,91.1 115.7,109.3 96.4,104.5" fill="#efe7d8" stroke="#1f1a16" stroke-width="1.1" stroke-linejoin="round"/><polygon points="119.4,45.9 138.7,50.7 115.7,54.7 96.4,50.0" fill="#c9bda3" stroke="#1f1a16" stroke-width="1.1" stroke-linejoin="round"/><polygon points="138.7,87.1 138.7,105.3 115.7,109.3 115.7,91.1" fill="#a89880" stroke="#1f1a16" stroke-width="1.1" stroke-linejoin="round"/><polygon points="96.4,50.0 115.7,54.7 115.7,72.9 96.4,68.1" fill="#efe7d8" stroke="#1f1a16" stroke-width="1.1" stroke-linejoin="round"/><polygon points="138.7,50.7 138.7,68.9 115.7,72.9 115.7,54.7" fill="#a89880" stroke="#1f1a16" stroke-width="1.1" stroke-linejoin="round"/><polygon points="138.7,68.9 158.0,73.7 135.0,77.7 115.7,72.9" fill="#c9bda3" stroke="#1f1a16" stroke-width="1.1" stroke-linejoin="round"/><polygon points="115.7,72.9 135.0,77.7 135.0,95.9 115.7,91.1" fill="#efe7d8" stroke="#1f1a16" stroke-width="1.1" stroke-linejoin="round"/><polygon points="158.0,73.7 158.0,91.9 135.0,95.9 135.0,77.7" fill="#a89880" stroke="#1f1a16" stroke-width="1.1" stroke-linejoin="round"/></g>
</svg>
