<svg xmlns="http://www.w3.org/2000/svg" viewBox="0 0 400 139" width="400" height="139">
<g transform="translate(12.0,90.0)"><polygon points="0.0,11.0 26.0,11.0 37.0,0.0 11.0,0.0" fill="#c9bda3" stroke="#1f1a16" stroke-width="1" stroke-linejoin="round"/>
<polygon points="26.0,11.0 26.0,37.0 37.0,26.0 37.0,0.0" fill="#a89880" stroke="#1f1a16" stroke-width="1" stroke-linejoin="round"/>
<polygon points="0.0,11.0 26.0,11.0 26.0,37.0 0.0,37.0" fill="#efe7d8" stroke="#1f1a16" stroke-width="1" stroke-linejoin="round"/></g>
<g transform="translate(73.0,64.0)"><polygon points="0.0,11.0 26.0,11.0 37.0,0.0 11.0,0.0" fill="#c9bda3" stroke="#1f1a16" stroke-width="1" stroke-linejoin="round"/>
<polygon points="26.0,11.0 26.0,37.0 37.0,26.0 37.0,0.0" fill="#a89880" stroke="#1f1a16" stroke-width="1" stroke-linejoin="round"/>
<polygon points="26.0,37.0 52.0,37.0 63.0,26.0 37.0,26.0" fill="#c9bda3" stroke="#1f1a16" stroke-width="1" stroke-linejoin="round"/>
<polygon points="52.0,37.0 52.0,63.0 63.0,52.0 63.0,26.0" fill="#a89880" stroke="#1f1a16" stroke-width="1" stroke-linejoin="round"/>
<polygon points="0.0,37.0 26.0,37.0 26.0,63.0 0.0,63.0" fill="#efe7d8" stroke="#1f1a16" stroke-width="1" stroke-linejoin="round"/>
<polygon points="0.0,11.0 26.0,11.0 26.0,37.0 0.0,37.0" fill="#efe7d8" stroke="#1f1a16" stroke-width="1" stroke-linejoin="round"/>
<polygon points="26.0,37.0 52.0,37.0 52.0,63.0 26.0,63.0" fill="#efe7d8" stroke="#1f1a16" stroke-width="1" stroke-linejoin="round"/></g>
<g transform="translate(160.0,38.0)"><polygon points="0.0,11.0 26.0,11.0 37.0,0.0 11.0,0.0" fill="#c9bda3" stroke="#1f1a16" stroke-width="1" stroke-linejoin="round"/>
<polygon points="26.0,11.0 26.0,37.0 37.0,26.0 37.0,0.0" fill="#a89880" stroke="#1f1a16" stroke-width="1" stroke-linejoin="round"/>
<polygon points="26.0,37.0 52.0,37.0 63.0,26.0 37.0,26.0" fill="#c9bda3" stroke="#1f1a16" stroke-width="1" stroke-linejoin="round"/>
<polygon points="52.0,37.0 52.0,63.0 63.0,52.0 63.0,26.0" fill="#a89880" stroke="#1f1a16" stroke-width="1" stroke-linejoin="round"/>
<polygon points="52.0,63.0 78.0,63.0 89.0,52.0 63.0,52.0" fill="#c9bda3" stroke="#1f1a16" stroke-width="1" stroke-linejoin="round"/>
<polygon points="78.0,63.0 78.0,89.0 89.0,78.0 89.0,52.0" fill="#a89880" stroke="#1f1a16" stroke-width="1" stroke-linejoin="round"/>
<polygon points="0.0,63.0 26.0,63.0 26.0,89.0 0.0,89.0" fill="#efe7d8" stroke="#1f1a16" stroke-width="1" stroke-linejoin="round"/>
<polygon points="0.0,37.0 26.0,37.0 26.0,63.0 0.0,63.0" fill="#efe7d8" stroke="#1f1a16" stroke-width="1" stroke-linejoin="round"/>
<polygon points="0.0,11.0 26.0,11.0 26.0,37.0 0.0,37.0" fill="#efe7d8" stroke="#1f1a16" stroke-width="1" stroke-linejoin="round"/>
<polygon points="26.0,63.0 52.0,63.0 52.0,89.0 26.0,89.0" fill="#efe7d8" stroke="#1f1a16" stroke-width="1" stroke-linejoin="round"/>
<polygon points="26.0,37.0 52.0,37.0 52.0,63.0 26.0,63.0" fill="#efe7d8" stroke="#1f1a16" stroke-width="1" stroke-linejoin="round"/>
<polygon points="52.0,63.0 78.0,63.0 78.0,89.0 52.0,89.0" fill="#efe7d8" stroke="#1f1a16" stroke-width="1" stroke-linejoin="round"/></g>
<g transform="translate(273.0,12.0)"><polygon points="0.0,11.0 26.0,11.0 37.0,0.0 11.0,0.0" fill="#c9bda3" stroke="#1f1a16" stroke-width="1" stroke-linejoin="round"/>
<polygon points="26.0,11.0 26.0,37.0 37.0,26.0 37.0,0.0" fill="#a89880" stroke="#1f1a16" stroke-width="1" stroke-linejoin="round"/>
<polygon points="26.0,37.0 52.0,37.0 63.0,26.0 37.0,26.0" fill="#c9bda3" stroke="#1f1a16" stroke-width="1" stroke-linejoin="round"/>
<polygon points="52.0,37.0 52.0,63.0 63.0,52.0 63.0,26.0" fill="#a89880" stroke="#1f1a16" stroke-width="1" stroke-linejoin="round"/>
<polygon points="52.0,63.0 78.0,63.0 89.0,52.0 63.0,52.0" fill="#c9bda3" stroke="#1f1a16" stroke-width="1" stroke-linejoin="round"/>
<polygon points="78.0,63.0 78.0,89.0 89.0,78.0 89.0,52.0" fill="#a89880" stroke="#1f1a16" stroke-width="1" stroke-linejoin="round"/>
<polygon points="78.0,89.0 104.0,89.0 115.0,78.0 89.0,78.0" fill="#c9bda3" stroke="#1f1a16" stroke-width="1" stroke-linejoin="round"/>
<polygon points="104.0,89.0 104.0,115.0 115.0,104.0 115.0,78.0" fill="#a89880" stroke="#1f1a16" stroke-width="1" stroke-linejoin="round"/>
<polygon points="0.0,89.0 26.0,89.0 26.0,115.0 0.0,115.0" fill="#efe7d8" stroke="#1f1a16" stroke-width="1" stroke-linejoin="round"/>
<polygon points="0.0,63.0 26.0,63.0 26.0,89.0 0.0,89.0" fill="#efe7d8" stroke="#1f1a16" stroke-width="1" stroke-linejoin="round"/>
<polygon points="0.0,37.0 26.0,37.0 26.0,63.0 0.0,63.0" fill="#efe7d8" stroke="#1f1a16" stroke-width="1" stroke-linejoin="round"/>
<polygon points="0.0,11.0 26.0,11.0 26.0,37.0 0.0,37.0" fill="#efe7d8" stroke="#1f1a16" stroke-width="1" stroke-linejoin="round"/>
<polygon points="26.0,89.0 52.0,89.0 52.0,115.0 26.0,115.0" fill="#efe7d8" stroke="#1f1a16" stroke-width="1" stroke-linejoin="round"/>
<polygon points="26.0,63.0 52.0,63.0 52.0,89.0 26.0,89.0" fill="#efe7d8" stroke="#1f1a16" stroke-width="1" stroke-linejoin="round"/>
<polygon points="26.0,37.0 52.0,37.0 52.0,63.0 26.0,63.0" fill="#efe7d8" stroke="#1f1a16" stroke-width="1" stroke-linejoin="round"/>
<polygon points="52.0,89.0 78.0,89.0 78.0,115.0 52.0,115.0" fill="#efe7d8" stroke="#1f1a16" stroke-width="1" stroke-linejoin="round"/>
<polygon points="52.0,63.0 78.0,63.0 78.0,89.0 52.0,89.0" fill="#efe7d8" stroke="#1f1a16" stroke-width="1" stroke-linejoin="round"/>
<polygon points="78.0,89.0 104.0,89.0 104.0,115.0 78.0,115.0" fill="#efe7d8" stroke="#1f1a16" stroke-width="1" stroke-linejoin="round"/></g>
</svg>
