<svg fill="#1f1a16" xmlns="http://www.w3.org/2000/svg" viewBox="0 0 218 148" width="218" height="148" font-family="'Latin Modern Roman', Georgia, serif">
<polygon points="40.0,89.0 66.0,104.0 66.0,74.0 40.0,59.0" fill="#c9bda3" stroke="#1f1a16" stroke-width="1" stroke-linejoin="round"/>
<polygon points="91.9,89.0 66.0,104.0 66.0,74.0 91.9,59.0" fill="#a89880" stroke="#1f1a16" stroke-width="1" stroke-linejoin="round"/>
<polygon points="66.0,44.0 91.9,59.0 66.0,74.0 40.0,59.0" fill="#efe7d8" stroke="#1f1a16" stroke-width="1" stroke-linejoin="round"/>
<polygon points="14.0,104.0 40.0,119.0 40.0,89.0 14.0,74.0" fill="#c9bda3" stroke="#1f1a16" stroke-width="1" stroke-linejoin="round"/>
<polygon points="66.0,104.0 40.0,119.0 40.0,89.0 66.0,74.0" fill="#a89880" stroke="#1f1a16" stroke-width="1" stroke-linejoin="round"/>
<polygon points="40.0,59.0 66.0,74.0 66.0,44.0 40.0,29.0" fill="#c9bda3" stroke="#1f1a16" stroke-width="1" stroke-linejoin="round"/>
<polygon points="91.9,59.0 66.0,74.0 66.0,44.0 91.9,29.0" fill="#a89880" stroke="#1f1a16" stroke-width="1" stroke-linejoin="round"/>
<polygon points="66.0,104.0 91.9,119.0 91.9,89.0 66.0,74.0" fill="#c9bda3" stroke="#1f1a16" stroke-width="1" stroke-linejoin="round"/>
<polygon points="117.9,104.0 91.9,119.0 91.9,89.0 117.9,74.0" fill="#a89880" stroke="#1f1a16" stroke-width="1" stroke-linejoin="round"/>
<polygon points="40.0,59.0 66.0,74.0 40.0,89.0 14.0,74.0" fill="#efe7d8" stroke="#1f1a16" stroke-width="1" stroke-linejoin="round"/>
<polygon points="66.0,14.0 91.9,29.0 66.0,44.0 40.0,29.0" fill="#efe7d8" stroke="#1f1a16" stroke-width="1" stroke-linejoin="round"/>
<polygon points="91.9,59.0 117.9,74.0 91.9,89.0 66.0,74.0" fill="#efe7d8" stroke="#1f1a16" stroke-width="1" stroke-linejoin="round"/>
<polygon points="14.0,74.0 40.0,89.0 40.0,59.0 14.0,44.0" fill="#c9bda3" stroke="#1f1a16" stroke-width="1" stroke-linejoin="round"/>
<polygon points="66.0,74.0 40.0,89.0 40.0,59.0 66.0,44.0" fill="#a89880" stroke="#1f1a16" stroke-width="1" stroke-linejoin="round"/>
<polygon points="40.0,119.0 66.0,134.0 66.0,104.0 40.0,89.0" fill="#c9bda3" stroke="#1f1a16" stroke-width="1" stroke-linejoin="round"/>
<polygon points="91.9,119.0 66.0,134.0 66.0,104.0 91.9,89.0" fill="#a89880" stroke="#1f1a16" stroke-width="1" stroke-linejoin="round"/>
<polygon points="91.9,119.0 117.9,134.0 117.9,104.0 91.9,89.0" fill="#c9bda3" stroke="#1f1a16" stroke-width="1" stroke-linejoin="round"/>
<polygon points="143.9,119.0 117.9,134.0 117.9,104.0 143.9,89.0" fill="#a89880" stroke="#1f1a16" stroke-width="1" stroke-linejoin="round"/>
<polygon points="40.0,29.0 66.0,44.0 40.0,59.0 14.0,44.0" fill="#efe7d8" stroke="#1f1a16" stroke-width="1" stroke-linejoin="round"/>
<polygon points="66.0,74.0 91.9,89.0 66.0,104.0 40.0,89.0" fill="#efe7d8" stroke="#1f1a16" stroke-width="1" stroke-linejoin="round"/>
<polygon points="117.9,74.0 143.9,89.0 117.9,104.0 91.9,89.0" fill="#efe7d8" stroke="#1f1a16" stroke-width="1" stroke-linejoin="round"/>
<polygon points="40.0,89.0 66.0,104.0 66.0,74.0 40.0,59.0" fill="#c9bda3" stroke="#1f1a16" stroke-width="1" stroke-linejoin="round"/>
<polygon points="91.9,89.0 66.0,104.0 66.0,74.0 91.9,59.0" fill="#a89880" stroke="#1f1a16" stroke-width="1" stroke-linejoin="round"/>
<polygon points="66.0,44.0 91.9,59.0 66.0,74.0 40.0,59.0" fill="#efe7d8" stroke="#1f1a16" stroke-width="1" stroke-linejoin="round"/>
<text x="151.9038105676658" y="108" font-size="11">1 cm</text>
<text x="126.91342951089922" y="135" font-size="11">1 cm</text>
</svg>
