<svg fill="currentColor" xmlns="http://www.w3.org/2000/svg" viewBox="0 0 190 160" width="190" height="160" font-family="'Latin Modern Roman', Georgia, serif">
<polygon points="40.0,59.0 66.0,74.0 66.0,44.0 40.0,29.0" fill="#c9bda3" stroke="#1f1a16" stroke-width="1" stroke-linejoin="round"/>
<polygon points="91.9,59.0 66.0,74.0 66.0,44.0 91.9,29.0" fill="#a89880" stroke="#1f1a16" stroke-width="1" stroke-linejoin="round"/>
<polygon points="66.0,14.0 91.9,29.0 66.0,44.0 40.0,29.0" fill="#efe7d8" stroke="#1f1a16" stroke-width="1" stroke-linejoin="round"/>
<polygon points="14.0,74.0 40.0,89.0 40.0,59.0 14.0,44.0" fill="#c9bda3" stroke="#1f1a16" stroke-width="1" stroke-linejoin="round"/>
<polygon points="66.0,74.0 40.0,89.0 40.0,59.0 66.0,44.0" fill="#a89880" stroke="#1f1a16" stroke-width="1" stroke-linejoin="round"/>
<polygon points="66.0,74.0 91.9,89.0 91.9,59.0 66.0,44.0" fill="#c9bda3" stroke="#1f1a16" stroke-width="1" stroke-linejoin="round"/>
<polygon points="117.9,74.0 91.9,89.0 91.9,59.0 117.9,44.0" fill="#a89880" stroke="#1f1a16" stroke-width="1" stroke-linejoin="round"/>
<polygon points="40.0,29.0 66.0,44.0 40.0,59.0 14.0,44.0" fill="#efe7d8" stroke="#1f1a16" stroke-width="1" stroke-linejoin="round"/>
<polygon points="91.9,29.0 117.9,44.0 91.9,59.0 66.0,44.0" fill="#efe7d8" stroke="#1f1a16" stroke-width="1" stroke-linejoin="round"/>
<polygon points="40.0,89.0 66.0,104.0 66.0,74.0 40.0,59.0" fill="#c9bda3" stroke="#1f1a16" stroke-width="1" stroke-linejoin="round"/>
<polygon points="91.9,89.0 66.0,104.0 66.0,74.0 91.9,59.0" fill="#a89880" stroke="#1f1a16" stroke-width="1" stroke-linejoin="round"/>
<polygon points="66.0,44.0 91.9,59.0 66.0,74.0 40.0,59.0" fill="#efe7d8" stroke="#1f1a16" stroke-width="1" stroke-linejoin="round"/>
<polygon points="14.0,104.0 40.0,119.0 40.0,89.0 14.0,74.0" fill="#c9bda3" stroke="#1f1a16" stroke-width="1" stroke-linejoin="round"/>
<polygon points="66.0,104.0 40.0,119.0 40.0,89.0 66.0,74.0" fill="#a89880" stroke="#1f1a16" stroke-width="1" stroke-linejoin="round"/>
<polygon points="66.0,104.0 91.9,119.0 91.9,89.0 66.0,74.0" fill="#c9bda3" stroke="#1f1a16" stroke-width="1" stroke-linejoin="round"/>
<polygon points="117.9,104.0 91.9,119.0 91.9,89.0 117.9,74.0" fill="#a89880" stroke="#1f1a16" stroke-width="1" stroke-linejoin="round"/>
<polygon points="40.0,59.0 66.0,74.0 40.0,89.0 14.0,74.0" fill="#efe7d8" stroke="#1f1a16" stroke-width="1" stroke-linejoin="round"/>
<polygon points="91.9,59.0 117.9,74.0 91.9,89.0 66.0,74.0" fill="#efe7d8" stroke="#1f1a16" stroke-width="1" stroke-linejoin="round"/>
<polygon points="40.0,119.0 66.0,134.0 66.0,104.0 40.0,89.0" fill="#c9bda3" stroke="#1f1a16" stroke-width="1" stroke-linejoin="round"/>
<polygon points="91.9,119.0 66.0,134.0 66.0,104.0 91.9,89.0" fill="#a89880" stroke="#1f1a16" stroke-width="1" stroke-linejoin="round"/>
<polygon points="91.9,119.0 117.9,134.0 117.9,104.0 91.9,89.0" fill="#c9bda3" stroke="#1f1a16" stroke-width="1" stroke-linejoin="round"/>
<polygon points="143.9,119.0 117.9,134.0 117.9,104.0 143.9,89.0" fill="#a89880" stroke="#1f1a16" stroke-width="1" stroke-linejoin="round"/>
<polygon points="66.0,74.0 91.9,89.0 66.0,104.0 40.0,89.0" fill="#efe7d8" stroke="#1f1a16" stroke-width="1" stroke-linejoin="round"/>
<polygon points="117.9,74.0 143.9,89.0 117.9,104.0 91.9,89.0" fill="#efe7d8" stroke="#1f1a16" stroke-width="1" stroke-linejoin="round"/>
<line x1="150.9" y1="119.0" x2="150.9" y2="89.0" stroke="currentColor" stroke-width="1"/>
<line x1="143.9" y1="119.0" x2="150.9" y2="119.0" stroke="currentColor" stroke-width="0.7"/>
<line x1="143.9" y1="89.0" x2="150.9" y2="89.0" stroke="currentColor" stroke-width="0.7"/>
<text x="153.9" y="108.0" font-size="10.5">1 cm</text>
<line x1="143.9" y1="126.0" x2="117.9" y2="141.0" stroke="currentColor" stroke-width="1"/>
<line x1="143.9" y1="119.0" x2="143.9" y2="126.0" stroke="currentColor" stroke-width="0.7"/>
<line x1="117.9" y1="134.0" x2="117.9" y2="141.0" stroke="currentColor" stroke-width="0.7"/>
<text x="118.9" y="153.0" font-size="10.5">1 cm</text>
</svg>
