<svg fill="currentColor" xmlns="http://www.w3.org/2000/svg" viewBox="0 0 216 114" width="216" height="114">
<polygon points="22,42 68,42 68,88 22,88" fill="none" stroke="currentColor" stroke-width="1.6" stroke-linejoin="round"/>
<polygon points="22,42 42,22 88,22 68,42" fill="none" stroke="currentColor" stroke-width="1.6" stroke-linejoin="round"/>
<polygon points="68,42 88,22 88,68 68,88" fill="#1f1a16" stroke="currentColor" stroke-width="1.6" stroke-linejoin="round"/>
<text x="45" y="65" font-size="24" text-anchor="middle" dominant-baseline="central" font-family="Arial, sans-serif" font-weight="700">N</text>
<text font-size="19" text-anchor="middle" dominant-baseline="central" font-family="Arial, sans-serif" font-weight="700" fill="#f7f2e8" transform="matrix(0.707,-0.707,0,1,78.0,55.0)">F</text>
<text font-size="22" text-anchor="middle" dominant-baseline="central" font-family="Arial, sans-serif" font-weight="700" transform="matrix(1,0,-0.707,0.707,55.0,32.0) rotate(0) scale(1,1)">L</text>
<polygon points="128,42 174,42 174,88 128,88" fill="none" stroke="currentColor" stroke-width="1.6" stroke-linejoin="round"/>
<polygon points="128,42 148,22 194,22 174,42" fill="none" stroke="currentColor" stroke-width="1.6" stroke-linejoin="round"/>
<polygon points="174,42 194,22 194,68 174,88" fill="#1f1a16" stroke="currentColor" stroke-width="1.6" stroke-linejoin="round"/>
<text x="151" y="65" font-size="24" text-anchor="middle" dominant-baseline="central" font-family="Arial, sans-serif" font-weight="700">A</text>
<text font-size="19" text-anchor="middle" dominant-baseline="central" font-family="Arial, sans-serif" font-weight="700" fill="#f7f2e8" transform="matrix(0.707,-0.707,0,1,184.0,55.0)">E</text>
<text font-size="22" text-anchor="middle" dominant-baseline="central" font-family="Arial, sans-serif" font-weight="700" transform="matrix(1,0,-0.707,0.707,161.0,32.0) rotate(270) scale(-1,1)">L</text>
</svg>
