<svg fill="currentColor" xmlns="http://www.w3.org/2000/svg" viewBox="0 0 250 185" width="250" height="185" font-family="Arial, 'Helvetica', sans-serif">
<g transform="translate(8,14)">
<g fill="none" stroke="currentColor" stroke-width="1.4" stroke-linejoin="round">
<rect x="42" y="0" width="42" height="42"/>
<rect x="42" y="42" width="42" height="42"/>
<rect x="0" y="84" width="42" height="42"/>
<rect x="42" y="84" width="42" height="42"/>
<rect x="84" y="84" width="42" height="42"/>
<rect x="42" y="126" width="42" height="42"/>
<rect x="182" y="84" width="40" height="40"/>
<polygon points="182,84 222,84 237,69 197,69"/>
<polygon points="222,84 222,124 237,109 237,69"/>
</g>
<g fill="currentColor" stroke="none" font-weight="700">
<text x="63" y="21" text-anchor="middle" dominant-baseline="central" font-size="17">C₉</text>
<text x="63" y="63" text-anchor="middle" dominant-baseline="central" font-size="17">C₈</text>
<text x="21" y="105" text-anchor="middle" dominant-baseline="central" font-size="17">C₆</text>
<text x="63" y="105" text-anchor="middle" dominant-baseline="central" font-size="17">C₅</text>
<text x="105" y="105" text-anchor="middle" dominant-baseline="central" font-size="17">C₇</text>
<text x="63" y="147" text-anchor="middle" dominant-baseline="central" font-size="17">C₄</text>
<text x="202" y="104" text-anchor="middle" dominant-baseline="central" font-size="17">C₁</text>
<text text-anchor="middle" dominant-baseline="central" font-size="18" transform="matrix(1,0,-0.375,0.375,209.5,76.5)">C₂</text>
<text text-anchor="middle" dominant-baseline="central" font-size="18" transform="matrix(0.375,-0.375,0,1,229.5,96.5)">C₃</text>
</g>
</g></svg>