<svg fill="currentColor" xmlns="http://www.w3.org/2000/svg" viewBox="0 0 196 142" width="196" height="142"><line x1="14" y1="14.0" x2="14" y2="128.0" stroke="currentColor" stroke-width="1.3"/><line x1="56" y1="14.0" x2="56" y2="47.5" stroke="currentColor" stroke-width="1.3"/><line x1="56" y1="56.5" x2="56" y2="85.5" stroke="currentColor" stroke-width="1.3"/><line x1="56" y1="94.5" x2="56" y2="128.0" stroke="currentColor" stroke-width="1.3"/><line x1="98" y1="14.0" x2="98" y2="85.5" stroke="currentColor" stroke-width="1.3"/><line x1="98" y1="94.5" x2="98" y2="128.0" stroke="currentColor" stroke-width="1.3"/><line x1="140" y1="14.0" x2="140" y2="47.5" stroke="currentColor" stroke-width="1.3"/><line x1="140" y1="56.5" x2="140" y2="85.5" stroke="currentColor" stroke-width="1.3"/><line x1="140" y1="94.5" x2="140" y2="128.0" stroke="currentColor" stroke-width="1.3"/><line x1="182" y1="14.0" x2="182" y2="128.0" stroke="currentColor" stroke-width="1.3"/><line x1="14.0" y1="14" x2="182.0" y2="14" stroke="currentColor" stroke-width="1.3"/><line x1="14.0" y1="52" x2="51.5" y2="52" stroke="currentColor" stroke-width="1.3"/><line x1="60.5" y1="52" x2="135.5" y2="52" stroke="currentColor" stroke-width="1.3"/><line x1="144.5" y1="52" x2="182.0" y2="52" stroke="currentColor" stroke-width="1.3"/><line x1="14.0" y1="90" x2="51.5" y2="90" stroke="currentColor" stroke-width="1.3"/><line x1="60.5" y1="90" x2="93.5" y2="90" stroke="currentColor" stroke-width="1.3"/><line x1="102.5" y1="90" x2="135.5" y2="90" stroke="currentColor" stroke-width="1.3"/><line x1="144.5" y1="90" x2="182.0" y2="90" stroke="currentColor" stroke-width="1.3"/><line x1="14.0" y1="128" x2="182.0" y2="128" stroke="currentColor" stroke-width="1.3"/><circle cx="56" cy="52" r="4.5" fill="none" stroke="currentColor" stroke-width="1.3"/><circle cx="140" cy="52" r="4.5" fill="none" stroke="currentColor" stroke-width="1.3"/><circle cx="56" cy="90" r="4.5" fill="currentColor" stroke="currentColor" stroke-width="1.3"/><circle cx="98" cy="90" r="4.5" fill="none" stroke="currentColor" stroke-width="1.3"/><circle cx="140" cy="90" r="4.5" fill="currentColor" stroke="currentColor" stroke-width="1.3"/></svg>