<svg fill="currentColor" xmlns="http://www.w3.org/2000/svg" viewBox="0 0 148 167" width="148" height="167" font-family="'Latin Modern Roman', Georgia, serif">
<g transform="translate(49.0,125.0)">
<polygon points="22.0,-48.0 48.0,-48.0 59.0,-59.0 33.0,-59.0" fill="#c9bda3" stroke="#1f1a16" stroke-width="1" stroke-linejoin="round"/>
<polygon points="48.0,-22.0 59.0,-33.0 59.0,-59.0 48.0,-48.0" fill="#a89880" stroke="#1f1a16" stroke-width="1" stroke-linejoin="round"/>
<polygon points="22.0,-22.0 48.0,-22.0 48.0,-48.0 22.0,-48.0" fill="#efe7d8" stroke="#1f1a16" stroke-width="1" stroke-linejoin="round"/>
<polygon points="48.0,-48.0 74.0,-48.0 85.0,-59.0 59.0,-59.0" fill="#c9bda3" stroke="#1f1a16" stroke-width="1" stroke-linejoin="round"/>
<polygon points="74.0,-22.0 85.0,-33.0 85.0,-59.0 74.0,-48.0" fill="#a89880" stroke="#1f1a16" stroke-width="1" stroke-linejoin="round"/>
<polygon points="48.0,-22.0 74.0,-22.0 74.0,-48.0 48.0,-48.0" fill="#efe7d8" stroke="#1f1a16" stroke-width="1" stroke-linejoin="round"/>
<polygon points="22.0,-74.0 48.0,-74.0 59.0,-85.0 33.0,-85.0" fill="#c9bda3" stroke="#1f1a16" stroke-width="1" stroke-linejoin="round"/>
<polygon points="48.0,-48.0 59.0,-59.0 59.0,-85.0 48.0,-74.0" fill="#a89880" stroke="#1f1a16" stroke-width="1" stroke-linejoin="round"/>
<polygon points="22.0,-48.0 48.0,-48.0 48.0,-74.0 22.0,-74.0" fill="#efe7d8" stroke="#1f1a16" stroke-width="1" stroke-linejoin="round"/>
<polygon points="22.0,-100.0 48.0,-100.0 59.0,-111.0 33.0,-111.0" fill="#c9bda3" stroke="#1f1a16" stroke-width="1" stroke-linejoin="round"/>
<polygon points="48.0,-74.0 59.0,-85.0 59.0,-111.0 48.0,-100.0" fill="#a89880" stroke="#1f1a16" stroke-width="1" stroke-linejoin="round"/>
<polygon points="22.0,-74.0 48.0,-74.0 48.0,-100.0 22.0,-100.0" fill="#efe7d8" stroke="#1f1a16" stroke-width="1" stroke-linejoin="round"/>
<polygon points="11.0,-37.0 37.0,-37.0 48.0,-48.0 22.0,-48.0" fill="#c9bda3" stroke="#1f1a16" stroke-width="1" stroke-linejoin="round"/>
<polygon points="37.0,-11.0 48.0,-22.0 48.0,-48.0 37.0,-37.0" fill="#a89880" stroke="#1f1a16" stroke-width="1" stroke-linejoin="round"/>
<polygon points="11.0,-11.0 37.0,-11.0 37.0,-37.0 11.0,-37.0" fill="#efe7d8" stroke="#1f1a16" stroke-width="1" stroke-linejoin="round"/>
<polygon points="37.0,-37.0 63.0,-37.0 74.0,-48.0 48.0,-48.0" fill="#c9bda3" stroke="#1f1a16" stroke-width="1" stroke-linejoin="round"/>
<polygon points="63.0,-11.0 74.0,-22.0 74.0,-48.0 63.0,-37.0" fill="#a89880" stroke="#1f1a16" stroke-width="1" stroke-linejoin="round"/>
<polygon points="37.0,-11.0 63.0,-11.0 63.0,-37.0 37.0,-37.0" fill="#efe7d8" stroke="#1f1a16" stroke-width="1" stroke-linejoin="round"/>
<polygon points="37.0,-63.0 63.0,-63.0 74.0,-74.0 48.0,-74.0" fill="#c9bda3" stroke="#1f1a16" stroke-width="1" stroke-linejoin="round"/>
<polygon points="63.0,-37.0 74.0,-48.0 74.0,-74.0 63.0,-63.0" fill="#a89880" stroke="#1f1a16" stroke-width="1" stroke-linejoin="round"/>
<polygon points="37.0,-37.0 63.0,-37.0 63.0,-63.0 37.0,-63.0" fill="#efe7d8" stroke="#1f1a16" stroke-width="1" stroke-linejoin="round"/>
<polygon points="0.0,-26.0 26.0,-26.0 37.0,-37.0 11.0,-37.0" fill="#c9bda3" stroke="#1f1a16" stroke-width="1" stroke-linejoin="round"/>
<polygon points="26.0,0.0 37.0,-11.0 37.0,-37.0 26.0,-26.0" fill="#a89880" stroke="#1f1a16" stroke-width="1" stroke-linejoin="round"/>
<polygon points="0.0,0.0 26.0,0.0 26.0,-26.0 0.0,-26.0" fill="#efe7d8" stroke="#1f1a16" stroke-width="1" stroke-linejoin="round"/>

<line x1="-10" y1="0" x2="-10" y2="-26" stroke="currentColor" stroke-width="1"/>
<line x1="-14" y1="0" x2="-6" y2="0" stroke="currentColor" stroke-width="1"/>
<line x1="-14" y1="-26" x2="-6" y2="-26" stroke="currentColor" stroke-width="1"/>
<text x="-38" y="-9" font-size="10">1 cm</text>
<line x1="0" y1="10" x2="26" y2="10" stroke="currentColor" stroke-width="1"/>
<line x1="0" y1="6" x2="0" y2="14" stroke="currentColor" stroke-width="1"/>
<line x1="26" y1="6" x2="26" y2="14" stroke="currentColor" stroke-width="1"/>
<text x="4" y="24" font-size="10">1 cm</text>
</g></svg>