<svg fill="none" xmlns="http://www.w3.org/2000/svg" viewBox="0 0 274 207" width="274" height="207">
<line x1="60" y1="167" x2="60" y2="20" stroke="currentColor" stroke-width="0.6" opacity="0.28"/><line x1="106" y1="167" x2="106" y2="20" stroke="currentColor" stroke-width="0.6" opacity="0.28"/><line x1="152" y1="167" x2="152" y2="20" stroke="currentColor" stroke-width="0.6" opacity="0.28"/><line x1="198" y1="167" x2="198" y2="20" stroke="currentColor" stroke-width="0.6" opacity="0.28"/><line x1="244" y1="167" x2="244" y2="20" stroke="currentColor" stroke-width="0.6" opacity="0.28"/><line x1="60" y1="167" x2="244" y2="167" stroke="currentColor" stroke-width="0.6" opacity="0.28"/><line x1="60" y1="146" x2="244" y2="146" stroke="currentColor" stroke-width="0.6" opacity="0.28"/><line x1="60" y1="125" x2="244" y2="125" stroke="currentColor" stroke-width="0.6" opacity="0.28"/><line x1="60" y1="104" x2="244" y2="104" stroke="currentColor" stroke-width="0.6" opacity="0.28"/><line x1="60" y1="83" x2="244" y2="83" stroke="currentColor" stroke-width="0.6" opacity="0.28"/><line x1="60" y1="62" x2="244" y2="62" stroke="currentColor" stroke-width="0.6" opacity="0.28"/><line x1="60" y1="41" x2="244" y2="41" stroke="currentColor" stroke-width="0.6" opacity="0.28"/><line x1="60" y1="20" x2="244" y2="20" stroke="currentColor" stroke-width="0.6" opacity="0.28"/><line x1="60" y1="167" x2="60" y2="10" stroke="currentColor" stroke-width="1.6"/><polygon points="60,4 56,14 64,14" fill="currentColor"/><line x1="60" y1="167" x2="254" y2="167" stroke="currentColor" stroke-width="1.6"/><polygon points="260,167 250,163 250,171" fill="currentColor"/><line x1="60" y1="167" x2="198" y2="41" stroke="currentColor" stroke-width="2.4" stroke-linecap="round"/><text x="53" y="171" text-anchor="end" font-size="9.5" font-family="Georgia,serif" fill="currentColor">0</text><text x="53" y="150" text-anchor="end" font-size="9.5" font-family="Georgia,serif" fill="currentColor">0.5</text><text x="53" y="129" text-anchor="end" font-size="9.5" font-family="Georgia,serif" fill="currentColor">1</text><text x="53" y="108" text-anchor="end" font-size="9.5" font-family="Georgia,serif" fill="currentColor">1.5</text><text x="53" y="87" text-anchor="end" font-size="9.5" font-family="Georgia,serif" fill="currentColor">2</text><text x="53" y="66" text-anchor="end" font-size="9.5" font-family="Georgia,serif" fill="currentColor">2.5</text><text x="53" y="45" text-anchor="end" font-size="9.5" font-family="Georgia,serif" fill="currentColor">3</text><text x="53" y="24" text-anchor="end" font-size="9.5" font-family="Georgia,serif" fill="currentColor">3.5</text><text x="60" y="182" text-anchor="middle" font-size="9.5" font-family="Georgia,serif" fill="currentColor">0</text><text x="106" y="182" text-anchor="middle" font-size="9.5" font-family="Georgia,serif" fill="currentColor">1</text><text x="152" y="182" text-anchor="middle" font-size="9.5" font-family="Georgia,serif" fill="currentColor">2</text><text x="198" y="182" text-anchor="middle" font-size="9.5" font-family="Georgia,serif" fill="currentColor">3</text><text x="244" y="182" text-anchor="middle" font-size="9.5" font-family="Georgia,serif" fill="currentColor">4</text>
<text transform="translate(15,93.5) rotate(-90)" text-anchor="middle" font-size="11" font-family="Georgia,serif" fill="currentColor">Distancia (m)</text>
<text x="152" y="199" text-anchor="middle" font-size="11" font-family="Georgia,serif" fill="currentColor">Tiempo (s)</text>
</svg>