<svg fill="none" xmlns="http://www.w3.org/2000/svg" viewBox="0 0 290 290" width="290" height="290">
<line x1="10" y1="10" x2="10" y2="280" stroke="currentColor" stroke-width="0.6" opacity="0.3"/><line x1="40" y1="10" x2="40" y2="280" stroke="currentColor" stroke-width="0.6" opacity="0.3"/><line x1="70" y1="10" x2="70" y2="280" stroke="currentColor" stroke-width="0.6" opacity="0.3"/><line x1="100" y1="10" x2="100" y2="280" stroke="currentColor" stroke-width="0.6" opacity="0.3"/><line x1="130" y1="10" x2="130" y2="280" stroke="currentColor" stroke-width="0.6" opacity="0.3"/><line x1="160" y1="10" x2="160" y2="280" stroke="currentColor" stroke-width="0.6" opacity="0.3"/><line x1="190" y1="10" x2="190" y2="280" stroke="currentColor" stroke-width="0.6" opacity="0.3"/><line x1="220" y1="10" x2="220" y2="280" stroke="currentColor" stroke-width="0.6" opacity="0.3"/><line x1="250" y1="10" x2="250" y2="280" stroke="currentColor" stroke-width="0.6" opacity="0.3"/><line x1="280" y1="10" x2="280" y2="280" stroke="currentColor" stroke-width="0.6" opacity="0.3"/><line x1="10" y1="10" x2="280" y2="10" stroke="currentColor" stroke-width="0.6" opacity="0.3"/><line x1="10" y1="40" x2="280" y2="40" stroke="currentColor" stroke-width="0.6" opacity="0.3"/><line x1="10" y1="70" x2="280" y2="70" stroke="currentColor" stroke-width="0.6" opacity="0.3"/><line x1="10" y1="100" x2="280" y2="100" stroke="currentColor" stroke-width="0.6" opacity="0.3"/><line x1="10" y1="130" x2="280" y2="130" stroke="currentColor" stroke-width="0.6" opacity="0.3"/><line x1="10" y1="160" x2="280" y2="160" stroke="currentColor" stroke-width="0.6" opacity="0.3"/><line x1="10" y1="190" x2="280" y2="190" stroke="currentColor" stroke-width="0.6" opacity="0.3"/><line x1="10" y1="220" x2="280" y2="220" stroke="currentColor" stroke-width="0.6" opacity="0.3"/><line x1="10" y1="250" x2="280" y2="250" stroke="currentColor" stroke-width="0.6" opacity="0.3"/><line x1="10" y1="280" x2="280" y2="280" stroke="currentColor" stroke-width="0.6" opacity="0.3"/>
<rect x="130" y="40" width="120" height="120" fill="none" stroke="currentColor" stroke-width="2"/><rect x="40" y="160" width="90" height="90" fill="none" stroke="currentColor" stroke-width="2"/><line x1="130" y1="40" x2="40" y2="160" stroke="currentColor" stroke-width="2"/>

<text x="190" y="105" text-anchor="middle" font-size="15" font-family="Georgia,serif" fill="currentColor">16 u²</text>
<text x="85" y="210" text-anchor="middle" font-size="15" font-family="Georgia,serif" fill="currentColor">9 u²</text>
<text x="74.5" y="101" text-anchor="middle" font-size="16" font-family="Georgia,serif" font-style="italic" fill="currentColor">C</text>
</svg>