<svg fill="currentColor" xmlns="http://www.w3.org/2000/svg" viewBox="0 0 240 120" width="240" height="120">
<rect x="0" y="0" width="240" height="120" fill="none" stroke="currentColor" stroke-width="1.5"/>
  <polygon points="60,0 120,30 60.0,30.0" fill="currentColor"/>
  <polygon points="240,30 180,60 180.0,30.0" fill="currentColor"/>
  <polygon points="120,30 180,60 120.0,60.0" fill="currentColor"/>
  <polygon points="0,90 60,60 60.0,90.0" fill="currentColor"/>
  <polygon points="180,120 120,90 180.0,90.0" fill="currentColor"/>
  <polygon points="120,30 180,60 120,90 60,60" fill="none" stroke="currentColor" stroke-width="1.2"/>
  <line x1="120" y1="30" x2="120" y2="90" stroke="currentColor" stroke-width="0.8"/>
  <line x1="60" y1="60" x2="180" y2="60" stroke="currentColor" stroke-width="0.8"/>
  <polygon points="60,0 120,30 60,60 0,30" fill="none" stroke="currentColor" stroke-width="1.2"/>
  <line x1="60" y1="0" x2="60" y2="60" stroke="currentColor" stroke-width="0.8"/>
  <line x1="0" y1="30" x2="120" y2="30" stroke="currentColor" stroke-width="0.8"/>
  <polygon points="180,0 240,30 180,60 120,30" fill="none" stroke="currentColor" stroke-width="1.2"/>
  <line x1="180" y1="0" x2="180" y2="60" stroke="currentColor" stroke-width="0.8"/>
  <line x1="120" y1="30" x2="240" y2="30" stroke="currentColor" stroke-width="0.8"/>
  <polygon points="60,60 120,90 60,120 0,90" fill="none" stroke="currentColor" stroke-width="1.2"/>
  <line x1="60" y1="60" x2="60" y2="120" stroke="currentColor" stroke-width="0.8"/>
  <line x1="0" y1="90" x2="120" y2="90" stroke="currentColor" stroke-width="0.8"/>
  <polygon points="180,60 240,90 180,120 120,90" fill="none" stroke="currentColor" stroke-width="1.2"/>
  <line x1="180" y1="60" x2="180" y2="120" stroke="currentColor" stroke-width="0.8"/>
  <line x1="120" y1="90" x2="240" y2="90" stroke="currentColor" stroke-width="0.8"/>
</svg>
