<svg xmlns="http://www.w3.org/2000/svg" viewBox="0 50 160 105" width="200" height="131" font-family="'Latin Modern Roman', Georgia, 'Times New Roman', serif">
  <!-- q15. Tabiques oscuros: coñac suave en ambos modos (3 tonos escalonados). -->
  <defs>
    <g id="brick-light" stroke="#1f1a16" stroke-width="1.5" stroke-linejoin="bevel">
      <polygon points="20,0 26,-10 26,-20 20,-10" fill="#a89880"/>
      <polygon points="0,-10 20,-10 26,-20 6,-20" fill="#efe7d8"/>
      <polygon points="0,0 20,0 20,-10 0,-10" fill="#c9bda3"/>
    </g>
    <g id="brick-dark" stroke="#1f1a16" stroke-width="1.5" stroke-linejoin="bevel" fill="#6b3a2e">
      <polygon points="20,0 26,-10 26,-20 20,-10"/>
      <polygon points="0,-10 20,-10 26,-20 6,-20"/>
      <polygon points="0,0 20,0 20,-10 0,-10"/>
    </g>
  </defs>
  <use href="#brick-light" transform="translate(33, 115)"/>
  <use href="#brick-light" transform="translate(53, 115)"/>
  <use href="#brick-light" transform="translate(73, 115)"/>
  <use href="#brick-light" transform="translate(93, 115)"/>
  <use href="#brick-light" transform="translate(33, 105)"/>
  <use href="#brick-light" transform="translate(53, 105)"/>
  <use href="#brick-light" transform="translate(73, 105)"/>
  <use href="#brick-dark" transform="translate(93, 105)"/>
  <use href="#brick-light" transform="translate(33, 95)"/>
  <use href="#brick-light" transform="translate(53, 95)"/>
  <use href="#brick-light" transform="translate(73, 95)"/>
  <use href="#brick-light" transform="translate(93, 95)"/>
  <use href="#brick-light" transform="translate(33, 85)"/>
  <use href="#brick-light" transform="translate(53, 85)"/>
  <use href="#brick-light" transform="translate(73, 85)"/>
  <use href="#brick-light" transform="translate(93, 85)"/>
  <use href="#brick-light" transform="translate(53, 75)"/>
  <use href="#brick-dark" transform="translate(73, 75)"/>
  <use href="#brick-light" transform="translate(27, 125)"/>
  <use href="#brick-light" transform="translate(47, 125)"/>
  <use href="#brick-light" transform="translate(67, 125)"/>
  <use href="#brick-light" transform="translate(87, 125)"/>
  <use href="#brick-light" transform="translate(27, 115)"/>
  <use href="#brick-light" transform="translate(47, 115)"/>
  <use href="#brick-light" transform="translate(67, 115)"/>
  <use href="#brick-light" transform="translate(87, 115)"/>
  <use href="#brick-light" transform="translate(27, 105)"/>
  <use href="#brick-light" transform="translate(47, 105)"/>
  <use href="#brick-light" transform="translate(67, 105)"/>
  <use href="#brick-dark" transform="translate(87, 105)"/>
  <use href="#brick-light" transform="translate(27, 95)"/>
  <use href="#brick-light" transform="translate(47, 95)"/>
  <use href="#brick-light" transform="translate(67, 95)"/>
  <use href="#brick-light" transform="translate(87, 95)"/>
  <use href="#brick-dark" transform="translate(47, 85)"/>
  <use href="#brick-light" transform="translate(67, 85)"/>
  <use href="#brick-light" transform="translate(21, 135)"/>
  <use href="#brick-light" transform="translate(41, 135)"/>
  <use href="#brick-light" transform="translate(61, 135)"/>
  <use href="#brick-light" transform="translate(81, 135)"/>
  <use href="#brick-light" transform="translate(21, 125)"/>
  <use href="#brick-light" transform="translate(41, 125)"/>
  <use href="#brick-light" transform="translate(61, 125)"/>
  <use href="#brick-light" transform="translate(81, 125)"/>
  <use href="#brick-light" transform="translate(21, 115)"/>
  <use href="#brick-light" transform="translate(41, 115)"/>
  <use href="#brick-light" transform="translate(61, 115)"/>
  <use href="#brick-light" transform="translate(81, 115)"/>
  <use href="#brick-light" transform="translate(21, 105)"/>
  <use href="#brick-light" transform="translate(41, 105)"/>
  <use href="#brick-light" transform="translate(61, 105)"/>
  <use href="#brick-light" transform="translate(81, 105)"/>
  <use href="#brick-light" transform="translate(41, 95)"/>
  <use href="#brick-light" transform="translate(61, 95)"/>
  <use href="#brick-dark" transform="translate(15, 145)"/>
  <use href="#brick-light" transform="translate(35, 145)"/>
  <use href="#brick-light" transform="translate(55, 145)"/>
  <use href="#brick-light" transform="translate(75, 145)"/>
  <use href="#brick-light" transform="translate(15, 135)"/>
  <use href="#brick-dark" transform="translate(35, 135)"/>
  <use href="#brick-light" transform="translate(55, 135)"/>
  <use href="#brick-light" transform="translate(75, 135)"/>
  <use href="#brick-light" transform="translate(15, 125)"/>
  <use href="#brick-light" transform="translate(35, 125)"/>
  <use href="#brick-light" transform="translate(55, 125)"/>
  <use href="#brick-light" transform="translate(75, 125)"/>
  <use href="#brick-light" transform="translate(15, 115)"/>
  <use href="#brick-light" transform="translate(35, 115)"/>
  <use href="#brick-light" transform="translate(55, 115)"/>
  <use href="#brick-light" transform="translate(75, 115)"/>
  <use href="#brick-light" transform="translate(35, 105)"/>
  <use href="#brick-light" transform="translate(55, 105)"/>
</svg>