<svg xmlns="http://www.w3.org/2000/svg" viewBox="0 0 580 345" width="600" height="357" font-family="'Latin Modern Roman', Georgia, 'Times New Roman', serif">
  <rect width="580" height="345" fill="#ffffff"/>

  <defs>
    <marker id="arrowA" markerWidth="10" markerHeight="8" refX="9" refY="4" orient="auto">
      <polygon points="0,0 10,4 0,8" fill="#1a1a1a"/>
    </marker>
  </defs>

  <text x="14" y="32" font-size="17" font-weight="700">Kg</text>

  <line x1="55" y1="290" x2="55" y2="25" stroke="#1a1a1a" stroke-width="1.6" marker-end="url(#arrowA)"/>
  <line x1="55" y1="290" x2="440" y2="290" stroke="#1a1a1a" stroke-width="1.6" marker-end="url(#arrowA)"/>

  <g font-size="13">
    <text x="50" y="205" text-anchor="end">30</text>
    <text x="50" y="175" text-anchor="end">40</text>
    <text x="50" y="145" text-anchor="end">50</text>
    <text x="50" y="115" text-anchor="end">60</text>
    <text x="50" y="85" text-anchor="end">70</text>
    <text x="50" y="55" text-anchor="end">80</text>
  </g>

  <!-- B: 55, 65, 30, 60, 80 -->
  <rect x="70" y="125" width="50" height="165" fill="#1a1a1a"/>
  <rect x="130" y="95" width="50" height="195" fill="#1a1a1a"/>
  <rect x="190" y="200" width="50" height="90" fill="#1a1a1a"/>
  <rect x="250" y="110" width="50" height="180" fill="#1a1a1a"/>
  <rect x="310" y="50" width="50" height="240" fill="#1a1a1a"/>

  <g font-size="13">
    <text x="95" y="315" text-anchor="middle" transform="rotate(-30, 95, 315)">zanahoria</text>
    <text x="155" y="315" text-anchor="middle" transform="rotate(-30, 155, 315)">calabaza</text>
    <text x="215" y="315" text-anchor="middle" transform="rotate(-30, 215, 315)">jitomate</text>
    <text x="275" y="315" text-anchor="middle" transform="rotate(-30, 275, 315)">papa</text>
    <text x="335" y="315" text-anchor="middle" transform="rotate(-30, 335, 315)">chiles</text>
  </g>

  <text x="450" y="295" font-size="14" font-style="italic">Verduras</text>
</svg>
