<svg xmlns="http://www.w3.org/2000/svg" viewBox="0 0 320 320" width="320" height="320" font-family="'Latin Modern Roman', Georgia, 'Times New Roman', serif">
  <rect width="320" height="320" fill="#ffffff"/>
  <text x="10" y="20" font-size="14" font-weight="700">Kg</text>
  <!-- Ejes -->
  <line x1="40" y1="20" x2="40" y2="260" stroke="#1a1a1a" stroke-width="1.5"/>
  <line x1="40" y1="260" x2="310" y2="260" stroke="#1a1a1a" stroke-width="1.5"/>
  <!-- Marcas de eje y: cada 30 = 10 kg, de 30 a 80 -->
  <g font-size="11">
    <text x="35" y="195" text-anchor="end">30</text>
    <text x="35" y="165" text-anchor="end">40</text>
    <text x="35" y="135" text-anchor="end">50</text>
    <text x="35" y="105" text-anchor="end">60</text>
    <text x="35" y="75" text-anchor="end">70</text>
    <text x="35" y="45" text-anchor="end">80</text>
  </g>
  <!-- Datos CORRECTOS: zanahoria 45, calabaza 30, jitomate 80, papa 55, chiles 60 -->
  <rect x="55" y="155" width="40" height="105" fill="#1a1a1a"/>
  <rect x="105" y="200" width="40" height="60" fill="#1a1a1a"/>
  <rect x="155" y="40" width="40" height="220" fill="#1a1a1a"/>
  <rect x="205" y="125" width="40" height="135" fill="#1a1a1a"/>
  <rect x="255" y="110" width="40" height="150" fill="#1a1a1a"/>
  <!-- Etiquetas -->
  <g font-size="10">
    <text x="75" y="275" text-anchor="middle" transform="rotate(-30, 75, 275)">zanahoria</text>
    <text x="125" y="275" text-anchor="middle" transform="rotate(-30, 125, 275)">calabaza</text>
    <text x="175" y="275" text-anchor="middle" transform="rotate(-30, 175, 275)">jitomate</text>
    <text x="225" y="275" text-anchor="middle" transform="rotate(-30, 225, 275)">papa</text>
    <text x="275" y="275" text-anchor="middle" transform="rotate(-30, 275, 275)">chiles</text>
  </g>
  <text x="313" y="275" font-size="11" font-style="italic" text-anchor="end">Verduras</text>
</svg>
