<svg xmlns="http://www.w3.org/2000/svg" viewBox="0 0 100 100" width="100" height="100" font-family="'Latin Modern Roman', Georgia, 'Times New Roman', serif">
  <rect width="100" height="100" fill="#ffffff"/>
  <defs>
    <symbol id="a30sq" overflow="visible"><rect x="-6" y="-6" width="12" height="12" fill="none" stroke="#1a1a1a" stroke-width="1.2"/></symbol>
    <symbol id="a30cs" overflow="visible"><circle cx="0" cy="0" r="7" fill="none" stroke="#1a1a1a" stroke-width="1.2"/></symbol>
    <symbol id="a30cf" overflow="visible"><circle cx="0" cy="0" r="7" fill="#1a1a1a"/></symbol>
    <symbol id="a30tr" overflow="visible"><polygon points="0,-7 7,5 -7,5" fill="#1a1a1a"/></symbol>
    <symbol id="a30hx" overflow="visible"><polygon points="0,-7 6,-3.5 6,3.5 0,7 -6,3.5 -6,-3.5" fill="none" stroke="#1a1a1a" stroke-width="1.2"/></symbol>
    <symbol id="a30pn" overflow="visible"><polygon points="0,-8 7.6,-2.5 4.7,6.5 -4.7,6.5 -7.6,-2.5" fill="#1a1a1a"/></symbol>
  </defs>
  <rect width="100" height="100" fill="none" stroke="#1a1a1a" stroke-width="1.5"/>
  <line x1="0" y1="0" x2="100" y2="100" stroke="#1a1a1a" stroke-width="0.8"/>
  <line x1="100" y1="0" x2="0" y2="100" stroke="#1a1a1a" stroke-width="0.8"/>
  <!-- T: ⬟ izq exterior + ● interior -->
  <use href="#a30pn" x="25" y="10"/>
  <use href="#a30cf" x="50" y="32"/>
  <!-- R: □ arriba exterior + ○ interior -->
  <use href="#a30sq" x="90" y="25"/>
  <use href="#a30cs" x="68" y="50"/>
  <!-- B: ▲ derecha exterior + ● interior -->
  <use href="#a30tr" x="75" y="90"/>
  <use href="#a30cf" x="50" y="68"/>
  <!-- L: ⬡ abajo exterior + ○ interior -->
  <use href="#a30hx" x="10" y="75"/>
  <use href="#a30cs" x="32" y="50"/>
</svg>
