<svg xmlns="http://www.w3.org/2000/svg" viewBox="0 0 720 130" width="720" height="130" font-family="'Latin Modern Roman', Georgia, 'Times New Roman', serif">
  <rect width="720" height="130" fill="#ffffff"/>

  <defs>
    <symbol id="sqS" overflow="visible"><rect x="-6" y="-6" width="12" height="12" fill="none" stroke="#1a1a1a" stroke-width="1.2"/></symbol>
    <symbol id="circS" overflow="visible"><circle cx="0" cy="0" r="7" fill="none" stroke="#1a1a1a" stroke-width="1.2"/></symbol>
    <symbol id="circF" overflow="visible"><circle cx="0" cy="0" r="7" fill="#1a1a1a"/></symbol>
    <symbol id="triS" overflow="visible"><polygon points="0,-7 7,5 -7,5" fill="#1a1a1a"/></symbol>
    <symbol id="hexS" overflow="visible"><polygon points="0,-7 6,-3.5 6,3.5 0,7 -6,3.5 -6,-3.5" fill="none" stroke="#1a1a1a" stroke-width="1.2"/></symbol>
    <symbol id="pentS" overflow="visible"><polygon points="0,-8 7.6,-2.5 4.7,6.5 -4.7,6.5 -7.6,-2.5" fill="#1a1a1a"/></symbol>
  </defs>

  <!-- Cuadro 1 (+): TL:â–ˇNW+â—ŹSE, TR:â–˛NE+â—‹SW, BL:â—‹NE+â¬źSW, BR:â—ŹNW+â¬ˇSE -->
  <g transform="translate(20, 15)">
    <rect width="100" height="100" fill="none" stroke="#1a1a1a" stroke-width="1.5"/>
    <line x1="50" y1="0" x2="50" y2="100" stroke="#1a1a1a" stroke-width="0.8"/>
    <line x1="0" y1="50" x2="100" y2="50" stroke="#1a1a1a" stroke-width="0.8"/>
    <use href="#sqS"   x="13" y="13"/>
    <use href="#circF" x="37" y="37"/>
    <use href="#triS"  x="87" y="13"/>
    <use href="#circS" x="63" y="37"/>
    <use href="#circS" x="37" y="63"/>
    <use href="#pentS" x="13" y="87"/>
    <use href="#circF" x="63" y="63"/>
    <use href="#hexS"  x="87" y="87"/>
  </g>

  <!-- Cuadro 2 (X): T:â–˛izq+â—Ź, R:â¬ˇarr+â—‹, B:â¬źder+â—Ź, L:â–ˇabj+â—‹ -->
  <g transform="translate(160, 15)">
    <rect width="100" height="100" fill="none" stroke="#1a1a1a" stroke-width="1.5"/>
    <line x1="0" y1="0" x2="100" y2="100" stroke="#1a1a1a" stroke-width="0.8"/>
    <line x1="100" y1="0" x2="0" y2="100" stroke="#1a1a1a" stroke-width="0.8"/>
    <use href="#triS"  x="25" y="10"/>
    <use href="#circF" x="50" y="32"/>
    <use href="#hexS"  x="90" y="25"/>
    <use href="#circS" x="68" y="50"/>
    <use href="#pentS" x="75" y="90"/>
    <use href="#circF" x="50" y="68"/>
    <use href="#sqS"   x="10" y="75"/>
    <use href="#circS" x="32" y="50"/>
  </g>

  <!-- Cuadro 3 (+): TL:â–˛NW+â—‹SE, TR:â¬ˇNE+â—ŹSW, BL:â–ˇSW+â—ŹNE, BR:â¬źSE+â—‹NW -->
  <g transform="translate(300, 15)">
    <rect width="100" height="100" fill="none" stroke="#1a1a1a" stroke-width="1.5"/>
    <line x1="50" y1="0" x2="50" y2="100" stroke="#1a1a1a" stroke-width="0.8"/>
    <line x1="0" y1="50" x2="100" y2="50" stroke="#1a1a1a" stroke-width="0.8"/>
    <use href="#triS"  x="13" y="13"/>
    <use href="#circS" x="37" y="37"/>
    <use href="#hexS"  x="87" y="13"/>
    <use href="#circF" x="63" y="37"/>
    <use href="#sqS"   x="13" y="87"/>
    <use href="#circF" x="37" y="63"/>
    <use href="#pentS" x="87" y="87"/>
    <use href="#circS" x="63" y="63"/>
  </g>

  <!-- Cuadro 4 (X): T:â¬ˇizq+â—‹, R:â¬źarr+â—Ź, B:â–ˇder+â—‹, L:â–˛abj+â—Ź -->
  <g transform="translate(440, 15)">
    <rect width="100" height="100" fill="none" stroke="#1a1a1a" stroke-width="1.5"/>
    <line x1="0" y1="0" x2="100" y2="100" stroke="#1a1a1a" stroke-width="0.8"/>
    <line x1="100" y1="0" x2="0" y2="100" stroke="#1a1a1a" stroke-width="0.8"/>
    <use href="#hexS"  x="25" y="10"/>
    <use href="#circS" x="50" y="32"/>
    <use href="#pentS" x="90" y="25"/>
    <use href="#circF" x="68" y="50"/>
    <use href="#sqS"   x="75" y="90"/>
    <use href="#circS" x="50" y="68"/>
    <use href="#triS"  x="10" y="75"/>
    <use href="#circF" x="32" y="50"/>
  </g>

  <!-- Cuadro 5: ? -->
  <g transform="translate(580, 15)">
    <rect width="100" height="100" fill="none" stroke="#1a1a1a" stroke-width="2" stroke-dasharray="5,3"/>
    <text x="50" y="68" text-anchor="middle" font-size="48" font-weight="700">?</text>
  </g>
</svg>
