<svg xmlns="http://www.w3.org/2000/svg" viewBox="0 0 100 100" width="100" height="100" font-family="'Latin Modern Roman', Georgia, 'Times New Roman', serif">
  <rect width="100" height="100" fill="#ffffff"/>
  <defs>
    <symbol id="b30sq" overflow="visible"><rect x="-6" y="-6" width="12" height="12" fill="none" stroke="#1a1a1a" stroke-width="1.2"/></symbol>
    <symbol id="b30cs" overflow="visible"><circle cx="0" cy="0" r="7" fill="none" stroke="#1a1a1a" stroke-width="1.2"/></symbol>
    <symbol id="b30cf" overflow="visible"><circle cx="0" cy="0" r="7" fill="#1a1a1a"/></symbol>
    <symbol id="b30tr" overflow="visible"><polygon points="0,-7 7,5 -7,5" fill="#1a1a1a"/></symbol>
    <symbol id="b30hx" overflow="visible"><polygon points="0,-7 6,-3.5 6,3.5 0,7 -6,3.5 -6,-3.5" fill="none" stroke="#1a1a1a" stroke-width="1.2"/></symbol>
    <symbol id="b30pn" overflow="visible"><polygon points="0,-8 7.6,-2.5 4.7,6.5 -4.7,6.5 -7.6,-2.5" fill="#1a1a1a"/></symbol>
  </defs>
  <rect width="100" height="100" fill="none" stroke="#1a1a1a" stroke-width="1.5"/>
  <line x1="50" y1="0" x2="50" y2="100" stroke="#1a1a1a" stroke-width="0.8"/>
  <line x1="0" y1="50" x2="100" y2="50" stroke="#1a1a1a" stroke-width="0.8"/>
  <!-- TL: ⬟ NW, ○ SE -->
  <use href="#b30pn" x="13" y="13"/>
  <use href="#b30cs" x="37" y="37"/>
  <!-- TR: □ NE, ● SW -->
  <use href="#b30sq" x="87" y="13"/>
  <use href="#b30cf" x="63" y="37"/>
  <!-- BL: ⬡ SW, ● NE -->
  <use href="#b30hx" x="13" y="87"/>
  <use href="#b30cf" x="37" y="63"/>
  <!-- BR: ▲ SE, ○ NW -->
  <use href="#b30tr" x="87" y="87"/>
  <use href="#b30cs" x="63" y="63"/>
</svg>
