<svg xmlns="http://www.w3.org/2000/svg" viewBox="0 0 680 250" width="680" height="250" font-family="'Latin Modern Roman', Georgia, 'Times New Roman', serif">
  <rect width="680" height="250" fill="#ffffff"/>

  <rect x="10" y="10" width="240" height="230" fill="#ffffff" stroke="#1a1a1a" stroke-width="1.2"/>
  <rect x="290" y="10" width="380" height="230" fill="#ffffff" stroke="#1a1a1a" stroke-width="1.2"/>

  <rect x="10" y="10" width="240" height="42" fill="#f1f5f9" stroke="#1a1a1a" stroke-width="1.2"/>
  <rect x="290" y="10" width="380" height="42" fill="#f1f5f9" stroke="#1a1a1a" stroke-width="1.2"/>

  <text x="130" y="38" text-anchor="middle" font-size="20" font-weight="700" fill="#1a1a1a">Organelo</text>
  <text x="480" y="38" text-anchor="middle" font-size="20" font-weight="700" fill="#1a1a1a">Función</text>

  <text x="28" y="82"  font-size="17" fill="#1a1a1a">I.</text>
  <text x="60" y="82"  font-size="17" fill="#1a1a1a">Ribosoma</text>
  <text x="28" y="118" font-size="17" fill="#1a1a1a">II.</text>
  <text x="60" y="118" font-size="17" fill="#1a1a1a">Membrana</text>
  <text x="28" y="154" font-size="17" fill="#1a1a1a">III.</text>
  <text x="60" y="154" font-size="17" fill="#1a1a1a">Mitocondria</text>
  <text x="28" y="190" font-size="17" fill="#1a1a1a">IV.</text>
  <text x="60" y="190" font-size="17" fill="#1a1a1a">Lisosoma</text>
  <text x="28" y="226" font-size="17" fill="#1a1a1a">V.</text>
  <text x="60" y="226" font-size="17" fill="#1a1a1a">Cloroplasto</text>

  <text x="308" y="82"  font-size="17" fill="#1a1a1a">A.</text>
  <text x="345" y="82"  font-size="17" fill="#1a1a1a">Regula el intercambio de sustancias</text>
  <text x="308" y="118" font-size="17" fill="#1a1a1a">B.</text>
  <text x="345" y="118" font-size="17" fill="#1a1a1a">Digestión</text>
  <text x="308" y="154" font-size="17" fill="#1a1a1a">C.</text>
  <text x="345" y="154" font-size="17" fill="#1a1a1a">Síntesis de proteínas</text>
  <text x="308" y="190" font-size="17" fill="#1a1a1a">D.</text>
  <text x="345" y="190" font-size="17" fill="#1a1a1a">Respiración</text>
  <text x="308" y="226" font-size="17" fill="#1a1a1a">E.</text>
  <text x="345" y="226" font-size="17" fill="#1a1a1a">Fotosíntesis</text>
</svg>
