<svg fill="currentColor" xmlns="http://www.w3.org/2000/svg" viewBox="0 0 1040 360" width="1000" height="346" font-family="'Latin Modern Roman', Georgia, 'Times New Roman', serif">
  <!-- Secuencia de documentos: 1, 3, 6, 10 ... (números triangulares; 7ª figura = 28) -->
  <path d="M 20,250 h 95 v 78 c -28.5,9 -47.5,9 -62.7,2 s -28.5,-13 -32.300000000000004,-7 z" fill="var(--color-bg-page, #efe7d8)" stroke="currentColor" stroke-width="2.2" stroke-linejoin="round"/>
  <path d="M 241,218 h 95 v 78 c -28.5,9 -47.5,9 -62.7,2 s -28.5,-13 -32.300000000000004,-7 z" fill="var(--color-bg-page, #efe7d8)" stroke="currentColor" stroke-width="2.2" stroke-linejoin="round"/>
  <path d="M 228,234 h 95 v 78 c -28.5,9 -47.5,9 -62.7,2 s -28.5,-13 -32.300000000000004,-7 z" fill="var(--color-bg-page, #efe7d8)" stroke="currentColor" stroke-width="2.2" stroke-linejoin="round"/>
  <path d="M 215,250 h 95 v 78 c -28.5,9 -47.5,9 -62.7,2 s -28.5,-13 -32.300000000000004,-7 z" fill="var(--color-bg-page, #efe7d8)" stroke="currentColor" stroke-width="2.2" stroke-linejoin="round"/>
  <path d="M 535,170 h 95 v 78 c -28.5,9 -47.5,9 -62.7,2 s -28.5,-13 -32.300000000000004,-7 z" fill="var(--color-bg-page, #efe7d8)" stroke="currentColor" stroke-width="2.2" stroke-linejoin="round"/>
  <path d="M 522,186 h 95 v 78 c -28.5,9 -47.5,9 -62.7,2 s -28.5,-13 -32.300000000000004,-7 z" fill="var(--color-bg-page, #efe7d8)" stroke="currentColor" stroke-width="2.2" stroke-linejoin="round"/>
  <path d="M 509,202 h 95 v 78 c -28.5,9 -47.5,9 -62.7,2 s -28.5,-13 -32.300000000000004,-7 z" fill="var(--color-bg-page, #efe7d8)" stroke="currentColor" stroke-width="2.2" stroke-linejoin="round"/>
  <path d="M 496,218 h 95 v 78 c -28.5,9 -47.5,9 -62.7,2 s -28.5,-13 -32.300000000000004,-7 z" fill="var(--color-bg-page, #efe7d8)" stroke="currentColor" stroke-width="2.2" stroke-linejoin="round"/>
  <path d="M 483,234 h 95 v 78 c -28.5,9 -47.5,9 -62.7,2 s -28.5,-13 -32.300000000000004,-7 z" fill="var(--color-bg-page, #efe7d8)" stroke="currentColor" stroke-width="2.2" stroke-linejoin="round"/>
  <path d="M 470,250 h 95 v 78 c -28.5,9 -47.5,9 -62.7,2 s -28.5,-13 -32.300000000000004,-7 z" fill="var(--color-bg-page, #efe7d8)" stroke="currentColor" stroke-width="2.2" stroke-linejoin="round"/>
  <path d="M 917,106 h 95 v 78 c -28.5,9 -47.5,9 -62.7,2 s -28.5,-13 -32.300000000000004,-7 z" fill="var(--color-bg-page, #efe7d8)" stroke="currentColor" stroke-width="2.2" stroke-linejoin="round"/>
  <path d="M 904,122 h 95 v 78 c -28.5,9 -47.5,9 -62.7,2 s -28.5,-13 -32.300000000000004,-7 z" fill="var(--color-bg-page, #efe7d8)" stroke="currentColor" stroke-width="2.2" stroke-linejoin="round"/>
  <path d="M 891,138 h 95 v 78 c -28.5,9 -47.5,9 -62.7,2 s -28.5,-13 -32.300000000000004,-7 z" fill="var(--color-bg-page, #efe7d8)" stroke="currentColor" stroke-width="2.2" stroke-linejoin="round"/>
  <path d="M 878,154 h 95 v 78 c -28.5,9 -47.5,9 -62.7,2 s -28.5,-13 -32.300000000000004,-7 z" fill="var(--color-bg-page, #efe7d8)" stroke="currentColor" stroke-width="2.2" stroke-linejoin="round"/>
  <path d="M 865,170 h 95 v 78 c -28.5,9 -47.5,9 -62.7,2 s -28.5,-13 -32.300000000000004,-7 z" fill="var(--color-bg-page, #efe7d8)" stroke="currentColor" stroke-width="2.2" stroke-linejoin="round"/>
  <path d="M 852,186 h 95 v 78 c -28.5,9 -47.5,9 -62.7,2 s -28.5,-13 -32.300000000000004,-7 z" fill="var(--color-bg-page, #efe7d8)" stroke="currentColor" stroke-width="2.2" stroke-linejoin="round"/>
  <path d="M 839,202 h 95 v 78 c -28.5,9 -47.5,9 -62.7,2 s -28.5,-13 -32.300000000000004,-7 z" fill="var(--color-bg-page, #efe7d8)" stroke="currentColor" stroke-width="2.2" stroke-linejoin="round"/>
  <path d="M 826,218 h 95 v 78 c -28.5,9 -47.5,9 -62.7,2 s -28.5,-13 -32.300000000000004,-7 z" fill="var(--color-bg-page, #efe7d8)" stroke="currentColor" stroke-width="2.2" stroke-linejoin="round"/>
  <path d="M 813,234 h 95 v 78 c -28.5,9 -47.5,9 -62.7,2 s -28.5,-13 -32.300000000000004,-7 z" fill="var(--color-bg-page, #efe7d8)" stroke="currentColor" stroke-width="2.2" stroke-linejoin="round"/>
  <path d="M 800,250 h 95 v 78 c -28.5,9 -47.5,9 -62.7,2 s -28.5,-13 -32.300000000000004,-7 z" fill="var(--color-bg-page, #efe7d8)" stroke="currentColor" stroke-width="2.2" stroke-linejoin="round"/>
</svg>
