<svg fill="currentColor" xmlns="http://www.w3.org/2000/svg" viewBox="-6 -6 632 212" width="660" font-family="serif">
<defs><marker id="ah69" markerUnits="userSpaceOnUse" markerWidth="24" markerHeight="20" refX="20" refY="10" orient="auto"><polygon points="0,0 24,10 0,20" fill="currentColor"/></marker></defs><g transform="translate(0,0)"><circle cx="100" cy="100" r="92" fill="none" stroke="currentColor" stroke-width="3"/><polygon points="67,111 46,148 88,148" fill="currentColor" stroke="currentColor" stroke-width="2.5"/><g stroke="currentColor" stroke-width="3.4" fill="none" stroke-linecap="butt"><line x1="100" y1="100" x2="100" y2="26" marker-end="url(#ah69)"/><line x1="100" y1="100" x2="174" y2="100" marker-end="url(#ah69)"/></g></g><g transform="translate(210,0)"><circle cx="100" cy="100" r="92" fill="none" stroke="currentColor" stroke-width="3"/><polygon points="57,35 36,72 78,72" fill="none" stroke="currentColor" stroke-width="2.5"/><g stroke="currentColor" stroke-width="3.4" fill="none" stroke-linecap="butt"><line x1="100" y1="100" x2="100" y2="26" marker-end="url(#ah69)"/><line x1="100" y1="100" x2="26" y2="100" marker-end="url(#ah69)"/></g></g><g transform="translate(420,0)"><circle cx="100" cy="100" r="92" fill="none" stroke="currentColor" stroke-width="3"/><polygon points="133,45 112,82 154,82" fill="currentColor" stroke="currentColor" stroke-width="2.5"/><g stroke="currentColor" stroke-width="3.4" fill="none" stroke-linecap="butt"><line x1="100" y1="100" x2="26" y2="100" marker-end="url(#ah69)"/><line x1="100" y1="100" x2="100" y2="174" marker-end="url(#ah69)"/></g></g>
</svg>
