<svg fill="currentColor" xmlns="http://www.w3.org/2000/svg" viewBox="-3 -3 206 206" width="180" font-family="'Latin Modern Roman', Georgia, serif">
<polygon points="0,160 40,160 0,200" fill="currentColor"/><polygon points="40,160 40,200 0,200" fill="currentColor"/><polygon points="200,0 200,40 160,40" fill="currentColor"/><polygon points="160,40 160,80 120,80" fill="currentColor"/><polygon points="120,80 120,120 80,120" fill="currentColor"/><polygon points="80,120 80,160 40,160" fill="currentColor"/><g fill="none" stroke="currentColor" stroke-width="2"><line x1="0" y1="0" x2="0" y2="200"/><line x1="0" y1="0" x2="200" y2="0"/><line x1="40" y1="0" x2="40" y2="200"/><line x1="0" y1="40" x2="200" y2="40"/><line x1="80" y1="0" x2="80" y2="200"/><line x1="0" y1="80" x2="200" y2="80"/><line x1="120" y1="0" x2="120" y2="200"/><line x1="0" y1="120" x2="200" y2="120"/><line x1="160" y1="0" x2="160" y2="200"/><line x1="0" y1="160" x2="200" y2="160"/><line x1="200" y1="0" x2="200" y2="200"/><line x1="0" y1="200" x2="200" y2="200"/><line x1="0" y1="200" x2="40" y2="160"/><line x1="0" y1="200" x2="40" y2="160"/><line x1="160" y1="40" x2="200" y2="0"/><line x1="120" y1="80" x2="160" y2="40"/><line x1="80" y1="120" x2="120" y2="80"/><line x1="40" y1="160" x2="80" y2="120"/></g>
</svg>
