<svg fill="currentColor" xmlns="http://www.w3.org/2000/svg" viewBox="-3 -3 878 206" width="720" font-family="'Latin Modern Roman', Georgia, serif">
<g transform="translate(0,0)"><polygon points="0,0 40,0 0,40" fill="currentColor"/><polygon points="200,160 200,200 160,200" fill="currentColor"/><g fill="none" stroke="currentColor" stroke-width="2"><line x1="0" y1="0" x2="0" y2="200"/><line x1="0" y1="0" x2="200" y2="0"/><line x1="40" y1="0" x2="40" y2="200"/><line x1="0" y1="40" x2="200" y2="40"/><line x1="80" y1="0" x2="80" y2="200"/><line x1="0" y1="80" x2="200" y2="80"/><line x1="120" y1="0" x2="120" y2="200"/><line x1="0" y1="120" x2="200" y2="120"/><line x1="160" y1="0" x2="160" y2="200"/><line x1="0" y1="160" x2="200" y2="160"/><line x1="200" y1="0" x2="200" y2="200"/><line x1="0" y1="200" x2="200" y2="200"/><line x1="0" y1="40" x2="40" y2="0"/><line x1="160" y1="200" x2="200" y2="160"/></g></g><g transform="translate(224,0)"><polygon points="0,40 40,40 0,80" fill="currentColor"/><polygon points="200,120 200,160 160,160" fill="currentColor"/><polygon points="160,160 160,200 120,200" fill="currentColor"/><g fill="none" stroke="currentColor" stroke-width="2"><line x1="0" y1="0" x2="0" y2="200"/><line x1="0" y1="0" x2="200" y2="0"/><line x1="40" y1="0" x2="40" y2="200"/><line x1="0" y1="40" x2="200" y2="40"/><line x1="80" y1="0" x2="80" y2="200"/><line x1="0" y1="80" x2="200" y2="80"/><line x1="120" y1="0" x2="120" y2="200"/><line x1="0" y1="120" x2="200" y2="120"/><line x1="160" y1="0" x2="160" y2="200"/><line x1="0" y1="160" x2="200" y2="160"/><line x1="200" y1="0" x2="200" y2="200"/><line x1="0" y1="200" x2="200" y2="200"/><line x1="0" y1="80" x2="40" y2="40"/><line x1="160" y1="160" x2="200" y2="120"/><line x1="120" y1="200" x2="160" y2="160"/></g></g><g transform="translate(448,0)"><polygon points="0,80 40,80 0,120" fill="currentColor"/><polygon points="120,160 120,200 80,200" fill="currentColor"/><polygon points="160,120 160,160 120,160" fill="currentColor"/><polygon points="200,80 200,120 160,120" fill="currentColor"/><g fill="none" stroke="currentColor" stroke-width="2"><line x1="0" y1="0" x2="0" y2="200"/><line x1="0" y1="0" x2="200" y2="0"/><line x1="40" y1="0" x2="40" y2="200"/><line x1="0" y1="40" x2="200" y2="40"/><line x1="80" y1="0" x2="80" y2="200"/><line x1="0" y1="80" x2="200" y2="80"/><line x1="120" y1="0" x2="120" y2="200"/><line x1="0" y1="120" x2="200" y2="120"/><line x1="160" y1="0" x2="160" y2="200"/><line x1="0" y1="160" x2="200" y2="160"/><line x1="200" y1="0" x2="200" y2="200"/><line x1="0" y1="200" x2="200" y2="200"/><line x1="0" y1="120" x2="40" y2="80"/><line x1="80" y1="200" x2="120" y2="160"/><line x1="120" y1="160" x2="160" y2="120"/><line x1="160" y1="120" x2="200" y2="80"/></g></g><g transform="translate(672,0)"><polygon points="0,120 40,120 0,160" fill="currentColor"/><polygon points="80,160 80,200 40,200" fill="currentColor"/><polygon points="120,120 120,160 80,160" fill="currentColor"/><polygon points="160,80 160,120 120,120" fill="currentColor"/><polygon points="200,40 200,80 160,80" fill="currentColor"/><g fill="none" stroke="currentColor" stroke-width="2"><line x1="0" y1="0" x2="0" y2="200"/><line x1="0" y1="0" x2="200" y2="0"/><line x1="40" y1="0" x2="40" y2="200"/><line x1="0" y1="40" x2="200" y2="40"/><line x1="80" y1="0" x2="80" y2="200"/><line x1="0" y1="80" x2="200" y2="80"/><line x1="120" y1="0" x2="120" y2="200"/><line x1="0" y1="120" x2="200" y2="120"/><line x1="160" y1="0" x2="160" y2="200"/><line x1="0" y1="160" x2="200" y2="160"/><line x1="200" y1="0" x2="200" y2="200"/><line x1="0" y1="200" x2="200" y2="200"/><line x1="0" y1="160" x2="40" y2="120"/><line x1="40" y1="200" x2="80" y2="160"/><line x1="80" y1="160" x2="120" y2="120"/><line x1="120" y1="120" x2="160" y2="80"/><line x1="160" y1="80" x2="200" y2="40"/></g></g>
</svg>
