<svg fill="currentColor" xmlns="http://www.w3.org/2000/svg" viewBox="18 18 164 164" width="165" font-family="sans-serif">
<polygon points="100,34.18 119,67.09 81,67.09" fill="currentColor"/><polygon points="100,100 81,132.91 119,132.91" fill="currentColor"/><g fill="none" stroke="currentColor" stroke-width="2"><polygon points="100,34.18 119,67.09 81,67.09"/><polygon points="100,100 119,67.09 81,67.09"/><polygon points="157,67.09 138,100 119,67.09"/><polygon points="100,100 138,100 119,67.09"/><polygon points="157,132.91 119,132.91 138,100"/><polygon points="100,100 119,132.91 138,100"/><polygon points="100,165.82 81,132.91 119,132.91"/><polygon points="100,100 81,132.91 119,132.91"/><polygon points="43,132.91 62,100 81,132.91"/><polygon points="100,100 62,100 81,132.91"/><polygon points="43,67.09 81,67.09 62,100"/><polygon points="100,100 81,67.09 62,100"/></g>
</svg>
