<svg fill="currentColor" xmlns="http://www.w3.org/2000/svg" viewBox="0 0 550 140" width="1100" height="280" font-family="serif">
<g transform="translate(20,20)"><g fill="none" stroke="currentColor" stroke-width="2.2"><rect x="0" y="0" width="100" height="100"/><line x1="50" y1="0" x2="50" y2="100"/><line x1="0" y1="50" x2="100" y2="50"/><line x1="0" y1="0" x2="50" y2="50"/><line x1="50" y1="0" x2="100" y2="50"/><line x1="0" y1="50" x2="50" y2="100"/><line x1="50" y1="50" x2="100" y2="100"/></g></g>
<g transform="translate(150,20)"><polygon points="0,0 50,0 0,50" fill="currentColor"/><g fill="none" stroke="currentColor" stroke-width="2.2"><rect x="0" y="0" width="100" height="100"/><line x1="50" y1="0" x2="50" y2="100"/><line x1="0" y1="50" x2="100" y2="50"/><line x1="0" y1="50" x2="50" y2="0"/><line x1="50" y1="50" x2="100" y2="0"/><line x1="0" y1="100" x2="50" y2="50"/><line x1="50" y1="100" x2="100" y2="50"/></g></g>
<g transform="translate(280,20)"><polygon points="50,0 100,0 100,50" fill="currentColor"/><polygon points="50,50 100,50 100,100" fill="currentColor"/><g fill="none" stroke="currentColor" stroke-width="2.2"><rect x="0" y="0" width="100" height="100"/><line x1="50" y1="0" x2="50" y2="100"/><line x1="0" y1="50" x2="100" y2="50"/><line x1="0" y1="0" x2="50" y2="50"/><line x1="50" y1="0" x2="100" y2="50"/><line x1="0" y1="50" x2="50" y2="100"/><line x1="50" y1="50" x2="100" y2="100"/></g></g>
<g transform="translate(410,20)"><polygon points="50,0 50,50 0,50" fill="currentColor"/><polygon points="50,50 50,100 0,100" fill="currentColor"/><polygon points="100,50 100,100 50,100" fill="currentColor"/><g fill="none" stroke="currentColor" stroke-width="2.2"><rect x="0" y="0" width="100" height="100"/><line x1="50" y1="0" x2="50" y2="100"/><line x1="0" y1="50" x2="100" y2="50"/><line x1="0" y1="50" x2="50" y2="0"/><line x1="50" y1="50" x2="100" y2="0"/><line x1="0" y1="100" x2="50" y2="50"/><line x1="50" y1="100" x2="100" y2="50"/></g></g>
</svg>
