<svg fill="currentColor" xmlns="http://www.w3.org/2000/svg" viewBox="-4 -4 208 208" width="175" font-family="sans-serif">
<polygon points="159.88,119.93 151.91,111.08 155.59,99.75 167.24,97.27 175.21,106.12 171.53,117.45" fill="currentColor"/><polygon points="99.55,163.1 105.51,152.79 117.42,152.79 123.37,163.1 117.42,173.42 105.51,173.42" fill="currentColor"/><polygon points="81.82,35.21 83.06,47.06 73.43,54.06 62.55,49.21 61.3,37.37 70.94,30.37" fill="currentColor"/><g fill="none" stroke="currentColor" stroke-width="2"><polygon points="118.91,35.74 108.03,40.58 98.39,33.58 99.64,21.74 110.52,16.89 120.15,23.89"/><polygon points="137.45,49.21 126.57,54.06 116.94,47.06 118.18,35.21 129.06,30.37 138.7,37.37"/><polygon points="156,62.69 145.12,67.53 135.48,60.53 136.73,48.68 147.61,43.84 157.25,50.84"/><polygon points="174.55,76.16 163.66,81.01 154.03,74 155.27,62.16 166.15,57.31 175.79,64.31"/><polygon points="166.96,98.13 158.99,89.27 162.67,77.95 174.32,75.47 182.29,84.32 178.61,95.65"/><polygon points="159.88,119.93 151.91,111.08 155.59,99.75 167.24,97.27 175.21,106.12 171.53,117.45"/><polygon points="152.79,141.73 144.82,132.88 148.5,121.55 160.15,119.07 168.12,127.92 164.44,139.25"/><polygon points="145.71,163.53 137.74,154.68 141.42,143.35 153.07,140.87 161.04,149.73 157.36,161.05"/><polygon points="122.47,163.1 128.43,152.79 140.34,152.79 146.3,163.1 140.34,173.42 128.43,173.42"/><polygon points="99.55,163.1 105.51,152.79 117.42,152.79 123.37,163.1 117.42,173.42 105.51,173.42"/><polygon points="76.63,163.1 82.58,152.79 94.49,152.79 100.45,163.1 94.49,173.42 82.58,173.42"/><polygon points="53.7,163.1 59.66,152.79 71.57,152.79 77.53,163.1 71.57,173.42 59.66,173.42"/><polygon points="46.93,140.87 58.58,143.35 62.26,154.68 54.29,163.53 42.64,161.05 38.96,149.73"/><polygon points="39.85,119.07 51.5,121.55 55.18,132.88 47.21,141.73 35.56,139.25 31.88,127.92"/><polygon points="32.76,97.27 44.41,99.75 48.09,111.08 40.12,119.93 28.47,117.45 24.79,106.12"/><polygon points="25.68,75.47 37.33,77.95 41.01,89.27 33.04,98.13 21.39,95.65 17.71,84.32"/><polygon points="44.73,62.16 45.97,74 36.34,81.01 25.45,76.16 24.21,64.31 33.85,57.31"/><polygon points="63.27,48.68 64.52,60.53 54.88,67.53 44,62.69 42.75,50.84 52.39,43.84"/><polygon points="81.82,35.21 83.06,47.06 73.43,54.06 62.55,49.21 61.3,37.37 70.94,30.37"/><polygon points="100.36,21.74 101.61,33.58 91.97,40.58 81.09,35.74 79.85,23.89 89.48,16.89"/></g>
</svg>
