<svg xmlns="http://www.w3.org/2000/svg" viewBox="-80 -125 230 190" width="370" font-family="serif"><g transform="translate(0.00,0.00)"><polygon points="0,-20 17.32,-30 0,-40 -17.32,-30" fill="#efe7d8" stroke="#1f1a16" stroke-width="1.4" stroke-linejoin="round"/><polygon points="0,0 -17.32,-10 -17.32,-30 0,-20" fill="#c9bda3" stroke="#1f1a16" stroke-width="1.4" stroke-linejoin="round"/><polygon points="0,0 17.32,-10 17.32,-30 0,-20" fill="#a89880" stroke="#1f1a16" stroke-width="1.4" stroke-linejoin="round"/></g><g transform="translate(0.00,-20.00)"><polygon points="0,-20 17.32,-30 0,-40 -17.32,-30" fill="#efe7d8" stroke="#1f1a16" stroke-width="1.4" stroke-linejoin="round"/><polygon points="0,0 -17.32,-10 -17.32,-30 0,-20" fill="#c9bda3" stroke="#1f1a16" stroke-width="1.4" stroke-linejoin="round"/><polygon points="0,0 17.32,-10 17.32,-30 0,-20" fill="#a89880" stroke="#1f1a16" stroke-width="1.4" stroke-linejoin="round"/></g><g transform="translate(0.00,-40.00)"><polygon points="0,-20 17.32,-30 0,-40 -17.32,-30" fill="#efe7d8" stroke="#1f1a16" stroke-width="1.4" stroke-linejoin="round"/><polygon points="0,0 -17.32,-10 -17.32,-30 0,-20" fill="#c9bda3" stroke="#1f1a16" stroke-width="1.4" stroke-linejoin="round"/><polygon points="0,0 17.32,-10 17.32,-30 0,-20" fill="#a89880" stroke="#1f1a16" stroke-width="1.4" stroke-linejoin="round"/></g><g transform="translate(17.32,10.00)"><polygon points="0,-20 17.32,-30 0,-40 -17.32,-30" fill="#efe7d8" stroke="#1f1a16" stroke-width="1.4" stroke-linejoin="round"/><polygon points="0,0 -17.32,-10 -17.32,-30 0,-20" fill="#c9bda3" stroke="#1f1a16" stroke-width="1.4" stroke-linejoin="round"/><polygon points="0,0 17.32,-10 17.32,-30 0,-20" fill="#a89880" stroke="#1f1a16" stroke-width="1.4" stroke-linejoin="round"/></g><g transform="translate(-17.32,10.00)"><polygon points="0,-20 17.32,-30 0,-40 -17.32,-30" fill="#efe7d8" stroke="#1f1a16" stroke-width="1.4" stroke-linejoin="round"/><polygon points="0,0 -17.32,-10 -17.32,-30 0,-20" fill="#c9bda3" stroke="#1f1a16" stroke-width="1.4" stroke-linejoin="round"/><polygon points="0,0 17.32,-10 17.32,-30 0,-20" fill="#a89880" stroke="#1f1a16" stroke-width="1.4" stroke-linejoin="round"/></g><g transform="translate(17.32,-10.00)"><polygon points="0,-20 17.32,-30 0,-40 -17.32,-30" fill="#efe7d8" stroke="#1f1a16" stroke-width="1.4" stroke-linejoin="round"/><polygon points="0,0 -17.32,-10 -17.32,-30 0,-20" fill="#c9bda3" stroke="#1f1a16" stroke-width="1.4" stroke-linejoin="round"/><polygon points="0,0 17.32,-10 17.32,-30 0,-20" fill="#a89880" stroke="#1f1a16" stroke-width="1.4" stroke-linejoin="round"/></g><g transform="translate(-17.32,-10.00)"><polygon points="0,-20 17.32,-30 0,-40 -17.32,-30" fill="#efe7d8" stroke="#1f1a16" stroke-width="1.4" stroke-linejoin="round"/><polygon points="0,0 -17.32,-10 -17.32,-30 0,-20" fill="#c9bda3" stroke="#1f1a16" stroke-width="1.4" stroke-linejoin="round"/><polygon points="0,0 17.32,-10 17.32,-30 0,-20" fill="#a89880" stroke="#1f1a16" stroke-width="1.4" stroke-linejoin="round"/></g><g transform="translate(34.64,20.00)"><polygon points="0,-20 17.32,-30 0,-40 -17.32,-30" fill="#efe7d8" stroke="#1f1a16" stroke-width="1.4" stroke-linejoin="round"/><polygon points="0,0 -17.32,-10 -17.32,-30 0,-20" fill="#c9bda3" stroke="#1f1a16" stroke-width="1.4" stroke-linejoin="round"/><polygon points="0,0 17.32,-10 17.32,-30 0,-20" fill="#a89880" stroke="#1f1a16" stroke-width="1.4" stroke-linejoin="round"/></g><g transform="translate(0.00,20.00)"><polygon points="0,-20 17.32,-30 0,-40 -17.32,-30" fill="#efe7d8" stroke="#1f1a16" stroke-width="1.4" stroke-linejoin="round"/><polygon points="0,0 -17.32,-10 -17.32,-30 0,-20" fill="#c9bda3" stroke="#1f1a16" stroke-width="1.4" stroke-linejoin="round"/><polygon points="0,0 17.32,-10 17.32,-30 0,-20" fill="#a89880" stroke="#1f1a16" stroke-width="1.4" stroke-linejoin="round"/></g><g transform="translate(-34.64,20.00)"><polygon points="0,-20 17.32,-30 0,-40 -17.32,-30" fill="#efe7d8" stroke="#1f1a16" stroke-width="1.4" stroke-linejoin="round"/><polygon points="0,0 -17.32,-10 -17.32,-30 0,-20" fill="#c9bda3" stroke="#1f1a16" stroke-width="1.4" stroke-linejoin="round"/><polygon points="0,0 17.32,-10 17.32,-30 0,-20" fill="#a89880" stroke="#1f1a16" stroke-width="1.4" stroke-linejoin="round"/></g><g transform="translate(34.64,0.00)"><polygon points="0,-20 17.32,-30 0,-40 -17.32,-30" fill="#efe7d8" stroke="#1f1a16" stroke-width="1.4" stroke-linejoin="round"/><polygon points="0,0 -17.32,-10 -17.32,-30 0,-20" fill="#c9bda3" stroke="#1f1a16" stroke-width="1.4" stroke-linejoin="round"/><polygon points="0,0 17.32,-10 17.32,-30 0,-20" fill="#a89880" stroke="#1f1a16" stroke-width="1.4" stroke-linejoin="round"/></g><g transform="translate(51.96,30.00)"><polygon points="0,-20 17.32,-30 0,-40 -17.32,-30" fill="#efe7d8" stroke="#1f1a16" stroke-width="1.4" stroke-linejoin="round"/><polygon points="0,0 -17.32,-10 -17.32,-30 0,-20" fill="#c9bda3" stroke="#1f1a16" stroke-width="1.4" stroke-linejoin="round"/><polygon points="0,0 17.32,-10 17.32,-30 0,-20" fill="#a89880" stroke="#1f1a16" stroke-width="1.4" stroke-linejoin="round"/></g><g transform="translate(17.32,30.00)"><polygon points="0,-20 17.32,-30 0,-40 -17.32,-30" fill="#efe7d8" stroke="#1f1a16" stroke-width="1.4" stroke-linejoin="round"/><polygon points="0,0 -17.32,-10 -17.32,-30 0,-20" fill="#c9bda3" stroke="#1f1a16" stroke-width="1.4" stroke-linejoin="round"/><polygon points="0,0 17.32,-10 17.32,-30 0,-20" fill="#a89880" stroke="#1f1a16" stroke-width="1.4" stroke-linejoin="round"/></g><g transform="translate(-17.32,30.00)"><polygon points="0,-20 17.32,-30 0,-40 -17.32,-30" fill="#efe7d8" stroke="#1f1a16" stroke-width="1.4" stroke-linejoin="round"/><polygon points="0,0 -17.32,-10 -17.32,-30 0,-20" fill="#c9bda3" stroke="#1f1a16" stroke-width="1.4" stroke-linejoin="round"/><polygon points="0,0 17.32,-10 17.32,-30 0,-20" fill="#a89880" stroke="#1f1a16" stroke-width="1.4" stroke-linejoin="round"/></g><g transform="translate(51.96,10.00)"><polygon points="0,-20 17.32,-30 0,-40 -17.32,-30" fill="#efe7d8" stroke="#1f1a16" stroke-width="1.4" stroke-linejoin="round"/><polygon points="0,0 -17.32,-10 -17.32,-30 0,-20" fill="#c9bda3" stroke="#1f1a16" stroke-width="1.4" stroke-linejoin="round"/><polygon points="0,0 17.32,-10 17.32,-30 0,-20" fill="#a89880" stroke="#1f1a16" stroke-width="1.4" stroke-linejoin="round"/></g><g transform="translate(17.32,10.00)"><polygon points="0,-20 17.32,-30 0,-40 -17.32,-30" fill="#efe7d8" stroke="#1f1a16" stroke-width="1.4" stroke-linejoin="round"/><polygon points="0,0 -17.32,-10 -17.32,-30 0,-20" fill="#c9bda3" stroke="#1f1a16" stroke-width="1.4" stroke-linejoin="round"/><polygon points="0,0 17.32,-10 17.32,-30 0,-20" fill="#a89880" stroke="#1f1a16" stroke-width="1.4" stroke-linejoin="round"/></g><g transform="translate(51.96,-10.00)"><polygon points="0,-20 17.32,-30 0,-40 -17.32,-30" fill="#efe7d8" stroke="#1f1a16" stroke-width="1.4" stroke-linejoin="round"/><polygon points="0,0 -17.32,-10 -17.32,-30 0,-20" fill="#c9bda3" stroke="#1f1a16" stroke-width="1.4" stroke-linejoin="round"/><polygon points="0,0 17.32,-10 17.32,-30 0,-20" fill="#a89880" stroke="#1f1a16" stroke-width="1.4" stroke-linejoin="round"/></g><g transform="translate(34.64,40.00)"><polygon points="0,-20 17.32,-30 0,-40 -17.32,-30" fill="#efe7d8" stroke="#1f1a16" stroke-width="1.4" stroke-linejoin="round"/><polygon points="0,0 -17.32,-10 -17.32,-30 0,-20" fill="#c9bda3" stroke="#1f1a16" stroke-width="1.4" stroke-linejoin="round"/><polygon points="0,0 17.32,-10 17.32,-30 0,-20" fill="#a89880" stroke="#1f1a16" stroke-width="1.4" stroke-linejoin="round"/></g><g transform="translate(0.00,40.00)"><polygon points="0,-20 17.32,-30 0,-40 -17.32,-30" fill="#efe7d8" stroke="#1f1a16" stroke-width="1.4" stroke-linejoin="round"/><polygon points="0,0 -17.32,-10 -17.32,-30 0,-20" fill="#c9bda3" stroke="#1f1a16" stroke-width="1.4" stroke-linejoin="round"/><polygon points="0,0 17.32,-10 17.32,-30 0,-20" fill="#a89880" stroke="#1f1a16" stroke-width="1.4" stroke-linejoin="round"/></g><g transform="translate(34.64,20.00)"><polygon points="0,-20 17.32,-30 0,-40 -17.32,-30" fill="#efe7d8" stroke="#1f1a16" stroke-width="1.4" stroke-linejoin="round"/><polygon points="0,0 -17.32,-10 -17.32,-30 0,-20" fill="#c9bda3" stroke="#1f1a16" stroke-width="1.4" stroke-linejoin="round"/><polygon points="0,0 17.32,-10 17.32,-30 0,-20" fill="#a89880" stroke="#1f1a16" stroke-width="1.4" stroke-linejoin="round"/></g><g transform="translate(17.32,50.00)"><polygon points="0,-20 17.32,-30 0,-40 -17.32,-30" fill="#efe7d8" stroke="#1f1a16" stroke-width="1.4" stroke-linejoin="round"/><polygon points="0,0 -17.32,-10 -17.32,-30 0,-20" fill="#c9bda3" stroke="#1f1a16" stroke-width="1.4" stroke-linejoin="round"/><polygon points="0,0 17.32,-10 17.32,-30 0,-20" fill="#a89880" stroke="#1f1a16" stroke-width="1.4" stroke-linejoin="round"/></g></svg>