<svg fill="currentColor" xmlns="http://www.w3.org/2000/svg" viewBox="0 -14 260 290" width="161" height="180" font-family="'Latin Modern Roman', Georgia, serif">
<g stroke="currentColor" stroke-width="0.8" opacity="0.4"><line x1="44" y1="26" x2="44" y2="250"/><line x1="76" y1="26" x2="76" y2="250"/><line x1="108" y1="26" x2="108" y2="250"/><line x1="140" y1="26" x2="140" y2="250"/><line x1="172" y1="26" x2="172" y2="250"/><line x1="204" y1="26" x2="204" y2="250"/><line x1="44" y1="250" x2="204" y2="250"/><line x1="44" y1="218" x2="204" y2="218"/><line x1="44" y1="186" x2="204" y2="186"/><line x1="44" y1="154" x2="204" y2="154"/><line x1="44" y1="122" x2="204" y2="122"/><line x1="44" y1="90" x2="204" y2="90"/><line x1="44" y1="58" x2="204" y2="58"/><line x1="44" y1="26" x2="204" y2="26"/></g><g stroke="currentColor" stroke-width="1.8" fill="none"><line x1="44" y1="250" x2="44" y2="16"/><line x1="44" y1="250" x2="220" y2="250"/></g><polygon points="44,8 40,18 48,18" fill="currentColor"/><polygon points="226,250 216,246 216,254" fill="currentColor"/><text x="44" y="4" font-size="11" text-anchor="middle">x[m]</text><text x="230" y="254" font-size="11">t[s]</text><g font-size="9" text-anchor="middle"><text x="44" y="266">0</text><text x="76" y="266">2</text><text x="108" y="266">4</text><text x="140" y="266">6</text><text x="172" y="266">8</text><text x="204" y="266">10</text></g><g font-size="9" text-anchor="end"><text x="37" y="253">0</text><text x="37" y="221">2</text><text x="37" y="189">4</text><text x="37" y="157">6</text><text x="37" y="125">8</text><text x="37" y="93">10</text><text x="37" y="61">12</text><text x="37" y="29">14</text></g><polyline points="60,218 92,154 124,122 156,90 188,42" fill="none" stroke="currentColor" stroke-width="2"/><circle cx="60" cy="218" r="2.4" fill="currentColor"/><circle cx="92" cy="154" r="2.4" fill="currentColor"/><circle cx="124" cy="122" r="2.4" fill="currentColor"/><circle cx="156" cy="90" r="2.4" fill="currentColor"/><circle cx="188" cy="42" r="2.4" fill="currentColor"/>
</svg>
