<svg fill="currentColor" xmlns="http://www.w3.org/2000/svg" viewBox="0 0 290 215" width="290" height="215" font-family="'Latin Modern Roman', Georgia, 'Times New Roman', serif">
<rect x="58.0" y="16" width="22" height="22" fill="none" stroke="currentColor" stroke-width="1.6"/><rect x="80.0" y="16" width="22" height="22" fill="none" stroke="currentColor" stroke-width="1.6"/><rect x="58.0" y="38" width="22" height="22" fill="none" stroke="currentColor" stroke-width="1.6"/><rect x="80.0" y="38" width="22" height="22" fill="none" stroke="currentColor" stroke-width="1.6"/><text x="80" y="78" text-anchor="middle" font-size="14" font-style="italic">Superior</text><rect x="179.0" y="16" width="22" height="22" fill="none" stroke="currentColor" stroke-width="1.6"/><rect x="179.0" y="38" width="22" height="22" fill="none" stroke="currentColor" stroke-width="1.6"/><rect x="201.0" y="38" width="22" height="22" fill="none" stroke="currentColor" stroke-width="1.6"/><rect x="223.0" y="38" width="22" height="22" fill="none" stroke="currentColor" stroke-width="1.6"/><text x="212" y="78" text-anchor="middle" font-size="14" font-style="italic">Frontal</text><rect x="58.0" y="116" width="22" height="22" fill="none" stroke="currentColor" stroke-width="1.6"/><rect x="58.0" y="138" width="22" height="22" fill="none" stroke="currentColor" stroke-width="1.6"/><rect x="80.0" y="138" width="22" height="22" fill="none" stroke="currentColor" stroke-width="1.6"/><text x="80" y="178" text-anchor="middle" font-size="12" font-style="italic">Lateral izquierda</text><rect x="212.0" y="116" width="22" height="22" fill="none" stroke="currentColor" stroke-width="1.6"/><rect x="190.0" y="138" width="22" height="22" fill="none" stroke="currentColor" stroke-width="1.6"/><rect x="212.0" y="138" width="22" height="22" fill="none" stroke="currentColor" stroke-width="1.6"/><text x="212" y="178" text-anchor="middle" font-size="12" font-style="italic">Lateral derecha</text>
</svg>
