<svg fill="currentColor" xmlns="http://www.w3.org/2000/svg" viewBox="0 0 110 160" width="110" height="160" font-family="'Latin Modern Roman', Georgia, 'Times New Roman', serif">
  <defs>
    <!-- Mapa de la Tierra reusable: usar con <use href="#planet-earth"> a cualquier posición/tamaño -->
        <symbol id="planet-earth" viewBox="0 0 1280 1272" preserveAspectRatio="xMidYMid meet">
          <g transform="translate(0,1272) scale(0.1,-0.1)">
    <path d="M5712 12710 c-343 -16 -556 -47 -892 -130 -717 -178 -1169 -370
    -1705 -725 -93 -62 -179 -122 -189 -134 -19 -21 -19 -21 2 -21 11 0 72 13 134
    29 244 63 526 182 567 239 14 21 33 33 54 36 18 3 65 10 105 16 45 6 123 31
    205 64 212 87 511 185 524 172 3 -2 -44 -30 -103 -60 -122 -62 -133 -70 -158
    -108 -12 -19 -15 -36 -11 -61 8 -39 -12 -67 -48 -67 -87 -1 -214 -135 -180
    -189 17 -27 50 -24 123 10 38 17 75 29 83 26 17 -7 30 -66 22 -100 -10 -39
    -44 -47 -191 -47 -150 0 -275 -12 -439 -41 -295 -53 -391 -68 -492 -78 -121
    -11 -201 -36 -305 -94 -155 -87 -282 -206 -332 -313 -43 -90 -90 -143 -170
    -191 -118 -71 -166 -121 -166 -173 0 -21 3 -22 50 -16 33 4 50 3 50 -4 0 -6
    -60 -73 -133 -148 -138 -142 -167 -180 -192 -252 -25 -71 -83 -138 -191 -221
    -113 -88 -156 -135 -130 -145 24 -9 129 46 305 162 90 59 192 119 226 135 40
    18 77 44 101 72 69 80 228 175 403 242 170 66 232 48 251 -70 6 -33 7 -99 4
    -146 -7 -92 5 -153 32 -163 22 -9 64 38 64 72 0 68 59 82 79 19 6 -18 10 -80
    9 -137 -3 -101 -2 -104 21 -116 35 -18 41 -32 41 -104 0 -79 -27 -194 -74
    -321 -63 -167 -71 -210 -71 -364 1 -215 48 -347 186 -520 77 -96 129 -192 129
    -238 0 -37 26 -96 56 -128 26 -27 33 -77 20 -137 -11 -48 9 -89 56 -113 40
    -20 78 -70 78 -102 0 -28 37 -94 78 -139 45 -50 111 -100 123 -92 12 7 12 76
    0 106 -5 13 -25 43 -45 67 -36 42 -36 44 -30 107 7 62 6 64 -19 73 -15 6 -40
    30 -58 53 -40 56 -157 289 -131 263 49 -49 277 -322 369 -440 161 -209 318
    -365 367 -365 26 0 19 -12 -38 -65 -116 -107 -77 -169 115 -186 119 -10 148
    -24 142 -66 -7 -44 34 -84 130 -131 104 -51 215 -78 392 -97 200 -21 277 -47
    377 -126 68 -53 174 -103 297 -139 57 -17 127 -43 155 -57 135 -68 249 -177
    261 -251 10 -63 21 -78 63 -90 22 -7 66 -33 96 -58 69 -56 140 -89 234 -109
    130 -27 182 -16 182 39 0 31 18 46 55 46 36 0 60 -22 70 -62 4 -14 18 -36 31
    -49 36 -34 64 -138 71 -261 8 -149 -1 -171 -136 -312 -155 -162 -224 -288
    -256 -471 -18 -104 -19 -160 -4 -240 13 -69 29 -104 103 -217 111 -172 274
    -502 341 -693 36 -103 82 -149 247 -246 202 -119 295 -230 320 -380 11 -68 10
    -77 -46 -429 -13 -85 -31 -227 -40 -315 -30 -294 -37 -337 -80 -509 -55 -213
    -79 -325 -106 -491 -28 -172 -63 -286 -100 -329 -33 -37 -30 -46 12 -46 40 0
    44 -21 14 -73 -16 -27 -26 -59 -26 -83 0 -92 103 -219 222 -274 81 -37 215
    -64 281 -57 52 7 97 29 97 50 0 6 -34 44 -75 83 -45 42 -75 79 -75 91 0 12 36
    54 90 106 93 90 105 114 74 148 -29 33 -8 68 109 184 171 168 387 336 458 355
    20 6 55 28 77 51 56 56 85 120 90 199 2 36 9 71 14 78 7 8 35 11 82 10 63 -2
    78 2 136 31 128 65 313 230 492 437 106 123 157 171 280 262 97 71 140 121
    153 174 9 35 57 78 121 107 27 13 72 34 101 47 161 76 358 333 423 554 42 142
    121 274 285 480 113 142 169 225 203 298 21 48 26 72 26 148 1 111 -7 124 -76
    124 -60 0 -90 15 -179 89 -64 54 -141 91 -190 91 -39 0 -212 77 -429 190 -261
    137 -327 155 -393 108 l-32 -23 18 25 c104 147 107 157 68 203 -36 40 -51 76
    -51 120 0 45 -50 127 -107 176 -59 50 -167 104 -253 126 -244 62 -556 299
    -591 449 -18 78 -25 82 -138 89 -140 7 -173 27 -146 90 11 26 -17 22 -44 -7
    -22 -24 -24 -42 -10 -96 10 -38 -194 -2 -248 44 -24 21 -26 27 -16 49 14 31 7
    40 -20 26 -28 -16 -89 -3 -182 36 -44 19 -95 37 -112 41 -29 6 -34 3 -42 -19
    -20 -53 -88 -59 -78 -8 3 14 9 34 12 44 10 24 -16 22 -106 -8 -41 -14 -101
    -33 -134 -41 -90 -23 -150 -60 -247 -151 -103 -98 -112 -100 -219 -48 -91 43
    -144 46 -230 9 -126 -53 -195 -39 -256 49 -43 64 -63 161 -72 347 -9 171 -19
    207 -72 239 -47 29 -126 34 -301 20 -188 -15 -196 -12 -152 53 23 35 28 53 27
    93 -2 56 17 124 57 205 45 89 62 158 49 197 -14 44 -38 49 -166 33 -131 -16
    -148 -29 -193 -140 -46 -115 -95 -147 -255 -169 -108 -15 -165 -1 -226 56 -76
    71 -159 251 -177 387 -31 235 109 427 424 578 84 41 94 43 181 44 97 1 123 11
    123 46 0 51 45 78 130 78 65 0 271 -36 317 -55 63 -26 111 -83 168 -195 81
    -161 160 -250 223 -250 87 0 27 242 -90 366 l-53 56 0 72 c1 113 31 167 169
    301 202 196 206 216 82 420 -20 33 -36 64 -36 68 0 4 30 -13 66 -38 36 -25 70
    -42 75 -39 5 3 9 17 9 32 0 38 39 117 113 230 66 100 97 166 97 205 0 12 7 33
    16 46 l16 23 183 -7 c149 -6 184 -5 193 6 6 8 22 27 34 42 17 20 43 34 92 47
    81 23 113 49 122 99 11 65 15 73 57 92 79 36 170 15 203 -47 23 -43 34 -43 35
    -1 0 17 4 40 8 51 6 16 12 11 44 -33 20 -28 42 -51 48 -51 20 0 4 91 -26 153
    -42 85 -179 231 -143 153 14 -32 4 -58 -19 -49 -42 15 -98 71 -164 164 -126
    178 -216 262 -300 277 -65 12 -118 53 -293 221 -203 195 -240 212 -267 121
    -21 -71 -50 -64 -240 55 -213 134 -286 161 -406 152 -93 -7 -113 -2 -113 30 0
    16 -12 35 -31 52 -81 67 -98 89 -113 141 -18 60 -21 204 -6 245 11 29 15 29
    78 4 25 -10 37 -11 51 -2 24 15 41 -1 41 -38 0 -38 15 -75 33 -82 8 -3 43 1
    77 9 34 8 66 12 71 8 32 -19 -18 -106 -86 -150 -62 -39 -76 -59 -64 -91 10
    -28 51 -49 114 -58 69 -10 218 -66 357 -136 145 -73 187 -81 221 -46 41 40 49
    87 26 165 -10 37 -19 91 -19 120 0 62 -14 92 -85 187 -113 152 -304 329 -366
    342 -16 3 -29 9 -29 14 0 22 136 61 213 60 50 0 74 -12 181 -87 26 -19 60 -34
    73 -34 17 0 38 -14 64 -42 21 -24 54 -60 73 -80 21 -24 43 -38 58 -38 13 0 34
    -7 47 -16 19 -14 22 -23 18 -50 -8 -49 6 -88 52 -143 49 -59 65 -95 51 -121
    -14 -27 -14 -28 29 -26 49 1 117 -43 243 -157 238 -215 456 -357 547 -357 l34
    0 -6 53 c-3 28 -22 106 -43 172 -77 249 -50 450 66 494 16 6 44 16 60 22 37
    14 40 46 8 98 -45 74 -81 112 -131 136 -56 26 -112 65 -320 223 -295 223 -630
    394 -742 378 -33 -5 -47 -2 -67 13 -38 30 -42 58 -10 79 50 32 811 18 1079
    -20 73 -11 87 -10 118 5 51 24 43 47 -25 74 -92 36 -281 62 -635 89 -236 18
    -1194 27 -1473 14z m777 -131 c48 -17 37 -29 -28 -29 -63 0 -84 12 -54 29 23
    13 43 13 82 0z m-789 -264 c80 -81 128 -100 293 -120 137 -16 215 -34 282 -66
    70 -33 58 -51 -42 -65 -58 -9 -98 -21 -136 -43 -30 -17 -61 -31 -68 -31 -8 0
    -64 25 -125 56 -95 48 -118 56 -170 57 -32 0 -69 -3 -81 -7 -16 -5 -28 -1 -42
    13 -19 19 -21 33 -21 124 0 77 4 108 16 125 8 12 18 22 22 22 4 0 37 -29 72
    -65z m-658 -219 c12 -17 9 -74 -4 -82 -14 -9 -68 50 -68 75 0 11 6 22 13 24
    16 7 50 -3 59 -17z m-214 -18 c7 -7 12 -34 12 -60 0 -59 -14 -62 -83 -18 -55
    35 -59 56 -14 75 40 18 69 19 85 3z m-450 -42 c68 -34 149 -49 203 -37 24 5
    45 8 47 6 8 -7 -119 -86 -148 -92 -29 -5 -37 0 -96 60 -56 58 -76 87 -59 87 3
    0 27 -11 53 -24z m926 -3 c-20 -40 -9 -126 26 -201 18 -40 30 -76 26 -80 -4
    -4 -43 30 -87 75 -100 104 -103 123 -28 182 56 44 76 52 63 24z m-441 -158
    c108 -25 197 -55 197 -67 0 -15 -129 -4 -197 17 -29 9 -65 27 -80 40 -27 23
    -27 24 -6 25 12 0 51 -7 86 -15z m655 -87 c28 -28 -5 -118 -44 -118 -31 0 -37
    75 -9 120 8 14 38 13 53 -2z m-593 -118 c0 -17 -112 -77 -123 -66 -4 4 12 25
    36 47 43 41 87 50 87 19z m-411 -46 c34 -13 2 -24 -69 -24 -82 0 -115 7 -93
    21 15 10 139 12 162 3z m-146 -286 c10 -10 -9 -33 -85 -110 -54 -54 -101 -98
    -105 -98 -4 0 0 16 8 35 21 52 18 92 -9 110 -35 23 -81 9 -154 -46 -73 -55
    -82 -52 -20 8 44 43 104 78 172 99 52 17 177 18 193 2z m1220 -64 c62 -21 85
    -24 134 -19 l58 7 15 -34 c18 -45 31 -54 82 -63 70 -11 95 -57 68 -127 -5 -12
    12 -35 63 -84 84 -79 110 -132 122 -246 10 -105 23 -119 119 -126 39 -2 71 -8
    71 -12 0 -5 -21 -21 -47 -36 -51 -29 -132 -38 -182 -20 -24 8 -24 8 -17 -43 5
    -41 4 -53 -8 -57 -8 -3 -66 6 -128 20 -201 45 -300 46 -367 5 l-34 -21 71 -66
    c55 -52 72 -74 72 -95 0 -20 -5 -27 -20 -27 -15 0 -20 7 -20 28 0 44 -11 54
    -46 40 -28 -10 -37 -8 -86 20 -67 39 -83 40 -104 7 -45 -69 -150 19 -153 128
    -2 68 71 127 156 127 44 0 66 -18 77 -62 4 -18 15 -30 31 -34 38 -10 59 2 50
    29 -13 41 -7 71 20 94 31 28 50 30 40 6 -4 -10 -10 -30 -12 -45 -4 -23 -1 -28
    22 -34 56 -14 141 32 133 72 -2 10 -19 27 -38 38 -35 21 -104 25 -236 16 -56
    -4 -100 20 -201 109 -119 106 -165 140 -186 141 -38 0 -33 65 8 106 17 17 31
    23 48 19 31 -8 85 33 182 139 64 69 137 126 164 126 3 0 38 -12 79 -26z m-801
    -40 c3 -8 1 -26 -5 -40 -9 -19 -19 -24 -47 -24 -49 0 -58 26 -19 57 34 27 62
    30 71 7z m-267 -81 c0 -5 -14 -17 -31 -28 -44 -29 -55 -52 -33 -76 26 -29 58
    -23 109 21 45 39 87 51 100 30 3 -6 1 -26 -6 -45 -11 -30 -11 -37 6 -55 33
    -37 64 -22 99 47 37 73 107 82 125 17 15 -53 -2 -89 -49 -108 -28 -11 -38 -20
    -34 -31 13 -33 55 -16 113 45 58 60 81 73 81 45 0 -34 -37 -85 -141 -191 -68
    -69 -109 -120 -109 -132 0 -12 15 -33 35 -49 57 -46 48 -53 -69 -53 -58 0
    -107 4 -110 8 -3 5 8 22 24 37 17 16 30 34 30 41 0 19 -88 94 -110 94 -12 0
    -26 -12 -35 -30 -19 -37 -43 -38 -127 -6 -73 28 -178 76 -178 81 0 2 50 34
    110 70 61 36 110 68 110 70 0 2 -28 -3 -62 -11 -35 -8 -79 -14 -98 -12 -33 3
    -35 5 -32 36 3 29 0 33 -27 38 -17 4 -31 10 -31 15 0 21 111 86 205 120 50 18
    135 25 135 12z m2148 -322 c2 -6 -18 -34 -46 -61 -51 -51 -82 -64 -82 -32 0
    32 45 84 90 104 19 8 33 5 38 -11z m-1553 -34 c45 -26 52 -51 15 -55 -30 -3
    -84 28 -100 57 -10 19 -8 21 17 21 15 0 46 -11 68 -23z m1195 -397 c24 -24 24
    -29 4 -58 -20 -29 -55 -28 -93 4 -29 24 -39 52 -24 67 15 16 93 7 113 -13z
    m185 -11 c32 -38 29 -63 -7 -67 -34 -4 -63 36 -54 73 9 34 29 32 61 -6z m512
    -68 c23 -11 58 -31 78 -44 47 -32 33 -37 -96 -37 -140 0 -171 21 -108 74 36
    31 69 32 126 7z m273 -38 c0 -49 11 -55 86 -51 64 3 69 2 66 -17 -3 -24 -123
    -265 -132 -265 -13 0 -79 168 -86 217 -5 42 -2 60 16 97 25 52 50 61 50 19z
    m-1636 -127 c49 -34 91 -67 94 -74 3 -11 -33 -13 -196 -10 -130 2 -205 7 -212
    14 -14 14 77 99 133 124 52 24 78 16 181 -54z m1442 -180 c18 -14 18 -15 -9
    -21 -27 -7 -94 -1 -104 9 -26 25 79 36 113 12z"/>
    <path d="M5294 10835 c-8 -21 17 -48 90 -95 68 -45 110 -57 131 -40 55 46 -38
    123 -173 144 -33 5 -44 3 -48 -9z"/>
    <path d="M6036 10689 c-32 -37 -37 -103 -8 -97 18 3 62 80 62 110 0 27 -25 21
    -54 -13z"/>
    <path d="M4556 10892 c-8 -14 42 -81 74 -97 38 -19 76 -19 84 1 8 20 -33 60
    -87 84 -46 22 -63 24 -71 12z"/>
    <path d="M8404 11299 c-91 -12 -181 -49 -169 -69 4 -6 19 -10 34 -10 36 0 54
    -21 45 -54 l-6 -26 68 6 c73 6 82 4 213 -51 114 -48 251 -32 251 29 0 86 -273
    196 -436 175z"/>
    <path d="M1574 10520 c-48 -15 -124 -71 -147 -109 -21 -34 -21 -35 -2 -27 51
    19 71 18 103 -9 40 -34 79 -29 149 18 60 40 76 78 46 109 -25 24 -99 33 -149
    18z"/>
    <path d="M11276 10502 c-3 -5 1 -30 9 -57 21 -68 21 -69 -27 -60 -84 14 -103
    12 -100 -10 10 -76 7 -87 -37 -124 -34 -29 -43 -44 -48 -79 -10 -76 44 -172
    98 -172 30 0 77 48 96 98 l18 47 7 -40 c4 -22 7 -59 7 -82 1 -23 6 -66 12 -95
    10 -46 20 -61 83 -121 73 -70 72 -77 -12 -46 -30 11 -72 11 -72 1 0 -5 41 -67
    91 -138 98 -140 154 -245 165 -310 7 -44 -7 -84 -29 -84 -7 0 -50 18 -95 40
    -146 70 -197 76 -222 23 -7 -16 -16 -91 -21 -178 -4 -82 -17 -204 -28 -271
    -35 -201 -31 -216 61 -213 71 3 96 -12 103 -59 14 -81 17 -92 30 -92 8 0 43
    20 79 45 36 25 66 42 66 39 0 -3 -16 -26 -35 -51 -40 -52 -54 -91 -36 -102 7
    -5 2 -20 -17 -48 -15 -22 -42 -62 -59 -89 -21 -30 -33 -60 -33 -81 0 -26 -9
    -42 -42 -74 -79 -77 -202 -151 -270 -163 -42 -8 -52 -21 -62 -81 -9 -54 -19
    -81 -82 -215 -77 -164 -94 -230 -104 -394 -7 -124 -10 -141 -29 -155 -38 -29
    -58 -250 -42 -478 10 -150 22 -183 68 -195 42 -11 73 -49 133 -166 96 -187
    219 -314 337 -348 57 -17 58 -16 140 11 74 25 91 27 170 20 103 -7 136 2 232
    64 75 48 135 67 171 54 24 -8 33 -25 45 -85 7 -35 43 -54 117 -63 78 -10 83
    -17 72 -123 -5 -48 -9 -166 -9 -262 1 -149 5 -194 28 -305 47 -231 46 -264
    -12 -388 -63 -134 -96 -319 -146 -820 -42 -407 -56 -517 -87 -644 -12 -51 -18
    -96 -14 -100 12 -12 68 58 118 149 149 267 210 349 300 394 112 57 188 261
    208 562 13 194 29 303 85 583 108 537 139 835 139 1329 0 413 -23 622 -144
    1325 -61 352 -55 330 -113 391 -47 48 -99 75 -114 60 -3 -3 2 -33 11 -67 16
    -56 15 -87 -2 -64 -33 46 -128 197 -170 271 -60 105 -68 137 -35 142 36 5 93
    -28 168 -99 86 -81 113 -97 122 -73 15 41 -66 282 -205 604 -210 491 -379 816
    -439 843 -13 6 -34 34 -49 66 -70 149 -96 196 -185 331 -99 148 -201 271 -214
    258 -12 -12 17 -76 96 -220 85 -153 94 -195 59 -276 -30 -70 -50 -86 -43 -34
    8 56 -18 136 -97 302 -92 196 -103 230 -104 326 -1 66 -5 86 -20 103 -20 22
    -32 26 -40 13z m671 -1557 c124 -147 273 -499 224 -529 -15 -10 -31 35 -31 89
    0 63 -15 68 -246 85 -130 9 -172 23 -200 66 -38 57 11 200 97 286 39 39 55 48
    83 48 29 0 41 -7 73 -45z m361 -460 c36 -30 60 -81 44 -97 -32 -32 -92 28 -92
    92 0 36 9 38 48 5z"/>
    <path d="M1476 9931 c-21 -23 -18 -65 6 -69 9 -2 31 11 50 27 32 30 32 32 14
    46 -27 20 -49 19 -70 -4z"/>
    <path d="M954 9683 c-11 -18 -18 -47 -19 -78 0 -47 2 -50 25 -50 36 0 72 57
    68 110 -3 35 -6 40 -29 43 -19 2 -31 -4 -45 -25z"/>
    <path d="M1176 9643 c-46 -30 -45 -57 2 -61 41 -4 62 12 62 48 0 39 -21 43
    -64 13z"/>
    <path d="M11441 9375 c-37 -32 -39 -42 -6 -57 35 -16 77 13 73 50 -4 36 -29
    39 -67 7z"/>
    <path d="M686 9250 c-66 -74 -233 -451 -301 -685 -15 -49 -33 -132 -41 -184
    -14 -91 -24 -116 -53 -135 -57 -36 -154 -461 -215 -946 -41 -327 -50 -445 -50
    -690 -1 -205 1 -240 17 -272 22 -48 62 -53 78 -10 6 15 15 172 20 372 9 358
    21 471 58 554 26 59 56 79 110 70 52 -8 77 11 86 66 9 52 -9 111 -45 145 -39
    37 -49 75 -56 210 -13 230 44 505 105 505 22 0 47 -47 57 -108 3 -23 12 -49
    19 -58 11 -15 14 -13 37 17 44 57 117 209 148 305 62 194 69 407 14 428 -23 9
    -53 -34 -59 -83 -23 -178 -44 -247 -100 -323 -46 -63 -65 -63 -65 0 0 125 90
    332 196 452 99 112 106 132 89 254 -8 55 -7 59 11 54 49 -14 49 -14 46 16 -5
    44 -30 86 -51 86 -10 0 -35 -18 -55 -40z"/>
    <path d="M11315 8386 c-36 -55 22 -77 70 -26 25 26 27 32 15 40 -28 18 -69 11
    -85 -14z"/>
    <path d="M6170 7851 c-65 -20 -160 -89 -160 -117 0 -21 37 -36 96 -36 55 -1
    89 15 80 38 -9 23 25 39 84 39 70 0 93 -15 79 -51 -14 -39 -11 -44 22 -32 44
    15 100 3 218 -48 134 -59 184 -74 247 -74 114 0 80 50 -86 129 -275 130 -478
    183 -580 152z"/>
    <path d="M7246 7440 l-36 -51 -59 2 c-66 2 -81 -4 -81 -31 0 -46 69 -51 365
    -25 200 18 245 29 245 60 0 9 -15 24 -32 35 -27 16 -51 20 -128 20 -68 1 -111
    6 -150 20 -30 11 -62 19 -72 20 -9 0 -32 -23 -52 -50z"/>
    <path d="M6742 7364 c-35 -35 -35 -37 -17 -50 19 -14 102 -19 143 -8 30 9 28
    26 -10 63 -42 41 -71 40 -116 -5z"/>
    <path d="M7805 7369 c-57 -50 -42 -69 55 -69 57 0 90 9 90 24 0 20 -65 76 -88
    76 -12 0 -37 -14 -57 -31z"/>
    <path d="M404 7062 c-46 -30 -53 -208 -14 -350 27 -98 48 -130 93 -134 l32 -3
    -3 -85 c-3 -102 2 -127 28 -135 49 -16 150 82 150 145 0 40 -11 58 -98 155
    -92 103 -142 215 -142 316 0 49 -14 99 -27 99 -5 0 -13 -4 -19 -8z"/>
    <path d="M417 6483 c-47 -53 -85 -189 -60 -214 16 -16 50 5 69 43 20 38 31
    148 17 172 -9 16 -10 15 -26 -1z"/>
    <path d="M670 6361 c-5 -11 -10 -29 -10 -41 0 -32 -17 -58 -50 -75 -17 -9 -30
    -22 -30 -30 0 -51 97 -185 134 -185 59 0 67 277 10 335 -21 20 -41 19 -54 -4z"/>
    <path d="M9 6198 c-14 -26 -8 -124 26 -406 40 -327 81 -475 121 -441 18 15 17
    72 -1 174 -7 44 -25 172 -40 285 -29 232 -40 295 -61 363 -17 52 -27 58 -45
    25z"/>
    <path d="M346 6091 c-88 -172 -129 -337 -129 -516 0 -182 26 -230 127 -237 61
    -4 76 13 109 129 13 46 26 85 29 88 3 3 8 -54 12 -127 11 -223 32 -328 66
    -328 6 0 28 16 50 36 l39 36 21 -34 c11 -18 20 -36 20 -40 0 -5 5 -8 11 -8 21
    0 3 111 -30 184 -33 74 -40 126 -17 145 19 16 45 2 71 -38 22 -35 30 -38 39
    -16 17 45 -49 110 -155 151 l-74 29 80 6 c81 6 120 19 142 48 18 23 16 38 -8
    62 -19 19 -28 20 -108 14 -101 -8 -136 3 -169 57 -28 47 -40 96 -52 229 -18
    189 -32 214 -74 130z"/>
    <path d="M2990 6056 c0 -31 58 -83 139 -126 69 -37 117 -88 126 -134 11 -56
    16 -66 36 -76 48 -26 81 38 59 115 -19 67 -99 137 -245 213 -75 40 -115 42
    -115 8z"/>
    <path d="M870 5698 c-34 -56 -38 -201 -9 -309 10 -39 33 -57 46 -36 10 15 17
    319 9 353 -9 33 -23 30 -46 -8z"/>
    <path d="M1038 5523 c-25 -29 -36 -55 -43 -108 -3 -27 -8 -60 -10 -71 -6 -27
    -61 -54 -108 -54 -107 0 -117 -63 -14 -91 56 -15 175 -14 194 3 11 9 14 24 9
    61 -8 57 4 77 44 77 38 0 54 -22 47 -66 -11 -69 19 -100 204 -204 105 -59 229
    -186 229 -233 0 -10 -12 -19 -27 -23 -39 -9 -53 -23 -53 -50 0 -28 43 -54 92
    -55 55 0 100 -22 118 -54 17 -31 63 -53 110 -54 39 -1 94 31 100 59 9 40 46
    55 100 40 37 -10 63 -31 147 -115 76 -78 117 -110 165 -133 79 -38 99 -44 117
    -33 25 16 -7 68 -111 177 -126 132 -155 197 -108 239 20 18 37 18 152 -1 53
    -9 105 12 161 65 114 106 121 231 13 231 -43 0 -48 -7 -30 -41 13 -26 13 -32
    -1 -59 -19 -37 -73 -73 -143 -96 -103 -33 -228 0 -322 83 -123 110 -449 283
    -547 291 -47 4 -60 1 -104 -27 -59 -36 -87 -39 -123 -10 -40 32 -51 58 -31 73
    16 11 16 15 2 43 -19 36 -71 82 -95 84 -9 1 -30 2 -47 3 -24 1 -31 7 -38 34
    -11 36 -26 41 -49 15z"/>
    <path d="M1360 5415 c-12 -31 -4 -105 11 -105 21 0 30 103 11 122 -8 8 -14 4
    -22 -17z"/>
    <path d="M5842 5343 c-7 -3 -20 -19 -28 -36 -16 -29 -16 -32 6 -49 45 -36 120
    -17 120 31 0 46 -49 74 -98 54z"/>
    <path d="M201 5244 c-75 -62 -8 -173 189 -314 54 -38 127 -102 163 -141 58
    -64 68 -71 82 -59 23 19 75 111 75 132 0 26 -44 54 -118 77 -98 30 -116 45
    -108 92 l6 38 -33 -6 c-75 -12 -194 99 -185 172 3 31 1 35 -18 35 -12 0 -36
    -12 -53 -26z"/>
    <path d="M1271 5011 c-16 -16 -20 -28 -15 -49 8 -33 43 -92 54 -92 36 0 39
    124 3 147 -19 13 -24 12 -42 -6z"/>
    <path d="M2750 4893 c1 -59 66 -139 137 -168 39 -17 139 -20 148 -6 7 12 -96
    99 -179 153 -64 41 -106 50 -106 21z"/>
    <path d="M845 4881 c-69 -31 -122 -112 -98 -150 11 -17 62 -26 98 -17 18 5 28
    22 48 88 33 106 29 114 -48 79z"/>
    <path d="M1118 4877 c-35 -28 -36 -53 -3 -61 33 -8 63 8 71 39 12 49 -22 60
    -68 22z"/>
    <path d="M3140 4666 c-51 -34 -76 -39 -131 -26 -56 14 -64 11 -54 -20 9 -28
    62 -50 117 -50 44 1 165 23 174 33 12 12 -40 87 -60 87 -6 0 -27 -11 -46 -24z"/>
    <path d="M1148 4573 c-18 -21 -38 -86 -38 -125 0 -50 -30 -68 -116 -68 -92 0
    -111 -9 -119 -58 -11 -63 -16 -73 -43 -85 -38 -17 -42 -26 -36 -82 7 -61 -12
    -90 -92 -141 -94 -60 -87 -96 98 -495 208 -447 270 -525 456 -569 59 -14 66
    -11 67 28 0 26 2 27 51 27 99 -1 255 -104 371 -245 99 -120 175 -200 189 -200
    20 0 133 -115 316 -320 227 -256 289 -309 313 -269 20 32 -30 101 -127 175
    -32 25 -58 49 -58 54 0 5 38 21 84 35 93 28 141 64 151 111 18 92 30 127 70
    205 55 108 70 185 62 334 -6 106 -32 226 -62 284 -7 15 -32 49 -54 76 -23 28
    -51 75 -62 105 -23 63 -69 126 -166 231 -143 155 -180 215 -262 418 -51 125
    -83 181 -105 181 -19 0 -52 67 -79 162 -36 127 -69 170 -105 134 -15 -15 -17
    -38 -14 -176 1 -88 0 -160 -3 -160 -4 0 -57 26 -118 57 -127 65 -182 110 -208
    170 -21 48 -66 76 -185 111 -78 24 -121 52 -134 88 -11 29 -22 30 -42 7z
    m1482 -1463 c21 -41 27 -90 11 -90 -13 0 -57 59 -65 87 -17 55 26 58 54 3z"/>
    <path d="M3273 4538 c-40 -28 -66 -75 -62 -108 4 -23 8 -25 44 -21 89 8 89 8
    104 -26 14 -31 45 -52 58 -39 21 21 -15 128 -61 184 -33 38 -41 39 -83 10z"/>
    <path d="M3806 3944 c-15 -38 4 -111 41 -154 20 -25 32 -30 57 -28 23 2 32 8
    34 26 4 27 -38 122 -67 151 -25 25 -56 27 -65 5z"/>
    <path d="M4923 3734 c-8 -23 8 -47 41 -58 21 -8 32 -6 54 11 15 11 27 29 27
    39 0 16 -9 19 -58 22 -46 2 -58 0 -64 -14z"/>
    <path d="M4750 3671 c-29 -55 10 -124 69 -124 39 0 61 19 61 52 -1 64 -103
    121 -130 72z"/>
    <path d="M3580 3471 c-7 -14 -7 -28 0 -47 21 -53 97 -128 143 -139 23 -6 27
    -4 27 15 0 37 -41 109 -87 151 -47 43 -67 48 -83 20z"/>
    <path d="M3658 2725 c-9 -20 -9 -47 0 -114 20 -152 13 -181 -49 -181 -41 0
    -36 -14 16 -50 25 -17 45 -35 45 -39 0 -5 -23 -11 -51 -15 -141 -19 -489 -205
    -489 -261 0 -23 51 -55 86 -55 59 0 164 48 298 137 72 47 150 94 174 104 41
    18 118 67 215 137 l48 35 -79 81 c-89 92 -118 131 -134 178 -22 67 -60 87 -80
    43z"/>
    <path d="M7955 1098 c-42 -15 -75 -47 -75 -74 0 -25 52 -74 79 -74 28 0 82 41
    119 90 32 41 33 45 16 57 -21 15 -96 16 -139 1z"/>
    <path d="M9205 694 c-44 -20 -107 -48 -139 -61 -62 -26 -184 -52 -249 -53 -61
    0 -183 -28 -307 -70 -272 -92 -560 -136 -839 -128 -126 3 -142 6 -190 31 -81
    42 -117 44 -213 12 -46 -15 -89 -30 -96 -34 -9 -5 28 -36 107 -92 l120 -84
    -172 -6 c-124 -4 -185 -10 -217 -22 -25 -9 -55 -17 -67 -17 -20 0 -23 5 -23
    39 0 62 -14 67 -133 42 -217 -45 -305 -39 -522 34 -153 52 -195 56 -236 21
    -47 -40 -114 -42 -369 -16 -124 13 -261 24 -306 23 -142 -2 -355 -54 -379 -93
    -32 -51 707 -183 1186 -211 610 -36 1456 40 2014 183 338 86 975 338 1173 464
    46 30 51 37 42 54 -18 33 -90 27 -185 -16z"/>
          </g>
        </symbol>
        <clipPath id="earth-clip-a">
          <circle cx="60" cy="80" r="31"/>
        </clipPath>
        <clipPath id="earth-clip-b">
          <circle cx="170" cy="80" r="31"/>
        </clipPath>
        <clipPath id="earth-clip-c">
          <circle cx="290" cy="80" r="31"/>
        </clipPath>
  </defs>
  <g transform="translate(-345, 0)">
  <!-- ════════ d) Goode homolosina interrumpida: vectorizada (silueta limpia + continentes) ════════ -->
  <g transform="translate(344 55.5) scale(0.34)">
    <g transform="translate(0,144) scale(0.1,-0.1)">
      <!-- Silueta de los lóbulos (1 path único) -->
      <g fill="none" stroke="currentColor" stroke-width="11">
        <path d="M602 1415 c-145 -35 -306 -151 -396 -285 -20 -30 -61 -88 -91 -128
-121 -163 -133 -309 -55 -697 48 -242 64 -264 160 -230 60 21 197 21 158 -1
-16 -8 -28 -17 -28 -20 0 -9 56 25 96 60 94 80 284 422 284 509 0 35 8 14 23
-58 46 -218 178 -484 261 -527 12 -6 3 6 -19 26 -40 36 -40 36 7 32 37 -3 45
-1 41 10 -3 8 1 14 11 14 9 0 16 4 16 10 0 5 8 14 18 19 15 8 17 5 15 -29 -2
-50 31 -65 93 -44 50 18 50 18 30 -5 -10 -11 -31 -25 -47 -31 -16 -7 -28 -15
-25 -17 59 -60 270 335 304 571 7 51 7 51 25 -30 55 -257 209 -544 291 -544 6
0 -2 8 -19 19 -91 56 -79 73 54 78 53 2 113 8 133 14 37 10 115 3 123 -12 5
-7 -15 -25 -61 -57 -11 -7 -5 -6 12 2 44 21 143 124 180 188 126 217 173 319
175 380 1 28 4 20 38 -87 21 -64 78 -174 155 -300 37 -60 98 -129 140 -157 23
-15 21 -11 -8 14 -40 35 -40 35 5 40 48 5 225 2 249 -5 8 -2 29 -7 45 -12 47
-12 49 -16 19 -40 -29 -23 -29 -23 1 -18 30 5 30 5 5 -17 -21 -18 -22 -20 -3
-11 52 26 132 149 172 266 11 33 32 92 46 130 108 285 61 437 -185 600 -41 28
-112 78 -158 113 -194 146 -467 243 -772 273 -161 16 -374 4 -312 -18 7 -3
-15 -19 -49 -36 -33 -18 -71 -37 -83 -43 -11 -7 -32 -15 -46 -19 -36 -9 5 23
80 64 30 17 50 31 44 31 -110 3 -429 -402 -459 -583 -7 -41 -7 -41 -26 31 -10
40 -36 105 -57 145 -98 184 -116 215 -154 265 -23 29 -57 65 -77 81 -49 37
-75 50 -31 15 46 -37 90 -84 90 -95 0 -15 -58 19 -69 40 -13 24 -78 62 -110
64 -34 3 -42 37 -9 38 17 1 13 5 -17 14 -51 17 -164 17 -233 0z m1538 -266 c0
-12 32 -16 56 -8 26 9 57 -6 32 -16 -9 -4 -22 -6 -29 -4 -28 3 -34 -1 -34 -25
0 -13 2 -23 4 -21 12 13 41 -17 31 -31 -7 -7 -16 -11 -21 -8 -5 3 -9 0 -9 -7
0 -7 10 -9 25 -7 17 4 25 1 25 -8 0 -8 5 -14 11 -14 5 0 7 5 4 10 -3 6 -1 10
4 10 18 0 13 -28 -6 -39 -10 -6 -14 -11 -9 -11 5 0 18 8 29 17 18 17 19 17 32
-1 8 -10 18 -15 24 -12 5 4 12 2 16 -4 3 -5 -1 -11 -9 -11 -33 -3 -37 -4 -46
-19 -8 -12 -13 -13 -30 -2 -11 6 -35 12 -53 12 -18 0 -38 5 -45 12 -7 7 -12 8
-12 4 0 -5 -12 -1 -26 9 -32 21 -43 12 -18 -16 10 -11 26 -18 36 -16 10 3 18
1 18 -4 0 -5 7 -9 15 -9 17 0 18 -2 8 -25 -6 -16 -103 -69 -111 -61 -2 3 -5
11 -6 19 -1 9 -13 25 -26 37 -16 14 -21 23 -13 26 13 6 6 34 -9 34 -5 0 -6 -4
-3 -10 3 -5 2 -10 -4 -10 -5 0 -13 9 -16 20 -5 17 -25 29 -25 15 0 -13 53
-115 60 -115 4 0 11 -8 14 -17 6 -16 6 -16 -11 0 -19 17 -50 17 -61 1 -16 -21
-84 -30 -76 -10 6 16 -38 17 -54 2 -2 -3 -13 -1 -24 5 -11 6 -24 7 -31 2 -12
-10 -74 -8 -117 2 -14 3 -37 6 -52 7 -15 0 -25 5 -22 9 2 4 -10 4 -28 -2 -18
-5 -34 -9 -36 -9 -1 0 2 9 8 21 7 11 9 26 7 34 -7 16 48 69 62 60 7 -3 10 -3
9 2 -3 11 25 53 36 53 4 0 3 -7 -4 -15 -8 -10 -9 -15 -2 -15 13 0 34 35 26 42
-2 3 6 5 18 4 13 -1 28 1 33 5 26 18 75 16 69 -3 -3 -12 0 -18 10 -18 9 0 25
-6 36 -12 17 -11 22 -10 29 0 6 10 16 10 48 -2 44 -16 60 -8 77 38 4 13 13 17
31 13 14 -2 28 0 31 4 3 5 16 1 30 -8 18 -11 28 -13 36 -5 6 6 17 8 26 5 10
-4 13 -2 8 6 -4 6 -16 9 -27 6 -19 -6 -22 -1 -22 37 0 9 -4 16 -10 15 -5 -1
-11 3 -14 9 -5 16 33 24 47 10 8 -8 10 -7 5 5 -4 10 0 16 10 16 8 0 15 -4 15
-8z m322 -14 c41 -6 44 -34 4 -36 -11 0 -15 -3 -8 -6 6 -2 10 -9 7 -13 -3 -5
0 -12 6 -16 8 -4 9 -3 5 4 -7 12 6 17 17 6 14 -14 -18 -33 -33 -19 -16 15 -70
31 -70 21 0 -3 12 -12 27 -19 26 -14 26 -14 -14 -12 -21 1 -45 5 -52 9 -7 5
-15 5 -18 2 -4 -3 -1 -6 7 -6 10 0 10 -4 -1 -17 -13 -16 -12 -17 4 -4 10 8 17
9 17 3 0 -6 6 -9 14 -6 8 3 16 -4 19 -18 5 -20 4 -21 -6 -7 -7 9 -18 14 -25
11 -10 -3 -8 -8 5 -18 16 -12 16 -13 1 -14 -9 0 -23 7 -31 15 -8 8 -17 11 -20
8 -4 -3 -20 6 -37 21 -17 14 -36 26 -41 26 -6 0 -8 4 -5 9 4 5 0 12 -6 14 -8
4 -7 6 4 6 9 1 19 -5 22 -11 4 -7 4 -3 2 9 -2 13 2 24 11 27 9 4 11 2 7 -6 -5
-8 -2 -9 12 -3 10 4 48 10 83 12 70 4 97 13 38 13 -20 0 -39 5 -42 10 -3 6 3
10 15 10 13 0 18 4 15 11 -5 7 -2 7 11 0 11 -5 36 -13 56 -16z"/>
      </g>
      <!-- Continentes proyectados -->
      <g fill="currentColor" stroke="none">
        <path d="M594 1411 c-143 -39 -267 -122 -350 -236 -27 -37 -70 -93 -95 -125
-150 -189 -169 -319 -99 -690 51 -267 77 -322 140 -293 10 4 2 9 -25 13 l-40
7 37 2 c20 0 40 -4 43 -9 4 -7 13 -6 26 1 11 5 57 9 102 8 59 -1 81 2 79 11
-1 6 1 9 6 6 32 -20 218 240 197 275 -4 5 -1 8 6 7 18 -4 85 133 102 207 16
65 14 67 37 -50 32 -157 145 -408 213 -471 36 -34 38 -35 12 -5 l-30 34 38 -6
c28 -4 40 -2 44 9 3 7 9 14 14 14 4 0 20 12 34 26 14 14 29 23 33 20 3 -4 2
-10 -3 -14 -16 -11 -12 -66 5 -74 25 -11 48 -10 30 2 -12 8 -10 10 8 10 15 0
21 -4 16 -12 -7 -11 8 -9 51 8 20 7 20 7 0 -17 l-20 -24 28 25 c15 13 25 30
22 38 -2 7 0 10 5 7 27 -17 156 286 190 445 17 83 18 84 25 45 10 -59 34 -142
60 -210 12 -33 33 -88 45 -123 27 -74 99 -190 108 -175 11 15 49 22 142 24 47
1 103 7 124 15 24 7 46 9 55 4 45 -23 112 -16 96 10 -5 8 -4 11 3 6 15 -9 71
61 113 141 20 37 49 91 66 118 38 65 71 149 81 205 l8 45 13 -54 c16 -72 61
-172 74 -164 6 4 7 1 3 -6 -5 -7 3 -29 18 -52 15 -22 31 -51 36 -65 17 -43 80
-135 89 -129 6 3 13 0 17 -6 4 -8 3 -9 -4 -5 -28 17 -8 -14 35 -54 26 -25 37
-33 24 -17 l-24 27 26 0 c15 0 27 5 27 11 0 5 5 7 11 3 6 -3 59 -8 118 -9 120
-3 187 -19 203 -48 7 -14 7 -17 -1 -13 -6 4 -19 2 -28 -3 -16 -9 -15 -10 5
-11 16 0 21 -4 16 -12 -4 -7 5 -2 20 11 43 40 87 116 128 224 147 381 146 495
-8 644 -52 50 -71 62 -88 58 -15 -5 -17 -4 -7 3 11 8 -2 21 -57 56 -39 25 -99
68 -134 96 -133 108 -395 212 -643 256 -153 27 -514 24 -437 -3 7 -3 -11 -16
-40 -30 -29 -15 -60 -32 -68 -39 -8 -7 -34 -19 -58 -27 l-43 -15 18 21 c9 12
1 7 -20 -12 -27 -26 -34 -37 -24 -44 8 -6 7 -7 -5 -3 -20 6 -47 -26 -131 -157
-67 -104 -66 -97 -23 -97 31 0 37 5 66 56 18 30 34 53 36 51 2 -2 -12 -31 -32
-64 l-35 -60 -41 7 -40 8 -33 -70 c-18 -38 -37 -88 -40 -111 l-7 -41 -18 71
c-26 99 -127 293 -144 276 -4 -4 -4 -1 -1 8 6 15 -62 130 -85 144 -9 6 -9 3
-1 -13 14 -26 14 -43 0 -19 -5 9 -15 17 -22 17 -16 1 -57 36 -57 49 0 12 -69
47 -113 56 -15 3 -25 10 -22 15 3 6 1 10 -4 10 -33 0 -5 -37 43 -59 41 -19 52
-29 48 -43 -5 -22 -4 -22 -44 2 -36 22 -78 26 -78 8 0 -6 -3 -8 -7 -5 -3 4
-11 2 -18 -3 -8 -6 -18 -5 -31 6 -13 11 -14 14 -4 11 10 -3 16 2 17 14 1 10
-3 19 -8 19 -6 0 -7 5 -4 10 3 6 1 10 -4 10 -14 0 -14 -13 0 -27 7 -7 -3 -11
-35 -11 -38 -1 -46 2 -46 17 0 22 25 45 39 37 5 -3 12 0 14 6 4 10 6 10 6 1 1
-7 6 -13 12 -13 5 0 8 4 5 9 -9 13 66 31 109 25 36 -4 37 -3 15 7 -47 21 -179
21 -256 0z m1409 -17 c14 -14 31 -23 37 -19 5 3 10 2 10 -2 0 -5 -9 -14 -20
-21 -17 -11 -20 -10 -20 7 0 11 -12 29 -26 40 -15 12 -22 21 -17 21 6 0 22
-12 36 -26z m117 6 c-24 -8 -24 -8 -2 -9 12 -1 22 -5 22 -9 0 -5 21 -9 48 -11
71 -3 70 -16 -1 -14 -34 1 -66 2 -72 3 -5 0 -3 5 5 10 12 8 9 10 -12 10 -16 0
-28 4 -28 9 0 12 19 19 45 19 16 0 15 -2 -5 -8z m-145 -21 c-4 -5 1 -9 9 -9 9
0 16 -4 16 -10 0 -13 -13 -13 -26 0 -7 7 -17 4 -30 -8 -16 -15 -23 -16 -44 -5
-17 9 -20 13 -8 13 9 0 20 5 24 11 5 9 -1 10 -20 5 -15 -4 -26 -2 -26 4 0 5
14 10 30 10 20 0 30 -5 30 -15 0 -9 6 -12 15 -9 8 4 15 13 15 21 0 8 5 11 10
8 6 -4 8 -11 5 -16z m358 -6 c20 -3 37 -10 37 -15 0 -11 -82 0 -90 12 -3 4
-14 10 -25 13 -11 4 -6 4 10 1 17 -3 47 -8 68 -11z m-1510 -87 c4 -10 1 -13
-7 -10 -8 3 -17 1 -21 -5 -3 -7 3 -11 17 -12 22 0 22 -1 3 -8 -34 -14 -47 -2
-27 25 20 27 28 29 35 10z m-313 -17 c0 8 12 4 30 -9 17 -12 30 -25 30 -30 0
-9 -69 25 -84 42 -7 7 -4 7 7 -1 12 -10 17 -10 17 -2z m1198 -16 c-16 -2 -40
-2 -55 0 -16 2 -3 4 27 4 30 0 43 -2 28 -4z m1075 -92 c26 -19 45 -36 43 -39
-4 -4 -79 51 -111 81 -17 16 18 -6 68 -42z m-659 7 c-2 -3 5 -4 16 -1 12 3 29
-2 40 -12 11 -10 20 -13 20 -7 0 15 43 9 48 -6 2 -7 11 -12 19 -12 9 0 13 6
10 14 -4 10 -1 13 9 9 10 -4 12 0 8 10 -6 18 27 16 50 -1 24 -20 56 -24 50 -8
-5 14 -3 14 22 1 27 -14 29 -14 32 4 4 23 42 17 42 -6 0 -10 -6 -13 -16 -9 -8
3 -13 2 -10 -3 3 -5 22 -8 41 -6 38 4 48 -3 35 -25 -7 -12 -10 -12 -16 3 -3 9
-11 17 -16 17 -6 0 -8 -7 -4 -15 4 -10 -1 -15 -16 -15 -20 0 -20 -1 -4 -13 13
-9 15 -18 9 -35 l-9 -23 -18 20 c-11 12 -29 21 -40 21 -20 -1 -19 -2 4 -15 25
-14 21 -19 -12 -16 -13 2 -16 -5 -13 -33 2 -23 -1 -36 -8 -36 -27 0 -86 27
-116 53 -18 15 -42 27 -53 27 -23 0 89 -80 113 -80 8 -1 25 -7 39 -15 31 -18
-1 -22 -44 -5 -33 12 -41 -1 -26 -45 11 -34 25 -45 32 -25 2 6 10 2 19 -9 11
-12 14 -23 8 -32 -6 -10 -9 -10 -9 -2 0 7 -6 10 -14 7 -14 -6 -46 36 -46 61 0
9 -5 13 -11 9 -6 -3 -24 3 -40 15 -16 12 -43 21 -63 21 -19 0 -37 4 -41 10 -3
5 -12 7 -19 4 -7 -3 -21 2 -30 12 -24 24 -30 11 -7 -15 11 -13 24 -20 29 -17
6 3 22 0 36 -8 l27 -14 -31 -30 c-30 -30 -30 -31 -8 -35 13 -2 9 -3 -8 -2 -18
2 -43 -3 -57 -10 -26 -13 -47 -4 -47 20 0 13 -70 118 -76 113 -25 -25 89 -162
128 -154 29 6 30 4 23 -21 -11 -47 -41 -78 -54 -56 -6 11 -11 13 -11 5 0 -8
-5 -10 -12 -6 -7 5 -9 2 -6 -7 3 -8 -1 -24 -9 -34 -13 -17 -15 -17 -10 -2 5
12 -1 21 -18 29 -27 12 -34 38 -10 38 7 0 18 -7 23 -17 9 -14 11 -14 21 5 7
12 9 22 5 22 -3 0 0 8 7 17 12 15 12 16 -6 9 -11 -4 -16 -4 -13 0 4 4 3 15 -3
25 -10 20 -55 26 -61 9 -1 -5 -23 -12 -47 -16 -29 -5 -42 -4 -38 3 4 6 -7 9
-30 6 -21 -2 -41 -9 -45 -16 -5 -8 -8 -9 -8 -1 0 7 -10 12 -22 12 -13 0 -50 3
-83 7 -33 3 -82 8 -110 10 -42 3 -50 7 -47 22 1 10 3 26 4 36 1 10 15 30 31
45 16 15 42 40 58 56 36 37 162 65 167 37 3 -20 51 -43 66 -33 15 9 85 9 79 0
-2 -5 3 -8 11 -8 17 0 36 29 36 56 0 13 -3 14 -15 4 -12 -10 -15 -10 -15 1 0
12 -2 12 -9 0 -7 -10 -10 -10 -16 -1 -11 17 15 31 47 24 15 -3 36 0 47 6 18 9
21 8 22 -7 0 -11 3 -13 6 -5 2 6 9 12 14 12 4 0 6 -7 3 -15 -4 -8 1 -17 10
-21 29 -11 34 1 15 40 -10 21 -16 43 -13 47 3 5 -1 9 -9 9 -8 0 -17 -7 -21
-15 -8 -22 -25 -18 -23 5 1 12 7 18 14 16 7 -3 13 -2 13 2 0 4 15 7 33 7 26 0
31 4 29 19 -3 15 -1 16 11 5 8 -8 13 -17 11 -21z m-1398 -35 c13 -5 12 -8 -2
-24 -16 -18 -15 -19 7 -28 13 -5 19 -10 12 -10 -6 -1 -18 -4 -27 -7 -12 -5
-16 0 -16 17 -1 23 -1 23 -15 5 -14 -19 -3 -51 14 -42 7 4 35 -26 39 -42 1 -7
-2 -12 -8 -12 -5 0 -10 -4 -10 -10 0 -5 6 -10 14 -10 8 0 18 -4 21 -10 4 -6
-1 -7 -11 -3 -13 5 -16 3 -11 -9 3 -9 3 -18 0 -21 -7 -8 -43 31 -43 48 0 8 -9
19 -19 24 -16 9 -18 8 -14 -12 5 -21 4 -21 -17 3 -19 22 -20 22 -11 3 14 -27
14 -33 1 -33 -5 0 -10 7 -10 15 0 8 -4 15 -9 15 -5 0 -7 9 -4 20 3 12 -1 22
-11 26 -9 3 -16 13 -16 21 0 12 3 13 13 4 11 -8 13 -5 9 19 -5 38 6 83 18 75
6 -4 8 -10 5 -15 -3 -5 2 -16 11 -25 9 -9 14 -24 11 -35 -10 -39 12 -19 25 22
9 32 10 42 0 46 -7 2 -12 9 -12 15 0 8 4 7 12 -1 17 -17 28 -15 29 6 1 11 3 9
6 -6 3 -13 11 -26 19 -29z m-403 10 c-7 -20 -62 -103 -68 -103 -2 0 13 27 32
60 37 61 47 74 36 43z m2407 -22 c0 -4 32 -34 72 -66 72 -59 135 -123 152
-154 5 -9 -13 9 -41 39 -50 55 -51 55 -103 51 l-52 -3 20 -22 c31 -34 84 -116
75 -116 -4 0 -18 18 -30 39 -42 74 -70 99 -109 99 -19 0 -38 3 -41 6 -4 3 36
6 88 6 l94 0 -45 38 c-71 59 -139 126 -107 107 15 -10 27 -20 27 -24z m-1586
-63 c16 -27 26 -48 23 -48 -6 0 -57 86 -57 96 0 10 3 6 34 -48z m558 10 c-14
-13 -45 -13 -50 1 -3 10 0 12 13 7 12 -4 16 -2 12 8 -9 22 5 28 19 8 7 -9 10
-20 6 -24z m-664 -68 c53 0 93 -2 90 -5 -8 -8 -228 -8 -235 -1 -4 3 4 6 16 6
18 0 21 4 17 23 l-6 22 11 -22 c11 -21 19 -23 107 -23z m-795 10 c-7 -26 -13
-29 -38 -19 -19 7 -19 8 1 8 12 1 24 8 28 16 8 22 15 18 9 -5z m2767 -13 c12
4 13 3 1 -5 -11 -8 -10 -12 7 -21 23 -12 112 -127 112 -144 0 -7 -13 8 -29 33
-30 48 -73 96 -106 120 -11 8 -27 24 -35 35 -13 18 -12 18 10 -1 14 -12 32
-19 40 -17z m-2553 -6 c-103 -6 -110 -7 -124 -31 -9 -16 -12 -18 -7 -5 3 11 7
26 7 33 0 9 29 12 116 10 l116 -2 -108 -5z m-251 -48 c-8 -16 -19 -48 -26 -72
-6 -25 -15 -39 -19 -33 -3 6 -31 12 -61 15 l-55 3 63 2 c42 1 62 6 62 15 1 16
37 97 45 97 3 0 -1 -12 -9 -27z m719 6 c6 -17 9 -19 16 -8 5 8 9 11 9 7 0 -3
3 -14 6 -22 5 -13 2 -15 -17 -8 -22 9 -47 52 -29 52 5 0 12 -10 15 -21z m-355
-69 l0 -30 -62 2 -63 2 58 3 c53 4 57 6 57 28 0 14 2 25 5 25 3 0 5 -13 5 -30z
m-130 -5 c0 -24 -2 -25 -62 -23 l-63 2 58 3 c49 3 57 7 57 23 0 11 2 20 5 20
3 0 5 -11 5 -25z m663 -74 c-7 -9 -11 6 -17 54 l-5 50 13 -50 c7 -27 11 -52 9
-54z m-350 56 c29 -2 0 -3 -63 -3 -63 0 -89 1 -57 3 45 3 57 8 58 21 1 16 2
16 6 0 3 -13 18 -18 56 -21z m162 3 c3 -5 2 -10 -4 -10 -5 0 -11 -8 -13 -17
-3 -13 -6 -10 -10 10 -5 27 13 39 27 17z m-652 -7 c-13 -2 -35 -2 -50 0 -16 2
-5 4 22 4 28 0 40 -2 28 -4z m925 0 c-16 -2 -40 -2 -55 0 -16 2 -3 4 27 4 30
0 43 -2 28 -4z m1755 0 c-13 -2 -35 -2 -50 0 -16 2 -5 4 22 4 28 0 40 -2 28
-4z m130 0 c-13 -2 -35 -2 -50 0 -16 2 -5 4 22 4 28 0 40 -2 28 -4z m-2376
-95 c-2 -18 -4 -6 -4 27 0 33 2 48 4 33 2 -15 2 -42 0 -60z m1500 -5 c-2 -16
-4 -3 -4 27 0 30 2 43 4 28 2 -16 2 -40 0 -55z m368 54 c0 -7 10 -11 22 -10
15 2 23 -4 25 -19 2 -12 8 -22 13 -23 6 -1 7 0 3 3 -5 2 -8 13 -8 24 0 20 1
20 18 5 10 -10 25 -17 33 -17 8 0 -3 -11 -23 -23 -35 -22 -36 -24 -17 -36 17
-10 18 -15 8 -27 -6 -8 -14 -12 -18 -9 -3 3 1 10 8 14 10 7 9 10 -8 16 -14 4
-21 15 -21 30 0 13 -10 33 -22 45 -12 11 -23 27 -24 36 -1 9 1 13 4 9 4 -4 7
-12 7 -18z m-2278 -179 c-2 -18 -4 -4 -4 32 0 36 2 50 4 33 2 -18 2 -48 0 -65z
m1090 25 c-2 -16 -4 -5 -4 22 0 28 2 40 4 28 2 -13 2 -35 0 -50z m140 -10 c-2
-16 -4 -5 -4 22 0 28 2 40 4 28 2 -13 2 -35 0 -50z m540 -10 c-2 -16 -4 -3 -4
27 0 30 2 43 4 28 2 -16 2 -40 0 -55z m145 16 c2 -20 -1 -36 -7 -36 -6 0 -8
20 -6 51 5 52 7 49 13 -15z m948 -39 l0 -30 -64 0 c-62 0 -97 -20 -60 -34 8
-3 14 -16 13 -28 l0 -23 -9 23 c-5 12 -12 22 -15 22 -4 0 -4 -4 0 -9 3 -5 1
-12 -5 -16 -5 -3 -10 1 -10 11 0 13 -4 12 -19 -7 -24 -31 -36 -69 -22 -69 6 0
11 4 11 10 0 5 6 7 14 4 9 -4 16 3 19 18 3 17 5 15 6 -9 1 -29 -2 -33 -24 -33
-25 0 -34 -14 -16 -24 5 -4 12 0 14 6 4 9 6 10 6 1 2 -21 -40 -43 -61 -32 -10
5 -18 14 -18 20 0 6 5 7 12 3 7 -4 8 -3 4 4 -13 21 -32 13 -34 -15 -3 -38 -12
-42 -12 -6 0 34 -13 43 -53 36 -17 -3 -27 -1 -27 6 0 7 -6 9 -12 5 -7 -4 -9
-3 -5 1 4 5 28 8 54 6 l46 -3 -6 56 c-6 61 1 68 34 34 16 -17 20 -18 16 -6 -8
23 14 28 33 8 8 -9 14 -14 13 -12 -1 2 8 13 20 25 l21 21 -24 7 c-15 4 12 7
63 8 86 1 87 1 87 26 0 14 2 25 5 25 3 0 5 -13 5 -30z m-359 -4 c-10 -12 -7
-15 21 -19 29 -3 28 -4 -9 -5 -29 -1 -43 -6 -43 -16 0 -7 -9 -16 -21 -19 -19
-5 -20 -4 -5 12 9 10 13 21 9 24 -3 4 0 7 8 7 8 0 21 9 29 20 8 11 16 17 18
15 3 -3 -1 -11 -7 -19z m-113 -19 c31 -2 -17 -3 -108 -3 -91 0 -119 2 -62 3
88 3 102 6 103 21 1 16 2 16 6 0 3 -13 18 -18 61 -21z m-2045 2 c45 0 75 -3
67 -6 -8 -3 -18 -11 -22 -17 -5 -8 -8 -7 -8 2 0 9 -70 13 -312 14 l-313 3 248
2 c187 3 247 6 248 16 0 9 2 9 6 0 3 -9 31 -13 86 -14z m369 1 c10 0 17 -5 16
-12 -2 -7 2 -12 7 -13 26 -1 33 -17 28 -65 -3 -34 -1 -50 7 -50 7 0 5 -6 -4
-16 -26 -25 -48 4 -40 54 6 39 -7 82 -26 82 -5 0 -11 -12 -13 -27 -3 -22 -4
-21 -3 5 1 17 -2 32 -6 32 -4 0 -8 8 -8 17 0 13 3 14 12 5 7 -7 20 -12 30 -12z
m1338 -3 c8 -3 -22 -6 -68 -6 -76 -1 -83 -3 -93 -23 -9 -22 -9 -22 -4 2 2 14
5 27 5 30 0 3 29 3 65 2 49 -3 65 0 65 10 0 9 3 9 8 2 4 -6 14 -14 22 -17z
m-1432 -4 c-26 -2 -71 -2 -100 0 -29 2 -8 3 47 3 55 0 79 -1 53 -3z m710 0
c-21 -2 -55 -2 -75 0 -21 2 -4 4 37 4 41 0 58 -2 38 -4z m152 -7 c0 -8 8 -13
18 -12 14 1 17 -6 15 -39 -1 -22 1 -33 4 -25 3 8 11 18 17 22 7 5 7 8 -2 8 -7
0 -11 4 -8 8 17 29 77 -3 67 -35 -1 -2 -2 -6 -3 -10 0 -5 -8 -13 -17 -20 -9
-6 -13 -15 -9 -19 4 -4 14 -2 21 4 10 9 14 8 14 -3 0 -10 -11 -15 -31 -16 -28
-2 -29 -2 -6 -7 l25 -5 -25 -6 c-24 -7 -60 39 -60 76 0 46 -35 82 -85 86 l-50
3 58 2 c43 2 57 -1 57 -12z m1468 7 c-16 -2 -40 -2 -55 0 -16 2 -3 4 27 4 30
0 43 -2 28 -4z m-728 -66 c7 -21 10 -40 8 -42 -2 -3 -12 18 -21 47 -9 28 -12
47 -8 42 5 -5 14 -26 21 -47z m312 20 c11 -4 21 0 27 11 9 14 10 14 11 2 0
-22 -41 -55 -50 -41 -3 7 -14 9 -23 5 -10 -3 -17 -1 -17 5 0 6 -7 8 -15 5 -26
-10 -16 5 12 20 16 8 30 11 33 7 3 -4 13 -10 22 -14z m-776 -33 c-4 -20 -10
-34 -12 -31 -3 3 -2 21 2 41 3 21 9 35 11 32 3 -3 2 -21 -1 -42z m698 -36 c-3
-10 -1 -18 5 -18 6 0 11 8 11 17 0 24 6 13 13 -24 4 -21 2 -33 -4 -33 -18 0
-48 44 -43 63 3 10 -1 20 -10 23 -9 3 -13 10 -10 16 10 16 45 -23 38 -44z
m-2348 -24 c-4 -20 -10 -34 -13 -30 -3 3 -2 21 1 42 4 20 10 34 13 30 3 -3 2
-21 -1 -42z m1403 -57 c-1 -72 -6 -66 -12 15 -2 31 0 55 5 52 4 -3 8 -33 7
-67z m1310 -11 c-6 -26 -13 -45 -16 -43 -2 3 1 26 8 51 6 26 13 45 16 43 2 -3
-1 -26 -8 -51z m-2628 -7 c-11 -24 -20 -41 -20 -37 -1 12 31 89 35 85 3 -2 -4
-24 -15 -48z m579 -3 c0 -9 -4 -16 -10 -16 -5 0 -10 -4 -10 -10 0 -5 6 -7 13
-4 8 3 14 -2 14 -11 0 -8 -4 -15 -9 -15 -5 0 -6 -4 -3 -10 3 -5 1 -18 -4 -27
-6 -10 -11 -16 -11 -13 -13 86 -11 152 4 138 9 -9 16 -24 16 -32z m250 -41 c0
-11 -11 -15 -47 -13 l-48 1 43 4 c23 2 42 8 42 14 0 5 2 9 5 9 3 0 5 -7 5 -15z
m-772 -11 c-3 -3 -44 -5 -91 -5 l-85 0 -12 -50 c-7 -27 -14 -48 -16 -46 -3 2
1 27 8 56 l11 51 95 0 c53 0 93 -3 90 -6z m34 -1 c-6 -2 -9 -10 -5 -16 3 -7 2
-9 -2 -5 -8 8 -71 -90 -67 -104 1 -5 -2 -8 -8 -8 -14 0 -14 1 25 66 19 32 35
61 35 66 0 4 8 8 18 7 10 0 12 -3 4 -6z m1303 2 c-23 -8 -85 -10 -85 -3 0 4
21 8 48 7 26 0 43 -2 37 -4z m58 -2 c-28 -4 -32 -8 -36 -41 l-4 -37 -1 43 -2
42 38 -2 c36 -1 36 -1 5 -5z m174 1 c-9 -9 -117 -10 -117 -1 0 4 28 7 62 7 34
0 59 -3 55 -6z m597 -20 c4 -15 5 -28 3 -31 -3 -2 -7 8 -11 22 -6 22 -11 25
-52 25 l-46 0 36 -65 c20 -36 32 -65 28 -65 -4 0 -20 28 -37 61 -16 34 -39 65
-50 70 -13 5 4 8 51 8 69 1 72 0 78 -25z m101 -20 c3 -25 4 -48 2 -50 -3 -3
-8 15 -11 40 -7 44 -8 45 -49 49 l-42 4 46 1 47 2 7 -46z m93 -26 l-2 -73 -3
67 -4 67 -42 4 -42 4 48 1 47 2 -2 -72z m85 65 c-13 -2 -35 -2 -50 0 -16 2 -5
4 22 4 28 0 40 -2 28 -4z m107 -24 c-13 -43 -22 -50 -14 -11 6 30 5 31 -32 35
-38 4 -37 4 8 5 l47 2 -9 -31z m-1801 -38 c-7 -23 -14 -39 -16 -37 -3 2 1 23
8 45 7 23 14 39 16 37 3 -2 -1 -23 -8 -45z m773 -36 c-17 -36 -33 -65 -36 -65
-3 0 -2 8 3 18 4 9 18 41 31 69 13 29 26 51 28 48 2 -2 -9 -33 -26 -70z
m-1895 -12 c-2 -16 -4 -3 -4 27 0 30 2 43 4 28 2 -16 2 -40 0 -55z m1983 17
c-18 -35 -24 -40 -53 -39 -31 2 -31 2 -4 6 19 3 35 16 49 39 27 47 33 43 8 -6z
m-960 -15 c0 -21 -4 -25 -27 -24 -24 2 -25 2 -5 6 14 3 22 12 22 24 0 10 2 19
5 19 3 0 5 -11 5 -25z"/>
        <path d="M2210 1108 c-24 -10 -24 -10 -5 -18 11 -4 23 -3 27 3 3 5 22 11 42
12 20 1 40 5 43 9 10 10 -80 6 -107 -6z"/>
        <path d="M840 1326 c0 -3 14 -14 30 -26 17 -12 30 -17 30 -11 0 6 -13 17 -30
26 -16 9 -30 13 -30 11z"/>
        <path d="M2893 13 c15 -2 37 -2 50 0 12 2 0 4 -28 4 -27 0 -38 -2 -22 -4z"/>
      </g>
    </g>
  </g>
  <text x="400" y="148" font-size="13" text-anchor="middle">d</text>
  </g>
</svg>
